<?xml version="1.0" encoding="utf-8"?>
<svg version="1.1" xmlns:xlink="http://www.w3.org/1999/xlink" width="12px" height="12px" viewBox="2873 476  12 12" xmlns="http://www.w3.org/2000/svg">
  <path d="M 2879 476  C 2882.36 476  2885 478.64  2885 482  C 2885 485.36  2882.36 488  2879 488  C 2875.64 488  2873 485.36  2873 482  C 2873 478.64  2875.64 476  2879 476  Z " fill-rule="nonzero" fill="#f0f0f0" stroke="none" />
  <path d="M 2879 476.5  C 2882.08 476.5  2884.5 478.92  2884.5 482  C 2884.5 485.08  2882.08 487.5  2879 487.5  C 2875.92 487.5  2873.5 485.08  2873.5 482  C 2873.5 478.92  2875.92 476.5  2879 476.5  Z " stroke-width="1" stroke="#797979" fill="none" />
  <path d="M 2879 485  C 2877.32 485  2876 483.68  2876 482  C 2876 480.32  2877.32 479  2879 479  C 2880.68 479  2882 480.32  2882 482  C 2882 483.68  2880.68 485  2879 485  " fill-rule="nonzero" fill="#797979" stroke="none" />
</svg>