<?xml version="1.0" encoding="utf-8"?>
<svg version="1.1" xmlns:xlink="http://www.w3.org/1999/xlink" width="12px" height="12px" viewBox="1927 252  12 12" xmlns="http://www.w3.org/2000/svg">
  <path d="M 1933 252  C 1936.36 252  1939 254.64  1939 258  C 1939 261.36  1936.36 264  1933 264  C 1929.64 264  1927 261.36  1927 258  C 1927 254.64  1929.64 252  1933 252  Z " fill-rule="nonzero" fill="#ffffff" stroke="none" />
  <path d="M 1933 252.5  C 1936.08 252.5  1938.5 254.92  1938.5 258  C 1938.5 261.08  1936.08 263.5  1933 263.5  C 1929.92 263.5  1927.5 261.08  1927.5 258  C 1927.5 254.92  1929.92 252.5  1933 252.5  Z " stroke-width="1" stroke="#797979" fill="none" />
  <path d="M 1933 261  C 1931.32 261  1930 259.68  1930 258  C 1930 256.32  1931.32 255  1933 255  C 1934.68 255  1936 256.32  1936 258  C 1936 259.68  1934.68 261  1933 261  " fill-rule="nonzero" fill="#797979" stroke="none" />
</svg>