<?xml version="1.0" encoding="utf-8"?>
<svg version="1.1" xmlns:xlink="http://www.w3.org/1999/xlink" width="12px" height="12px" viewBox="2633 271  12 12" xmlns="http://www.w3.org/2000/svg">
  <path d="M 2639 271  C 2642.36 271  2645 273.64  2645 277  C 2645 280.36  2642.36 283  2639 283  C 2635.64 283  2633 280.36  2633 277  C 2633 273.64  2635.64 271  2639 271  Z " fill-rule="nonzero" fill="#ffffff" stroke="none" />
  <path d="M 2639 271.5  C 2642.08 271.5  2644.5 273.92  2644.5 277  C 2644.5 280.08  2642.08 282.5  2639 282.5  C 2635.92 282.5  2633.5 280.08  2633.5 277  C 2633.5 273.92  2635.92 271.5  2639 271.5  Z " stroke-width="1" stroke="#797979" fill="none" />
  <path d="M 2639 280  C 2637.32 280  2636 278.68  2636 277  C 2636 275.32  2637.32 274  2639 274  C 2640.68 274  2642 275.32  2642 277  C 2642 278.68  2640.68 280  2639 280  " fill-rule="nonzero" fill="#797979" stroke="none" />
</svg>