<?xml version="1.0" encoding="utf-8"?>
<svg version="1.1" xmlns:xlink="http://www.w3.org/1999/xlink" width="12px" height="12px" viewBox="1809 252  12 12" xmlns="http://www.w3.org/2000/svg">
  <path d="M 1815 252  C 1818.36 252  1821 254.64  1821 258  C 1821 261.36  1818.36 264  1815 264  C 1811.64 264  1809 261.36  1809 258  C 1809 254.64  1811.64 252  1815 252  Z " fill-rule="nonzero" fill="#f0f0f0" stroke="none" />
  <path d="M 1815 252.5  C 1818.08 252.5  1820.5 254.92  1820.5 258  C 1820.5 261.08  1818.08 263.5  1815 263.5  C 1811.92 263.5  1809.5 261.08  1809.5 258  C 1809.5 254.92  1811.92 252.5  1815 252.5  Z " stroke-width="1" stroke="#797979" fill="none" />
  <path d="M 1815 261  C 1813.32 261  1812 259.68  1812 258  C 1812 256.32  1813.32 255  1815 255  C 1816.68 255  1818 256.32  1818 258  C 1818 259.68  1816.68 261  1815 261  " fill-rule="nonzero" fill="#797979" stroke="none" />
</svg>