<?xml version="1.0" encoding="utf-8"?>
<svg version="1.1" xmlns:xlink="http://www.w3.org/1999/xlink" width="12px" height="12px" viewBox="2629 491  12 12" xmlns="http://www.w3.org/2000/svg">
  <path d="M 2635 491  C 2638.36 491  2641 493.64  2641 497  C 2641 500.36  2638.36 503  2635 503  C 2631.64 503  2629 500.36  2629 497  C 2629 493.64  2631.64 491  2635 491  Z " fill-rule="nonzero" fill="#ffffff" stroke="none" />
  <path d="M 2635 491.5  C 2638.08 491.5  2640.5 493.92  2640.5 497  C 2640.5 500.08  2638.08 502.5  2635 502.5  C 2631.92 502.5  2629.5 500.08  2629.5 497  C 2629.5 493.92  2631.92 491.5  2635 491.5  Z " stroke-width="1" stroke="#797979" fill="none" />
  <path d="M 2635 500  C 2633.32 500  2632 498.68  2632 497  C 2632 495.32  2633.32 494  2635 494  C 2636.68 494  2638 495.32  2638 497  C 2638 498.68  2636.68 500  2635 500  " fill-rule="nonzero" fill="#797979" stroke="none" />
</svg>