<?xml version="1.0" encoding="utf-8"?>
<svg version="1.1" xmlns:xlink="http://www.w3.org/1999/xlink" width="12px" height="12px" viewBox="2511 491  12 12" xmlns="http://www.w3.org/2000/svg">
  <path d="M 2517 491  C 2520.36 491  2523 493.64  2523 497  C 2523 500.36  2520.36 503  2517 503  C 2513.64 503  2511 500.36  2511 497  C 2511 493.64  2513.64 491  2517 491  Z " fill-rule="nonzero" fill="#ffffff" stroke="none" />
  <path d="M 2517 491.5  C 2520.08 491.5  2522.5 493.92  2522.5 497  C 2522.5 500.08  2520.08 502.5  2517 502.5  C 2513.92 502.5  2511.5 500.08  2511.5 497  C 2511.5 493.92  2513.92 491.5  2517 491.5  Z " stroke-width="1" stroke="#797979" fill="none" />
  <path d="M 2517 500  C 2515.32 500  2514 498.68  2514 497  C 2514 495.32  2515.32 494  2517 494  C 2518.68 494  2520 495.32  2520 497  C 2520 498.68  2518.68 500  2517 500  " fill-rule="nonzero" fill="#797979" stroke="none" />
</svg>