<?xml version="1.0" encoding="utf-8"?>
<svg version="1.1" xmlns:xlink="http://www.w3.org/1999/xlink" width="20px" height="20px" preserveAspectRatio="xMinYMid meet" viewBox="1660 371  20 18" xmlns="http://www.w3.org/2000/svg">
  <path d="M 1564 361  L 1616 361  L 1616 380  L 1669 380  " stroke-width="2" stroke-dasharray="6,2" stroke="#000000" fill="none" />
  <path d="M 1561.5 357.5  A 3.5 3.5 0 0 0 1558 361 A 3.5 3.5 0 0 0 1561.5 364.5 A 3.5 3.5 0 0 0 1565 361 A 3.5 3.5 0 0 0 1561.5 357.5 Z M 1561.5 359.5  A 1.5 1.5 0 0 1 1563 361 A 1.5 1.5 0 0 1 1561.5 362.5 A 1.5 1.5 0 0 1 1560 361 A 1.5 1.5 0 0 1 1561.5 359.5 Z M 1668 387.6  L 1675 380  L 1668 372.4  L 1668 387.6  Z M 1670 382.8  L 1670 377.2  L 1672 380  L 1670 382.8  Z " fill-rule="nonzero" fill="#000000" stroke="none" />
</svg>