<?xml version="1.0" encoding="utf-8"?>
<svg version="1.1" xmlns:xlink="http://www.w3.org/1999/xlink" width="12px" height="12px" viewBox="140 709  12 12" xmlns="http://www.w3.org/2000/svg">
  <path d="M 146 709  C 149.36 709  152 711.64  152 715  C 152 718.36  149.36 721  146 721  C 142.64 721  140 718.36  140 715  C 140 711.64  142.64 709  146 709  Z " fill-rule="nonzero" fill="#ffffff" stroke="none" />
  <path d="M 146 709.5  C 149.08 709.5  151.5 711.92  151.5 715  C 151.5 718.08  149.08 720.5  146 720.5  C 142.92 720.5  140.5 718.08  140.5 715  C 140.5 711.92  142.92 709.5  146 709.5  Z " stroke-width="1" stroke="#797979" fill="none" />
  <path d="M 146 718  C 144.32 718  143 716.68  143 715  C 143 713.32  144.32 712  146 712  C 147.68 712  149 713.32  149 715  C 149 716.68  147.68 718  146 718  " fill-rule="nonzero" fill="#797979" stroke="none" />
</svg>