<?xml version="1.0" encoding="utf-8"?>
<svg version="1.1" xmlns:xlink="http://www.w3.org/1999/xlink" width="43px" height="25px" xmlns="http://www.w3.org/2000/svg">
  <g transform="matrix(1 0 0 1 -726 -159 )">
    <path d="M 41.986531986532 18.6868686868687  C 42.662177328844 19.0796857463524  43 19.5566778900112  43 20.1178451178451  C 43 20.679012345679  42.662177328844 21.1560044893378  41.986531986532 21.5488215488215  L 37.0639730639731 24.4107744107744  C 36.3883277216611 24.8035914702581  35.5679012345679 25  34.6026936026936 25  C 33.6374859708193 25  32.8170594837262 24.8035914702581  32.1414141414141 24.4107744107744  L 21.5 18.2239057239057  L 10.8585858585859 24.4107744107744  C 10.1829405162739 24.8035914702581  9.3625140291807 25  8.3973063973064 25  C 7.4320987654321 25  6.61167227833895 24.8035914702581  5.93602693602694 24.4107744107744  L 1.01346801346801 21.5488215488215  C 0.337822671156005 21.1560044893378  0 20.679012345679  0 20.1178451178451  C 0 19.5566778900112  0.337822671156005 19.0796857463524  1.01346801346801 18.6868686868687  L 11.6548821548822 12.5  L 1.01346801346801 6.31313131313131  C 0.337822671156005 5.92031425364759  0 5.44332210998878  0 4.88215488215488  C 0 4.32098765432099  0.337822671156005 3.84399551066217  1.01346801346801 3.45117845117845  L 5.93602693602694 0.589225589225589  C 6.61167227833895 0.196408529741862  7.4320987654321 0  8.3973063973064 0  C 9.3625140291807 0  10.1829405162739 0.196408529741862  10.8585858585859 0.589225589225589  L 21.5 6.77609427609428  L 32.1414141414141 0.589225589225589  C 32.8170594837262 0.196408529741862  33.6374859708193 0  34.6026936026936 0  C 35.5679012345679 0  36.3883277216611 0.196408529741862  37.0639730639731 0.589225589225589  L 41.986531986532 3.45117845117845  C 42.662177328844 3.84399551066217  43 4.32098765432099  43 4.88215488215488  C 43 5.44332210998878  42.662177328844 5.92031425364759  41.986531986532 6.31313131313131  L 31.3451178451178 12.5  L 41.986531986532 18.6868686868687  Z " fill-rule="nonzero" fill="#000000" stroke="none" transform="matrix(1 0 0 1 726 159 )" />
  </g>
</svg>