<?xml version="1.0" encoding="utf-8"?>
<svg version="1.1" xmlns:xlink="http://www.w3.org/1999/xlink" width="113px" height="98px" xmlns="http://www.w3.org/2000/svg">
  <g transform="matrix(1 0 0 1 -1790 -186 )">
    <path d="M 1790 186  L 1903 186  L 1903 284  L 1790 284  L 1790 186  " fill-rule="nonzero" fill="#cccccc" stroke="none" />
    <path d="M 1797 193  L 1896 193  L 1896 277  L 1797 277  L 1797 193  " fill-rule="nonzero" fill="#ffffff" stroke="none" />
    <path d="M 1856.11 215.4  C 1851.994 215.4  1848.76 212.166  1848.76 208.05  C 1848.76 203.934  1851.994 200.7  1856.11 200.7  C 1860.226 200.7  1863.46 203.934  1863.46 208.05  C 1863.46 212.166  1860.226 215.4  1856.11 215.4  " fill-rule="nonzero" fill="#cccccc" stroke="none" />
    <path d="M 1800 275  L 1800 231.55  L 1823.5 211.8  L 1856.4 233.89203539823  L 1875.2 223.65  L 1894 233.89203539823  L 1894 275  L 1800 275  " fill-rule="nonzero" fill="#169bd5" stroke="none" />
  </g>
</svg>