<?xml version="1.0" encoding="utf-8"?>
<svg version="1.1" xmlns:xlink="http://www.w3.org/1999/xlink" width="39px" height="30px" xmlns="http://www.w3.org/2000/svg">
  <g transform="matrix(1 0 0 1 -919 -190 )">
    <path d="M 919 190  L 958 190  L 958 220  L 919 220  L 919 190  " fill-rule="nonzero" fill="#cccccc" stroke="none" />
    <path d="M 921 192  L 956 192  L 956 218  L 921 218  L 921 192  " fill-rule="nonzero" fill="#ffffff" stroke="none" />
    <path d="M 941.53 199  C 940.27 199  939.28 198.01  939.28 196.75  C 939.28 195.49  940.27 194.5  941.53 194.5  C 942.79 194.5  943.78 195.49  943.78 196.75  C 943.78 198.01  942.79 199  941.53 199  " fill-rule="nonzero" fill="#cccccc" stroke="none" />
    <path d="M 922 217  L 922 203.8  L 930.25 197.8  L 941.8 205.923076923077  L 948.4 201.4  L 955 205.923076923077  L 955 217  L 922 217  " fill-rule="nonzero" fill="#169bd5" stroke="none" />
  </g>
</svg>