<?xml version="1.0" encoding="utf-8"?>
<svg version="1.1" xmlns:xlink="http://www.w3.org/1999/xlink" width="39px" height="30px" xmlns="http://www.w3.org/2000/svg">
  <g transform="matrix(1 0 0 1 -828 -192 )">
    <path d="M 828 192  L 867 192  L 867 222  L 828 222  L 828 192  " fill-rule="nonzero" fill="#cccccc" stroke="none" />
    <path d="M 830 194  L 865 194  L 865 220  L 830 220  L 830 194  " fill-rule="nonzero" fill="#ffffff" stroke="none" />
    <path d="M 850.53 201  C 849.27 201  848.28 200.01  848.28 198.75  C 848.28 197.49  849.27 196.5  850.53 196.5  C 851.79 196.5  852.78 197.49  852.78 198.75  C 852.78 200.01  851.79 201  850.53 201  " fill-rule="nonzero" fill="#cccccc" stroke="none" />
    <path d="M 831 219  L 831 205.8  L 839.25 199.8  L 850.8 207.923076923077  L 857.4 203.4  L 864 207.923076923077  L 864 219  L 831 219  " fill-rule="nonzero" fill="#169bd5" stroke="none" />
  </g>
</svg>