<?xml version="1.0" encoding="utf-8"?>
<svg version="1.1" xmlns:xlink="http://www.w3.org/1999/xlink" width="39px" height="30px" xmlns="http://www.w3.org/2000/svg">
  <g transform="matrix(1 0 0 1 -911 -192 )">
    <path d="M 911 192  L 950 192  L 950 222  L 911 222  L 911 192  " fill-rule="nonzero" fill="#cccccc" stroke="none" />
    <path d="M 913 194  L 948 194  L 948 220  L 913 220  L 913 194  " fill-rule="nonzero" fill="#ffffff" stroke="none" />
    <path d="M 933.53 201  C 932.27 201  931.28 200.01  931.28 198.75  C 931.28 197.49  932.27 196.5  933.53 196.5  C 934.79 196.5  935.78 197.49  935.78 198.75  C 935.78 200.01  934.79 201  933.53 201  " fill-rule="nonzero" fill="#cccccc" stroke="none" />
    <path d="M 914 219  L 914 205.8  L 922.25 199.8  L 933.8 207.923076923077  L 940.4 203.4  L 947 207.923076923077  L 947 219  L 914 219  " fill-rule="nonzero" fill="#169bd5" stroke="none" />
  </g>
</svg>