<?xml version="1.0" encoding="utf-8"?>
<svg version="1.1" xmlns:xlink="http://www.w3.org/1999/xlink" width="19px" height="17px" xmlns="http://www.w3.org/2000/svg">
  <g transform="matrix(1 0 0 1 -194 -256 )">
    <path d="M 203.5 256  C 208.82 256  213 259.74  213 264.5  C 213 269.26  208.82 273  203.5 273  C 198.18 273  194 269.26  194 264.5  C 194 259.74  198.18 256  203.5 256  Z " fill-rule="nonzero" fill="#d9001b" stroke="none" />
    <path d="M 203.5 256.5  C 208.54 256.5  212.5 260.02  212.5 264.5  C 212.5 268.98  208.54 272.5  203.5 272.5  C 198.46 272.5  194.5 268.98  194.5 264.5  C 194.5 260.02  198.46 256.5  203.5 256.5  Z " stroke-width="1" stroke="#797979" fill="none" />
  </g>
</svg>