<?xml version="1.0" encoding="utf-8"?>
<svg version="1.1" xmlns:xlink="http://www.w3.org/1999/xlink" width="19px" height="17px" xmlns="http://www.w3.org/2000/svg">
  <g transform="matrix(1 0 0 1 -173 -256 )">
    <path d="M 182.5 256  C 187.82 256  192 259.74  192 264.5  C 192 269.26  187.82 273  182.5 273  C 177.18 273  173 269.26  173 264.5  C 173 259.74  177.18 256  182.5 256  Z " fill-rule="nonzero" fill="#ffffff" stroke="none" />
    <path d="M 182.5 256.5  C 187.54 256.5  191.5 260.02  191.5 264.5  C 191.5 268.98  187.54 272.5  182.5 272.5  C 177.46 272.5  173.5 268.98  173.5 264.5  C 173.5 260.02  177.46 256.5  182.5 256.5  Z " stroke-width="1" stroke="#797979" fill="none" />
  </g>
</svg>