<?xml version="1.0" encoding="utf-8"?>
<svg version="1.1" xmlns:xlink="http://www.w3.org/1999/xlink" width="11px" height="11px" xmlns="http://www.w3.org/2000/svg">
  <g transform="matrix(1 0 0 1 -93 -162 )">
    <path d="M 10.7529296875 6.48470052083333  C 10.7982855902778 6.53005642361111  10.8209635416667 6.58376736111111  10.8209635416667 6.64583333333333  C 10.8209635416667 6.66970486111111  10.8185763888889 6.68641493055555  10.8138020833333 6.69596354166667  C 10.5082465277778 7.97547743055555  9.86848958333333 9.0126953125  8.89453125 9.8076171875  C 7.92057291666667 10.6025390625  6.77951388888889 11  5.47135416666667 11  C 4.77430555555556 11  4.09993489583333 10.8687065972222  3.4482421875 10.6061197916667  C 2.79654947916667 10.3435329861111  2.21527777777778 9.96875  1.70442708333333 9.48177083333333  L 0.780598958333333 10.4055989583333  C 0.689887152777778 10.4963107638889  0.582465277777778 10.5416666666667  0.458333333333333 10.5416666666667  C 0.334201388888889 10.5416666666667  0.226779513888889 10.4963107638889  0.136067708333333 10.4055989583333  C 0.0453559027777778 10.3148871527778  0 10.2074652777778  0 10.0833333333333  L 0 6.875  C 0 6.75086805555555  0.0453559027777778 6.64344618055555  0.136067708333333 6.552734375  C 0.226779513888889 6.46202256944444  0.334201388888889 6.41666666666667  0.458333333333333 6.41666666666667  L 3.66666666666667 6.41666666666667  C 3.79079861111111 6.41666666666667  3.89822048611111 6.46202256944444  3.98893229166667 6.552734375  C 4.07964409722222 6.64344618055555  4.125 6.75086805555555  4.125 6.875  C 4.125 6.99913194444444  4.07964409722222 7.10655381944444  3.98893229166667 7.197265625  L 3.0078125 8.17838541666667  C 3.34678819444445 8.49348958333333  3.73111979166667 8.73697916666667  4.16080729166667 8.90885416666667  C 4.59049479166667 9.08072916666667  5.03689236111111 9.16666666666667  5.5 9.16666666666667  C 6.13975694444444 9.16666666666667  6.73654513888889 9.01150173611111  7.29036458333333 8.701171875  C 7.84418402777778 8.39084201388889  8.28819444444445 7.96354166666667  8.62239583333333 7.41927083333333  C 8.67491319444445 7.33810763888889  8.80143229166667 7.05881076388889  9.001953125 6.58138020833333  C 9.04014756944445 6.47157118055555  9.11176215277778 6.41666666666667  9.216796875 6.41666666666667  L 10.591796875 6.41666666666667  C 10.6538628472222 6.41666666666667  10.7075737847222 6.43934461805555  10.7529296875 6.48470052083333  Z M 10.8639322916667 0.594401041666667  C 10.9546440972222 0.685112847222222  11 0.792534722222222  11 0.916666666666667  L 11 4.125  C 11 4.24913194444444  10.9546440972222 4.35655381944444  10.8639322916667 4.447265625  C 10.7732204861111 4.53797743055556  10.6657986111111 4.58333333333333  10.5416666666667 4.58333333333333  L 7.33333333333333 4.58333333333333  C 7.20920138888889 4.58333333333333  7.10177951388889 4.53797743055556  7.01106770833333 4.447265625  C 6.92035590277778 4.35655381944444  6.875 4.24913194444444  6.875 4.125  C 6.875 4.00086805555555  6.92035590277778 3.89344618055555  7.01106770833333 3.802734375  L 7.99934895833333 2.814453125  C 7.29275173611111 2.16037326388889  6.45963541666667 1.83333333333333  5.5 1.83333333333333  C 4.86024305555556 1.83333333333333  4.26345486111111 1.98849826388889  3.70963541666667 2.298828125  C 3.15581597222222 2.60915798611111  2.71180555555556 3.03645833333333  2.37760416666667 3.58072916666667  C 2.32508680555556 3.66189236111111  2.19856770833333 3.94118923611111  1.998046875 4.41861979166667  C 1.95985243055556 4.52842881944444  1.88823784722222 4.58333333333333  1.783203125 4.58333333333333  L 0.358072916666667 4.58333333333333  C 0.296006944444444 4.58333333333333  0.242296006944444 4.56065538194444  0.196940104166667 4.51529947916667  C 0.151584201388889 4.46994357638889  0.12890625 4.41623263888889  0.12890625 4.35416666666667  L 0.12890625 4.30403645833333  C 0.439236111111111 3.02452256944444  1.08376736111111 1.9873046875  2.0625 1.1923828125  C 3.04123263888889 0.3974609375  4.18706597222222 0  5.5 0  C 6.19704861111111 0  6.875 0.132486979166667  7.53385416666667 0.3974609375  C 8.19270833333333 0.662434895833333  8.77756076388889 1.03602430555555  9.28841145833333 1.51822916666667  L 10.2194010416667 0.594401041666667  C 10.3101128472222 0.50368923611111  10.4175347222222 0.458333333333333  10.5416666666667 0.458333333333333  C 10.6657986111111 0.458333333333333  10.7732204861111 0.50368923611111  10.8639322916667 0.594401041666667  Z " fill-rule="nonzero" fill="#000000" stroke="none" transform="matrix(1 0 0 1 93 162 )" />
  </g>
</svg>