<?xml version="1.0" encoding="utf-8"?>
<svg version="1.1" xmlns:xlink="http://www.w3.org/1999/xlink" width="62px" height="62px" xmlns="http://www.w3.org/2000/svg">
  <defs>
    <mask fill="white" id="clip140">
      <path d="M 79 147  C 61.795 147  48 133.205  48 116  L 48 116  C 48 98.795  61.795 85  79 85  L 79 85  C 96.205 85  110 98.795  110 116  L 110 116  C 110 133.205  96.205 147  79 147  " fill-rule="evenodd" />
    </mask>
  </defs>
  <g transform="matrix(1 0 0 1 -48 -85 )">
    <path d="M 48 85  L 110 85  L 110 147  L 48 147  L 48 85  " fill-rule="nonzero" fill="#cccccc" stroke="none" mask="url(#clip140)" />
    <path d="M 52 89  L 106 89  L 106 143  L 52 143  L 52 89  " fill-rule="nonzero" fill="#ffffff" stroke="none" mask="url(#clip140)" />
    <path d="M 84.89 103.6  C 82.286 103.6  80.24 101.554  80.24 98.95  C 80.24 96.346  82.286 94.3  84.89 94.3  C 87.494 94.3  89.54 96.346  89.54 98.95  C 89.54 101.554  87.494 103.6  84.89 103.6  " fill-rule="nonzero" fill="#cccccc" stroke="none" mask="url(#clip140)" />
    <path d="M 54 142  L 54 113.95  L 66.75 101.2  L 84.6 111.4  L 94.8 108.85  L 105 111.4  L 105 142  L 54 142  " fill-rule="nonzero" fill="#169bd5" stroke="none" mask="url(#clip140)" />
  </g>
</svg>