<?xml version="1.0" encoding="utf-8"?>
<svg version="1.1" xmlns:xlink="http://www.w3.org/1999/xlink" width="13px" height="11px" xmlns="http://www.w3.org/2000/svg">
  <g transform="matrix(1 0 0 1 -194 -227 )">
    <path d="M 200.5 227  C 204.14 227  207 229.42  207 232.5  C 207 235.58  204.14 238  200.5 238  C 196.86 238  194 235.58  194 232.5  C 194 229.42  196.86 227  200.5 227  Z " fill-rule="nonzero" fill="#ffffff" stroke="none" />
    <path d="M 200.5 227.5  C 203.86 227.5  206.5 229.7  206.5 232.5  C 206.5 235.3  203.86 237.5  200.5 237.5  C 197.14 237.5  194.5 235.3  194.5 232.5  C 194.5 229.7  197.14 227.5  200.5 227.5  Z " stroke-width="1" stroke="#797979" fill="none" />
  </g>
</svg>