<?xml version="1.0" encoding="utf-8"?>
<svg version="1.1" xmlns:xlink="http://www.w3.org/1999/xlink" width="363px" height="97px" xmlns="http://www.w3.org/2000/svg">
  <g transform="matrix(1 0 0 1 -33 -149 )">
    <path d="M 33 149  L 396 149  L 396 246  L 33 246  L 33 149  " fill-rule="nonzero" fill="#cccccc" stroke="none" />
    <path d="M 40 156  L 389 156  L 389 239  L 40 239  L 40 156  " fill-rule="nonzero" fill="#ffffff" stroke="none" />
    <path d="M 229.035 178.1  C 224.961 178.1  221.76 174.899  221.76 170.825  C 221.76 166.751  224.961 163.55  229.035 163.55  C 233.109 163.55  236.31 166.751  236.31 170.825  C 236.31 174.899  233.109 178.1  229.035 178.1  " fill-rule="nonzero" fill="#cccccc" stroke="none" />
    <path d="M 43 237  L 43 194.1  L 129 174.6  L 249.4 224.494214876033  L 318.2 186.3  L 387 224.494214876033  L 387 237  L 43 237  " fill-rule="nonzero" fill="#169bd5" stroke="none" />
  </g>
</svg>