<?xml version="1.0" encoding="utf-8"?>
<svg version="1.1" xmlns:xlink="http://www.w3.org/1999/xlink" width="133px" height="113px" xmlns="http://www.w3.org/2000/svg">
  <g transform="matrix(1 0 0 1 -25 -9 )">
    <path d="M 25 9  L 158 9  L 158 122  L 25 122  L 25 9  " fill-rule="nonzero" fill="#cccccc" stroke="none" />
    <path d="M 33 17  L 150 17  L 150 114  L 33 114  L 33 17  " fill-rule="nonzero" fill="#ffffff" stroke="none" />
    <path d="M 102.635 42.9  C 97.889 42.9  94.16 39.171  94.16 34.425  C 94.16 29.679  97.889 25.95  102.635 25.95  C 107.381 25.95  111.11 29.679  111.11 34.425  C 111.11 39.171  107.381 42.9  102.635 42.9  " fill-rule="nonzero" fill="#cccccc" stroke="none" />
    <path d="M 36 111  L 36 60.95  L 63.75 38.2  L 102.6 64.6105263157895  L 124.8 51.85  L 147 64.6105263157895  L 147 111  L 36 111  " fill-rule="nonzero" fill="#169bd5" stroke="none" />
  </g>
</svg>