<?xml version="1.0" encoding="utf-8"?>
<svg version="1.1" xmlns:xlink="http://www.w3.org/1999/xlink" width="12px" height="12px" viewBox="0 83  12 12" xmlns="http://www.w3.org/2000/svg">
  <path d="M 6 83  C 9.36 83  12 85.64  12 89  C 12 92.36  9.36 95  6 95  C 2.64 95  0 92.36  0 89  C 0 85.64  2.64 83  6 83  Z " fill-rule="nonzero" fill="#f0f0f0" stroke="none" />
  <path d="M 6 83.5  C 9.08 83.5  11.5 85.92  11.5 89  C 11.5 92.08  9.08 94.5  6 94.5  C 2.92 94.5  0.5 92.08  0.5 89  C 0.5 85.92  2.92 83.5  6 83.5  Z " stroke-width="1" stroke="#797979" fill="none" />
  <path d="M 6 92  C 4.32 92  3 90.68  3 89  C 3 87.32  4.32 86  6 86  C 7.68 86  9 87.32  9 89  C 9 90.68  7.68 92  6 92  " fill-rule="nonzero" fill="#797979" stroke="none" />
</svg>