<?xml version="1.0" encoding="utf-8"?>
<svg version="1.1" xmlns:xlink="http://www.w3.org/1999/xlink" width="375px" height="159px" xmlns="http://www.w3.org/2000/svg">
  <g transform="matrix(1 0 0 1 -2118 -98 )">
    <path d="M 2118 98  L 2493 98  L 2493 257  L 2118 257  L 2118 98  " fill-rule="nonzero" fill="#cccccc" stroke="none" />
    <path d="M 2129 109  L 2482 109  L 2482 246  L 2129 246  L 2129 109  " fill-rule="nonzero" fill="#ffffff" stroke="none" />
    <path d="M 2324.925 145.7  C 2318.247 145.7  2313 140.453  2313 133.775  C 2313 127.097  2318.247 121.85  2324.925 121.85  C 2331.603 121.85  2336.85 127.097  2336.85 133.775  C 2336.85 140.453  2331.603 145.7  2324.925 145.7  " fill-rule="nonzero" fill="#cccccc" stroke="none" />
    <path d="M 2133 242  L 2133 171.05  L 2219.25 138.8  L 2340 209.1824  L 2409 158.15  L 2478 209.1824  L 2478 242  L 2133 242  " fill-rule="nonzero" fill="#169bd5" stroke="none" />
  </g>
</svg>