<?xml version="1.0" encoding="utf-8"?>
<svg version="1.1" xmlns:xlink="http://www.w3.org/1999/xlink" width="12px" height="12px" viewBox="0 264  12 12" xmlns="http://www.w3.org/2000/svg">
  <path d="M 6 264  C 9.36 264  12 266.64  12 270  C 12 273.36  9.36 276  6 276  C 2.64 276  0 273.36  0 270  C 0 266.64  2.64 264  6 264  Z " fill-rule="nonzero" fill="#ffffff" stroke="none" />
  <path d="M 6 264.5  C 9.08 264.5  11.5 266.92  11.5 270  C 11.5 273.08  9.08 275.5  6 275.5  C 2.92 275.5  0.5 273.08  0.5 270  C 0.5 266.92  2.92 264.5  6 264.5  Z " stroke-width="1" stroke="#797979" fill="none" />
  <path d="M 6 273  C 4.32 273  3 271.68  3 270  C 3 268.32  4.32 267  6 267  C 7.68 267  9 268.32  9 270  C 9 271.68  7.68 273  6 273  " fill-rule="nonzero" fill="#797979" stroke="none" />
</svg>