<?xml version="1.0" encoding="utf-8"?>
<svg version="1.1" xmlns:xlink="http://www.w3.org/1999/xlink" width="12px" height="12px" viewBox="0 444  12 12" xmlns="http://www.w3.org/2000/svg">
  <path d="M 6 444  C 9.36 444  12 446.64  12 450  C 12 453.36  9.36 456  6 456  C 2.64 456  0 453.36  0 450  C 0 446.64  2.64 444  6 444  Z " fill-rule="nonzero" fill="#f0f0f0" stroke="none" />
  <path d="M 6 444.5  C 9.08 444.5  11.5 446.92  11.5 450  C 11.5 453.08  9.08 455.5  6 455.5  C 2.92 455.5  0.5 453.08  0.5 450  C 0.5 446.92  2.92 444.5  6 444.5  Z " stroke-width="1" stroke="#797979" fill="none" />
  <path d="M 6 453  C 4.32 453  3 451.68  3 450  C 3 448.32  4.32 447  6 447  C 7.68 447  9 448.32  9 450  C 9 451.68  7.68 453  6 453  " fill-rule="nonzero" fill="#797979" stroke="none" />
</svg>