<?xml version="1.0" encoding="utf-8"?>
<svg version="1.1" xmlns:xlink="http://www.w3.org/1999/xlink" width="41px" height="36px" xmlns="http://www.w3.org/2000/svg">
  <g transform="matrix(1 0 0 1 -1065 -274 )">
    <path d="M 1065 274  L 1106 274  L 1106 310  L 1065 310  L 1065 274  " fill-rule="nonzero" fill="#cccccc" stroke="none" />
    <path d="M 1068 277  L 1103 277  L 1103 307  L 1068 307  L 1068 277  " fill-rule="nonzero" fill="#ffffff" stroke="none" />
    <path d="M 1089.02 284.8  C 1087.508 284.8  1086.32 283.612  1086.32 282.1  C 1086.32 280.588  1087.508 279.4  1089.02 279.4  C 1090.532 279.4  1091.72 280.588  1091.72 282.1  C 1091.72 283.612  1090.532 284.8  1089.02 284.8  " fill-rule="nonzero" fill="#cccccc" stroke="none" />
    <path d="M 1069 306  L 1069 290.6  L 1077.25 283.6  L 1088.8 291.248780487805  L 1095.4 287.8  L 1102 291.248780487805  L 1102 306  L 1069 306  " fill-rule="nonzero" fill="#169bd5" stroke="none" />
  </g>
</svg>