<?xml version="1.0" encoding="utf-8"?>
<svg version="1.1" xmlns:xlink="http://www.w3.org/1999/xlink" width="12px" height="12px" viewBox="459 1959  12 12" xmlns="http://www.w3.org/2000/svg">
  <path d="M 465 1959  C 468.36 1959  471 1961.64  471 1965  C 471 1968.36  468.36 1971  465 1971  C 461.64 1971  459 1968.36  459 1965  C 459 1961.64  461.64 1959  465 1959  Z " fill-rule="nonzero" fill="#ffffff" stroke="none" />
  <path d="M 465 1959.5  C 468.08 1959.5  470.5 1961.92  470.5 1965  C 470.5 1968.08  468.08 1970.5  465 1970.5  C 461.92 1970.5  459.5 1968.08  459.5 1965  C 459.5 1961.92  461.92 1959.5  465 1959.5  Z " stroke-width="1" stroke="#797979" fill="none" />
  <path d="M 465 1968  C 463.32 1968  462 1966.68  462 1965  C 462 1963.32  463.32 1962  465 1962  C 466.68 1962  468 1963.32  468 1965  C 468 1966.68  466.68 1968  465 1968  " fill-rule="nonzero" fill="#797979" stroke="none" />
</svg>