<?xml version="1.0" encoding="utf-8"?>
<svg version="1.1" xmlns:xlink="http://www.w3.org/1999/xlink" width="12px" height="12px" viewBox="459 1958  12 12" xmlns="http://www.w3.org/2000/svg">
  <path d="M 465 1958  C 468.36 1958  471 1960.64  471 1964  C 471 1967.36  468.36 1970  465 1970  C 461.64 1970  459 1967.36  459 1964  C 459 1960.64  461.64 1958  465 1958  Z " fill-rule="nonzero" fill="#ffffff" stroke="none" />
  <path d="M 465 1958.5  C 468.08 1958.5  470.5 1960.92  470.5 1964  C 470.5 1967.08  468.08 1969.5  465 1969.5  C 461.92 1969.5  459.5 1967.08  459.5 1964  C 459.5 1960.92  461.92 1958.5  465 1958.5  Z " stroke-width="1" stroke="#797979" fill="none" />
  <path d="M 465 1967  C 463.32 1967  462 1965.68  462 1964  C 462 1962.32  463.32 1961  465 1961  C 466.68 1961  468 1962.32  468 1964  C 468 1965.68  466.68 1967  465 1967  " fill-rule="nonzero" fill="#797979" stroke="none" />
</svg>