<?xml version="1.0" encoding="utf-8"?>
<svg version="1.1" xmlns:xlink="http://www.w3.org/1999/xlink" width="12px" height="12px" viewBox="2930 1965  12 12" xmlns="http://www.w3.org/2000/svg">
  <path d="M 2936 1965  C 2939.36 1965  2942 1967.64  2942 1971  C 2942 1974.36  2939.36 1977  2936 1977  C 2932.64 1977  2930 1974.36  2930 1971  C 2930 1967.64  2932.64 1965  2936 1965  Z " fill-rule="nonzero" fill="#f0f0f0" stroke="none" />
  <path d="M 2936 1965.5  C 2939.08 1965.5  2941.5 1967.92  2941.5 1971  C 2941.5 1974.08  2939.08 1976.5  2936 1976.5  C 2932.92 1976.5  2930.5 1974.08  2930.5 1971  C 2930.5 1967.92  2932.92 1965.5  2936 1965.5  Z " stroke-width="1" stroke="#797979" fill="none" />
  <path d="M 2936 1974  C 2934.32 1974  2933 1972.68  2933 1971  C 2933 1969.32  2934.32 1968  2936 1968  C 2937.68 1968  2939 1969.32  2939 1971  C 2939 1972.68  2937.68 1974  2936 1974  " fill-rule="nonzero" fill="#797979" stroke="none" />
</svg>