<?xml version="1.0" encoding="utf-8"?>
<svg version="1.1" xmlns:xlink="http://www.w3.org/1999/xlink" width="19px" height="20px" xmlns="http://www.w3.org/2000/svg">
  <g transform="matrix(1 0 0 1 -2056 -1991 )">
    <path d="M 18.5732421875 11.7903645833333  C 18.6515842013889 11.8728298611111  18.6907552083333 11.9704861111111  18.6907552083333 12.0833333333333  C 18.6907552083333 12.1267361111111  18.6866319444444 12.1571180555556  18.6783854166667 12.1744791666667  C 18.1506076388889 14.5008680555556  17.0455729166667 16.38671875  15.36328125 17.83203125  C 13.6809895833333 19.27734375  11.7100694444444 20  9.45052083333333 20  C 8.24652777777778 20  7.08170572916667 19.7612847222222  5.9560546875 19.2838541666667  C 4.83040364583333 18.8064236111111  3.82638888888889 18.125  2.94401041666667 17.2395833333333  L 1.34830729166667 18.9192708333333  C 1.19162326388889 19.0842013888889  1.00607638888889 19.1666666666667  0.791666666666667 19.1666666666667  C 0.577256944444445 19.1666666666667  0.391710069444444 19.0842013888889  0.235026041666667 18.9192708333333  C 0.0783420138888889 18.7543402777778  0 18.5590277777778  0 18.3333333333333  L 0 12.5  C 0 12.2743055555556  0.0783420138888889 12.0789930555556  0.235026041666667 11.9140625  C 0.391710069444444 11.7491319444444  0.577256944444445 11.6666666666667  0.791666666666667 11.6666666666667  L 6.33333333333333 11.6666666666667  C 6.54774305555556 11.6666666666667  6.73328993055556 11.7491319444444  6.88997395833333 11.9140625  C 7.04665798611111 12.0789930555556  7.125 12.2743055555556  7.125 12.5  C 7.125 12.7256944444444  7.04665798611111 12.9210069444444  6.88997395833333 13.0859375  L 5.1953125 14.8697916666667  C 5.78081597222222 15.4427083333333  6.44466145833333 15.8854166666667  7.18684895833333 16.1979166666667  C 7.92903645833333 16.5104166666667  8.70008680555556 16.6666666666667  9.5 16.6666666666667  C 10.6050347222222 16.6666666666667  11.6358506944444 16.3845486111111  12.5924479166667 15.8203125  C 13.5490451388889 15.2560763888889  14.3159722222222 14.4791666666667  14.8932291666667 13.4895833333333  C 14.9839409722222 13.3420138888889  15.2024739583333 12.8342013888889  15.548828125 11.9661458333333  C 15.6148003472222 11.7664930555556  15.7384982638889 11.6666666666667  15.919921875 11.6666666666667  L 18.294921875 11.6666666666667  C 18.4021267361111 11.6666666666667  18.4949001736111 11.7078993055556  18.5732421875 11.7903645833333  Z M 18.7649739583333 1.08072916666667  C 18.9216579861111 1.24565972222222  19 1.44097222222222  19 1.66666666666667  L 19 7.5  C 19 7.72569444444444  18.9216579861111 7.92100694444444  18.7649739583333 8.0859375  C 18.6082899305556 8.25086805555556  18.4227430555556 8.33333333333333  18.2083333333333 8.33333333333333  L 12.6666666666667 8.33333333333333  C 12.4522569444444 8.33333333333333  12.2667100694444 8.25086805555556  12.1100260416667 8.0859375  C 11.9533420138889 7.92100694444444  11.875 7.72569444444444  11.875 7.5  C 11.875 7.27430555555555  11.9533420138889 7.07899305555555  12.1100260416667 6.9140625  L 13.8170572916667 5.1171875  C 12.5965711805556 3.92795138888889  11.1575520833333 3.33333333333333  9.5 3.33333333333333  C 8.39496527777778 3.33333333333333  7.36414930555556 3.61545138888889  6.40755208333333 4.1796875  C 5.45095486111111 4.74392361111111  4.68402777777778 5.52083333333333  4.10677083333333 6.51041666666667  C 4.01605902777778 6.65798611111111  3.79752604166667 7.16579861111111  3.451171875 8.03385416666667  C 3.38519965277778 8.23350694444444  3.26150173611111 8.33333333333333  3.080078125 8.33333333333333  L 0.618489583333333 8.33333333333333  C 0.511284722222222 8.33333333333333  0.418511284722222 8.29210069444444  0.340169270833333 8.20963541666667  C 0.261827256944444 8.12717013888889  0.22265625 8.02951388888889  0.22265625 7.91666666666667  L 0.22265625 7.82552083333333  C 0.758680555555556 5.49913194444444  1.87196180555556 3.61328125  3.5625 2.16796875  C 5.25303819444444 0.72265625  7.23220486111111 0  9.5 0  C 10.7039930555556 0  11.875 0.240885416666667  13.0130208333333 0.72265625  C 14.1510416666667 1.20442708333333  15.1612413194444 1.88368055555555  16.0436197916667 2.76041666666667  L 17.6516927083333 1.08072916666667  C 17.8083767361111 0.915798611111109  17.9939236111111 0.833333333333333  18.2083333333333 0.833333333333333  C 18.4227430555556 0.833333333333333  18.6082899305556 0.915798611111109  18.7649739583333 1.08072916666667  Z " fill-rule="nonzero" fill="#000000" stroke="none" transform="matrix(1 0 0 1 2056 1991 )" />
  </g>
</svg>