<?xml version="1.0" encoding="utf-8"?>
<svg version="1.1" xmlns:xlink="http://www.w3.org/1999/xlink" width="41px" height="36px" xmlns="http://www.w3.org/2000/svg">
  <g transform="matrix(1 0 0 1 -968 -274 )">
    <path d="M 968 274  L 1009 274  L 1009 310  L 968 310  L 968 274  " fill-rule="nonzero" fill="#cccccc" stroke="none" />
    <path d="M 971 277  L 1006 277  L 1006 307  L 971 307  L 971 277  " fill-rule="nonzero" fill="#ffffff" stroke="none" />
    <path d="M 992.02 284.8  C 990.508 284.8  989.32 283.612  989.32 282.1  C 989.32 280.588  990.508 279.4  992.02 279.4  C 993.532 279.4  994.72 280.588  994.72 282.1  C 994.72 283.612  993.532 284.8  992.02 284.8  " fill-rule="nonzero" fill="#cccccc" stroke="none" />
    <path d="M 972 306  L 972 290.6  L 980.25 283.6  L 991.8 291.248780487805  L 998.4 287.8  L 1005 291.248780487805  L 1005 306  L 972 306  " fill-rule="nonzero" fill="#169bd5" stroke="none" />
  </g>
</svg>