<?xml version="1.0" encoding="utf-8"?>
<svg version="1.1" xmlns:xlink="http://www.w3.org/1999/xlink" width="12px" height="12px" viewBox="576 1958  12 12" xmlns="http://www.w3.org/2000/svg">
  <path d="M 582 1958  C 585.36 1958  588 1960.64  588 1964  C 588 1967.36  585.36 1970  582 1970  C 578.64 1970  576 1967.36  576 1964  C 576 1960.64  578.64 1958  582 1958  Z " fill-rule="nonzero" fill="#f0f0f0" stroke="none" />
  <path d="M 582 1958.5  C 585.08 1958.5  587.5 1960.92  587.5 1964  C 587.5 1967.08  585.08 1969.5  582 1969.5  C 578.92 1969.5  576.5 1967.08  576.5 1964  C 576.5 1960.92  578.92 1958.5  582 1958.5  Z " stroke-width="1" stroke="#797979" fill="none" />
  <path d="M 582 1967  C 580.32 1967  579 1965.68  579 1964  C 579 1962.32  580.32 1961  582 1961  C 583.68 1961  585 1962.32  585 1964  C 585 1965.68  583.68 1967  582 1967  " fill-rule="nonzero" fill="#797979" stroke="none" />
</svg>