<?xml version="1.0" encoding="utf-8"?>
<svg version="1.1" xmlns:xlink="http://www.w3.org/1999/xlink" width="12px" height="12px" viewBox="1862 1958  12 12" xmlns="http://www.w3.org/2000/svg">
  <path d="M 1868 1958  C 1871.36 1958  1874 1960.64  1874 1964  C 1874 1967.36  1871.36 1970  1868 1970  C 1864.64 1970  1862 1967.36  1862 1964  C 1862 1960.64  1864.64 1958  1868 1958  Z " fill-rule="nonzero" fill="#f0f0f0" stroke="none" />
  <path d="M 1868 1958.5  C 1871.08 1958.5  1873.5 1960.92  1873.5 1964  C 1873.5 1967.08  1871.08 1969.5  1868 1969.5  C 1864.92 1969.5  1862.5 1967.08  1862.5 1964  C 1862.5 1960.92  1864.92 1958.5  1868 1958.5  Z " stroke-width="1" stroke="#797979" fill="none" />
  <path d="M 1868 1967  C 1866.32 1967  1865 1965.68  1865 1964  C 1865 1962.32  1866.32 1961  1868 1961  C 1869.68 1961  1871 1962.32  1871 1964  C 1871 1965.68  1869.68 1967  1868 1967  " fill-rule="nonzero" fill="#797979" stroke="none" />
</svg>