<?xml version="1.0" encoding="utf-8"?>
<svg version="1.1" xmlns:xlink="http://www.w3.org/1999/xlink" width="12px" height="12px" viewBox="1745 1958  12 12" xmlns="http://www.w3.org/2000/svg">
  <path d="M 1751 1958  C 1754.36 1958  1757 1960.64  1757 1964  C 1757 1967.36  1754.36 1970  1751 1970  C 1747.64 1970  1745 1967.36  1745 1964  C 1745 1960.64  1747.64 1958  1751 1958  Z " fill-rule="nonzero" fill="#f0f0f0" stroke="none" />
  <path d="M 1751 1958.5  C 1754.08 1958.5  1756.5 1960.92  1756.5 1964  C 1756.5 1967.08  1754.08 1969.5  1751 1969.5  C 1747.92 1969.5  1745.5 1967.08  1745.5 1964  C 1745.5 1960.92  1747.92 1958.5  1751 1958.5  Z " stroke-width="1" stroke="#797979" fill="none" />
  <path d="M 1751 1967  C 1749.32 1967  1748 1965.68  1748 1964  C 1748 1962.32  1749.32 1961  1751 1961  C 1752.68 1961  1754 1962.32  1754 1964  C 1754 1965.68  1752.68 1967  1751 1967  " fill-rule="nonzero" fill="#797979" stroke="none" />
</svg>