<?xml version="1.0" encoding="utf-8"?>
<svg version="1.1" xmlns:xlink="http://www.w3.org/1999/xlink" width="12px" height="12px" viewBox="3141 1965  12 12" xmlns="http://www.w3.org/2000/svg">
  <path d="M 3147 1965  C 3150.36 1965  3153 1967.64  3153 1971  C 3153 1974.36  3150.36 1977  3147 1977  C 3143.64 1977  3141 1974.36  3141 1971  C 3141 1967.64  3143.64 1965  3147 1965  Z " fill-rule="nonzero" fill="#f0f0f0" stroke="none" />
  <path d="M 3147 1965.5  C 3150.08 1965.5  3152.5 1967.92  3152.5 1971  C 3152.5 1974.08  3150.08 1976.5  3147 1976.5  C 3143.92 1976.5  3141.5 1974.08  3141.5 1971  C 3141.5 1967.92  3143.92 1965.5  3147 1965.5  Z " stroke-width="1" stroke="#797979" fill="none" />
  <path d="M 3147 1974  C 3145.32 1974  3144 1972.68  3144 1971  C 3144 1969.32  3145.32 1968  3147 1968  C 3148.68 1968  3150 1969.32  3150 1971  C 3150 1972.68  3148.68 1974  3147 1974  " fill-rule="nonzero" fill="#797979" stroke="none" />
</svg>