<?xml version="1.0" encoding="utf-8"?>
<svg version="1.1" xmlns:xlink="http://www.w3.org/1999/xlink" width="12px" height="12px" viewBox="3047 1965  12 12" xmlns="http://www.w3.org/2000/svg">
  <path d="M 3053 1965  C 3056.36 1965  3059 1967.64  3059 1971  C 3059 1974.36  3056.36 1977  3053 1977  C 3049.64 1977  3047 1974.36  3047 1971  C 3047 1967.64  3049.64 1965  3053 1965  Z " fill-rule="nonzero" fill="#ffffff" stroke="none" />
  <path d="M 3053 1965.5  C 3056.08 1965.5  3058.5 1967.92  3058.5 1971  C 3058.5 1974.08  3056.08 1976.5  3053 1976.5  C 3049.92 1976.5  3047.5 1974.08  3047.5 1971  C 3047.5 1967.92  3049.92 1965.5  3053 1965.5  Z " stroke-width="1" stroke="#797979" fill="none" />
  <path d="M 3053 1974  C 3051.32 1974  3050 1972.68  3050 1971  C 3050 1969.32  3051.32 1968  3053 1968  C 3054.68 1968  3056 1969.32  3056 1971  C 3056 1972.68  3054.68 1974  3053 1974  " fill-rule="nonzero" fill="#797979" stroke="none" />
</svg>