<?xml version="1.0" encoding="utf-8"?>
<svg version="1.1" xmlns:xlink="http://www.w3.org/1999/xlink" width="12px" height="12px" viewBox="1956 1958  12 12" xmlns="http://www.w3.org/2000/svg">
  <path d="M 1962 1958  C 1965.36 1958  1968 1960.64  1968 1964  C 1968 1967.36  1965.36 1970  1962 1970  C 1958.64 1970  1956 1967.36  1956 1964  C 1956 1960.64  1958.64 1958  1962 1958  Z " fill-rule="nonzero" fill="#ffffff" stroke="none" />
  <path d="M 1962 1958.5  C 1965.08 1958.5  1967.5 1960.92  1967.5 1964  C 1967.5 1967.08  1965.08 1969.5  1962 1969.5  C 1958.92 1969.5  1956.5 1967.08  1956.5 1964  C 1956.5 1960.92  1958.92 1958.5  1962 1958.5  Z " stroke-width="1" stroke="#797979" fill="none" />
  <path d="M 1962 1967  C 1960.32 1967  1959 1965.68  1959 1964  C 1959 1962.32  1960.32 1961  1962 1961  C 1963.68 1961  1965 1962.32  1965 1964  C 1965 1965.68  1963.68 1967  1962 1967  " fill-rule="nonzero" fill="#797979" stroke="none" />
</svg>