<?xml version="1.0" encoding="utf-8"?>
<svg version="1.1" xmlns:xlink="http://www.w3.org/1999/xlink" width="64px" height="50px" xmlns="http://www.w3.org/2000/svg">
  <g transform="matrix(1 0 0 1 -1809 -253 )">
    <path d="M 1809 253  L 1873 253  L 1873 303  L 1809 303  L 1809 253  " fill-rule="nonzero" fill="#cccccc" stroke="none" />
    <path d="M 1813 257  L 1869 257  L 1869 299  L 1813 299  L 1813 257  " fill-rule="nonzero" fill="#ffffff" stroke="none" />
    <path d="M 1846.03 268  C 1843.93 268  1842.28 266.35  1842.28 264.25  C 1842.28 262.15  1843.93 260.5  1846.03 260.5  C 1848.13 260.5  1849.78 262.15  1849.78 264.25  C 1849.78 266.35  1848.13 268  1846.03 268  " fill-rule="nonzero" fill="#cccccc" stroke="none" />
    <path d="M 1815 298  L 1815 276.55  L 1828.25 266.8  L 1846.8 279.71875  L 1857.4 272.65  L 1868 279.71875  L 1868 298  L 1815 298  " fill-rule="nonzero" fill="#169bd5" stroke="none" />
  </g>
</svg>