<?xml version="1.0" encoding="utf-8"?>
<svg version="1.1" xmlns:xlink="http://www.w3.org/1999/xlink" width="45px" height="30px" xmlns="http://www.w3.org/2000/svg">
  <g transform="matrix(1 0 0 1 -455 -270 )">
    <path d="M 455 270  L 500 270  L 500 300  L 455 300  L 455 270  " fill-rule="nonzero" fill="#cccccc" stroke="none" />
    <path d="M 457 272  L 498 272  L 498 298  L 457 298  L 457 272  " fill-rule="nonzero" fill="#ffffff" stroke="none" />
    <path d="M 480.65 279  C 479.39 279  478.4 278.01  478.4 276.75  C 478.4 275.49  479.39 274.5  480.65 274.5  C 481.91 274.5  482.9 275.49  482.9 276.75  C 482.9 278.01  481.91 279  480.65 279  " fill-rule="nonzero" fill="#cccccc" stroke="none" />
    <path d="M 458 297  L 458 283.8  L 467.75 277.8  L 481.4 287.4  L 489.2 281.4  L 497 287.4  L 497 297  L 458 297  " fill-rule="nonzero" fill="#169bd5" stroke="none" />
  </g>
</svg>