<?xml version="1.0" encoding="utf-8"?>
<svg version="1.1" xmlns:xlink="http://www.w3.org/1999/xlink" width="52px" height="37px" xmlns="http://www.w3.org/2000/svg">
  <g transform="matrix(1 0 0 1 -455 -220 )">
    <path d="M 455 220  L 507 220  L 507 257  L 455 257  L 455 220  " fill-rule="nonzero" fill="#cccccc" stroke="none" />
    <path d="M 458 223  L 504 223  L 504 254  L 458 254  L 458 223  " fill-rule="nonzero" fill="#ffffff" stroke="none" />
    <path d="M 484.815 231.1  C 483.261 231.1  482.04 229.879  482.04 228.325  C 482.04 226.771  483.261 225.55  484.815 225.55  C 486.369 225.55  487.59 226.771  487.59 228.325  C 487.59 229.879  486.369 231.1  484.815 231.1  " fill-rule="nonzero" fill="#cccccc" stroke="none" />
    <path d="M 459 253  L 459 237.05  L 470 229.8  L 485.4 240.619230769231  L 494.2 234.15  L 503 240.619230769231  L 503 253  L 459 253  " fill-rule="nonzero" fill="#169bd5" stroke="none" />
  </g>
</svg>