<?xml version="1.0" encoding="utf-8"?>
<svg version="1.1" xmlns:xlink="http://www.w3.org/1999/xlink" width="16px" height="17px" xmlns="http://www.w3.org/2000/svg">
  <g transform="matrix(1 0 0 1 -3184 -150 )">
    <path d="M 14.7723214285714 15.6955915178571  C 14.828869047619 15.635509672619  14.8571428571429 15.5643601190476  14.8571428571429 15.4821428571429  L 14.8571428571429 5.16071428571429  C 14.8571428571429 5.07849702380952  14.828869047619 5.00734747023809  14.7723214285714 4.947265625  C 14.7157738095238 4.8871837797619  14.6488095238095 4.85714285714286  14.5714285714286 4.85714285714286  L 4.85714285714286 4.85714285714286  C 4.77976190476191 4.85714285714286  4.71279761904762 4.8871837797619  4.65625 4.947265625  C 4.59970238095238 5.00734747023809  4.57142857142857 5.07849702380952  4.57142857142857 5.16071428571429  L 4.57142857142857 15.4821428571429  C 4.57142857142857 15.5643601190476  4.59970238095238 15.635509672619  4.65625 15.6955915178571  C 4.71279761904762 15.7556733630952  4.77976190476191 15.7857142857143  4.85714285714286 15.7857142857143  L 14.5714285714286 15.7857142857143  C 14.6488095238095 15.7857142857143  14.7157738095238 15.7556733630952  14.7723214285714 15.6955915178571  Z M 15.5803571428571 4.08872767857143  C 15.860119047619 4.38597470238095  16 4.74330357142857  16 5.16071428571429  L 16 15.4821428571429  C 16 15.8995535714286  15.860119047619 16.2568824404762  15.5803571428571 16.5541294642857  C 15.3005952380952 16.8513764880952  14.9642857142857 17  14.5714285714286 17  L 4.85714285714286 17  C 4.46428571428571 17  4.12797619047619 16.8513764880952  3.84821428571429 16.5541294642857  C 3.56845238095238 16.2568824404762  3.42857142857143 15.8995535714286  3.42857142857143 15.4821428571429  L 3.42857142857143 5.16071428571429  C 3.42857142857143 4.74330357142857  3.56845238095238 4.38597470238095  3.84821428571429 4.08872767857143  C 4.12797619047619 3.7914806547619  4.46428571428571 3.64285714285714  4.85714285714286 3.64285714285714  L 14.5714285714286 3.64285714285714  C 14.9642857142857 3.64285714285714  15.3005952380952 3.7914806547619  15.5803571428571 4.08872767857143  Z M 12.1517857142857 0.445870535714286  C 12.4315476190476 0.743117559523809  12.5714285714286 1.10044642857143  12.5714285714286 1.51785714285714  L 12.5714285714286 3.03571428571429  L 11.4285714285714 3.03571428571429  L 11.4285714285714 1.51785714285714  C 11.4285714285714 1.43563988095238  11.4002976190476 1.36449032738095  11.34375 1.30440848214286  C 11.2872023809524 1.24432663690476  11.2202380952381 1.21428571428571  11.1428571428571 1.21428571428571  L 1.42857142857143 1.21428571428571  C 1.35119047619048 1.21428571428571  1.28422619047619 1.24432663690476  1.22767857142857 1.30440848214286  C 1.17113095238095 1.36449032738095  1.14285714285714 1.43563988095238  1.14285714285714 1.51785714285714  L 1.14285714285714 11.8392857142857  C 1.14285714285714 11.9215029761905  1.17113095238095 11.9926525297619  1.22767857142857 12.052734375  C 1.28422619047619 12.1128162202381  1.35119047619048 12.1428571428571  1.42857142857143 12.1428571428571  L 2.85714285714286 12.1428571428571  L 2.85714285714286 13.3571428571429  L 1.42857142857143 13.3571428571429  C 1.03571428571429 13.3571428571429  0.699404761904762 13.2085193452381  0.419642857142857 12.9112723214286  C 0.139880952380952 12.614025297619  0 12.2566964285714  0 11.8392857142857  L 0 1.51785714285714  C 0 1.10044642857143  0.139880952380952 0.743117559523809  0.419642857142857 0.445870535714286  C 0.699404761904762 0.148623511904762  1.03571428571429 0  1.42857142857143 0  L 11.1428571428571 0  C 11.5357142857143 0  11.8720238095238 0.148623511904762  12.1517857142857 0.445870535714286  Z " fill-rule="nonzero" fill="#000000" stroke="none" transform="matrix(1 0 0 1 3184 150 )" />
  </g>
</svg>