<?xml version="1.0" encoding="utf-8"?>
<svg version="1.1" xmlns:xlink="http://www.w3.org/1999/xlink" width="28px" height="30px" xmlns="http://www.w3.org/2000/svg">
  <g transform="matrix(1 0 0 1 -2025 -231 )">
    <path d="M 2039 231  C 2046.84 231  2053 237.6  2053 246  C 2053 254.4  2046.84 261  2039 261  C 2031.16 261  2025 254.4  2025 246  C 2025 237.6  2031.16 231  2039 231  Z " fill-rule="nonzero" fill="#ffffff" stroke="none" />
    <path d="M 2039 231.5  C 2046.56 231.5  2052.5 237.88  2052.5 246  C 2052.5 254.12  2046.56 260.5  2039 260.5  C 2031.44 260.5  2025.5 254.12  2025.5 246  C 2025.5 237.88  2031.44 231.5  2039 231.5  Z " stroke-width="1" stroke="#797979" fill="none" />
  </g>
</svg>