<?xml version="1.0" encoding="utf-8"?>
<svg version="1.1" xmlns:xlink="http://www.w3.org/1999/xlink" width="28px" height="30px" xmlns="http://www.w3.org/2000/svg">
  <g transform="matrix(1 0 0 1 -2025 -304 )">
    <path d="M 2039 304  C 2046.84 304  2053 310.6  2053 319  C 2053 327.4  2046.84 334  2039 334  C 2031.16 334  2025 327.4  2025 319  C 2025 310.6  2031.16 304  2039 304  Z " fill-rule="nonzero" fill="#d9001b" stroke="none" />
    <path d="M 2039 304.5  C 2046.56 304.5  2052.5 310.88  2052.5 319  C 2052.5 327.12  2046.56 333.5  2039 333.5  C 2031.44 333.5  2025.5 327.12  2025.5 319  C 2025.5 310.88  2031.44 304.5  2039 304.5  Z " stroke-width="1" stroke="#797979" fill="none" />
  </g>
</svg>