<?xml version="1.0" encoding="utf-8"?>
<svg version="1.1" xmlns:xlink="http://www.w3.org/1999/xlink" width="33px" height="25px" xmlns="http://www.w3.org/2000/svg">
  <g transform="matrix(1 0 0 1 -543 -209 )">
    <path d="M 543 209  L 576 209  L 576 234  L 543 234  L 543 209  " fill-rule="nonzero" fill="#cccccc" stroke="none" />
    <path d="M 545 211  L 574 211  L 574 232  L 545 232  L 545 211  " fill-rule="nonzero" fill="#ffffff" stroke="none" />
    <path d="M 562.035 216.5  C 560.985 216.5  560.16 215.675  560.16 214.625  C 560.16 213.575  560.985 212.75  562.035 212.75  C 563.085 212.75  563.91 213.575  563.91 214.625  C 563.91 215.675  563.085 216.5  562.035 216.5  " fill-rule="nonzero" fill="#cccccc" stroke="none" />
    <path d="M 546 232  L 546 221  L 553 216  L 562.8 222.909090909091  L 568.4 219  L 574 222.909090909091  L 574 232  L 546 232  " fill-rule="nonzero" fill="#169bd5" stroke="none" />
  </g>
</svg>