<?xml version="1.0" encoding="utf-8"?>
<svg version="1.1" xmlns:xlink="http://www.w3.org/1999/xlink" width="10px" height="15px" preserveAspectRatio="xMidYMin meet" viewBox="1706 115  8 15" xmlns="http://www.w3.org/2000/svg">
  <path d="M 460 125  L 1710 125  L 1710 121  " stroke-width="2" stroke-dasharray="6,2" stroke="#000000" fill="none" />
  <path d="M 457.5 121.5  A 3.5 3.5 0 0 0 454 125 A 3.5 3.5 0 0 0 457.5 128.5 A 3.5 3.5 0 0 0 461 125 A 3.5 3.5 0 0 0 457.5 121.5 Z M 457.5 123.5  A 1.5 1.5 0 0 1 459 125 A 1.5 1.5 0 0 1 457.5 126.5 A 1.5 1.5 0 0 1 456 125 A 1.5 1.5 0 0 1 457.5 123.5 Z M 1717.6 122  L 1710 115  L 1702.4 122  L 1717.6 122  Z M 1712.8 120  L 1707.2 120  L 1710 118  L 1712.8 120  Z " fill-rule="nonzero" fill="#000000" stroke="none" />
</svg>