<?xml version="1.0" encoding="utf-8"?>
<svg version="1.1" xmlns:xlink="http://www.w3.org/1999/xlink" width="12px" height="12px" viewBox="2779 321  12 12" xmlns="http://www.w3.org/2000/svg">
  <path d="M 2785 321  C 2788.36 321  2791 323.64  2791 327  C 2791 330.36  2788.36 333  2785 333  C 2781.64 333  2779 330.36  2779 327  C 2779 323.64  2781.64 321  2785 321  Z " fill-rule="nonzero" fill="#f0f0f0" stroke="none" />
  <path d="M 2785 321.5  C 2788.08 321.5  2790.5 323.92  2790.5 327  C 2790.5 330.08  2788.08 332.5  2785 332.5  C 2781.92 332.5  2779.5 330.08  2779.5 327  C 2779.5 323.92  2781.92 321.5  2785 321.5  Z " stroke-width="1" stroke="#797979" fill="none" />
  <path d="M 2785 330  C 2783.32 330  2782 328.68  2782 327  C 2782 325.32  2783.32 324  2785 324  C 2786.68 324  2788 325.32  2788 327  C 2788 328.68  2786.68 330  2785 330  " fill-rule="nonzero" fill="#797979" stroke="none" />
</svg>