<?xml version="1.0" encoding="utf-8"?>
<svg version="1.1" xmlns:xlink="http://www.w3.org/1999/xlink" width="12px" height="12px" viewBox="2670 321  12 12" xmlns="http://www.w3.org/2000/svg">
  <path d="M 2676 321  C 2679.36 321  2682 323.64  2682 327  C 2682 330.36  2679.36 333  2676 333  C 2672.64 333  2670 330.36  2670 327  C 2670 323.64  2672.64 321  2676 321  Z " fill-rule="nonzero" fill="#f0f0f0" stroke="none" />
  <path d="M 2676 321.5  C 2679.08 321.5  2681.5 323.92  2681.5 327  C 2681.5 330.08  2679.08 332.5  2676 332.5  C 2672.92 332.5  2670.5 330.08  2670.5 327  C 2670.5 323.92  2672.92 321.5  2676 321.5  Z " stroke-width="1" stroke="#797979" fill="none" />
  <path d="M 2676 330  C 2674.32 330  2673 328.68  2673 327  C 2673 325.32  2674.32 324  2676 324  C 2677.68 324  2679 325.32  2679 327  C 2679 328.68  2677.68 330  2676 330  " fill-rule="nonzero" fill="#797979" stroke="none" />
</svg>