<?xml version="1.0" encoding="utf-8"?>
<svg version="1.1" xmlns:xlink="http://www.w3.org/1999/xlink" width="12px" height="12px" viewBox="2779 287  12 12" xmlns="http://www.w3.org/2000/svg">
  <path d="M 2785 287  C 2788.36 287  2791 289.64  2791 293  C 2791 296.36  2788.36 299  2785 299  C 2781.64 299  2779 296.36  2779 293  C 2779 289.64  2781.64 287  2785 287  Z " fill-rule="nonzero" fill="#ffffff" stroke="none" />
  <path d="M 2785 287.5  C 2788.08 287.5  2790.5 289.92  2790.5 293  C 2790.5 296.08  2788.08 298.5  2785 298.5  C 2781.92 298.5  2779.5 296.08  2779.5 293  C 2779.5 289.92  2781.92 287.5  2785 287.5  Z " stroke-width="1" stroke="#797979" fill="none" />
  <path d="M 2785 296  C 2783.32 296  2782 294.68  2782 293  C 2782 291.32  2783.32 290  2785 290  C 2786.68 290  2788 291.32  2788 293  C 2788 294.68  2786.68 296  2785 296  " fill-rule="nonzero" fill="#797979" stroke="none" />
</svg>