<?xml version="1.0" encoding="utf-8"?>
<svg version="1.1" xmlns:xlink="http://www.w3.org/1999/xlink" width="12px" height="12px" viewBox="2913 391  12 12" xmlns="http://www.w3.org/2000/svg">
  <path d="M 2919 391  C 2922.36 391  2925 393.64  2925 397  C 2925 400.36  2922.36 403  2919 403  C 2915.64 403  2913 400.36  2913 397  C 2913 393.64  2915.64 391  2919 391  Z " fill-rule="nonzero" fill="#f0f0f0" stroke="none" />
  <path d="M 2919 391.5  C 2922.08 391.5  2924.5 393.92  2924.5 397  C 2924.5 400.08  2922.08 402.5  2919 402.5  C 2915.92 402.5  2913.5 400.08  2913.5 397  C 2913.5 393.92  2915.92 391.5  2919 391.5  Z " stroke-width="1" stroke="#797979" fill="none" />
  <path d="M 2919 400  C 2917.32 400  2916 398.68  2916 397  C 2916 395.32  2917.32 394  2919 394  C 2920.68 394  2922 395.32  2922 397  C 2922 398.68  2920.68 400  2919 400  " fill-rule="nonzero" fill="#797979" stroke="none" />
</svg>