<?xml version="1.0" encoding="utf-8"?>
<svg version="1.1" xmlns:xlink="http://www.w3.org/1999/xlink" width="12px" height="12px" viewBox="3022 391  12 12" xmlns="http://www.w3.org/2000/svg">
  <path d="M 3028 391  C 3031.36 391  3034 393.64  3034 397  C 3034 400.36  3031.36 403  3028 403  C 3024.64 403  3022 400.36  3022 397  C 3022 393.64  3024.64 391  3028 391  Z " fill-rule="nonzero" fill="#f0f0f0" stroke="none" />
  <path d="M 3028 391.5  C 3031.08 391.5  3033.5 393.92  3033.5 397  C 3033.5 400.08  3031.08 402.5  3028 402.5  C 3024.92 402.5  3022.5 400.08  3022.5 397  C 3022.5 393.92  3024.92 391.5  3028 391.5  Z " stroke-width="1" stroke="#797979" fill="none" />
  <path d="M 3028 400  C 3026.32 400  3025 398.68  3025 397  C 3025 395.32  3026.32 394  3028 394  C 3029.68 394  3031 395.32  3031 397  C 3031 398.68  3029.68 400  3028 400  " fill-rule="nonzero" fill="#797979" stroke="none" />
</svg>