<?xml version="1.0" encoding="utf-8"?>
<svg version="1.1" xmlns:xlink="http://www.w3.org/1999/xlink" width="12px" height="12px" viewBox="2913 357  12 12" xmlns="http://www.w3.org/2000/svg">
  <path d="M 2919 357  C 2922.36 357  2925 359.64  2925 363  C 2925 366.36  2922.36 369  2919 369  C 2915.64 369  2913 366.36  2913 363  C 2913 359.64  2915.64 357  2919 357  Z " fill-rule="nonzero" fill="#f0f0f0" stroke="none" />
  <path d="M 2919 357.5  C 2922.08 357.5  2924.5 359.92  2924.5 363  C 2924.5 366.08  2922.08 368.5  2919 368.5  C 2915.92 368.5  2913.5 366.08  2913.5 363  C 2913.5 359.92  2915.92 357.5  2919 357.5  Z " stroke-width="1" stroke="#797979" fill="none" />
  <path d="M 2919 366  C 2917.32 366  2916 364.68  2916 363  C 2916 361.32  2917.32 360  2919 360  C 2920.68 360  2922 361.32  2922 363  C 2922 364.68  2920.68 366  2919 366  " fill-rule="nonzero" fill="#797979" stroke="none" />
</svg>