<?xml version="1.0" encoding="utf-8"?>
<svg version="1.1" xmlns:xlink="http://www.w3.org/1999/xlink" width="12px" height="12px" viewBox="3022 357  12 12" xmlns="http://www.w3.org/2000/svg">
  <path d="M 3028 357  C 3031.36 357  3034 359.64  3034 363  C 3034 366.36  3031.36 369  3028 369  C 3024.64 369  3022 366.36  3022 363  C 3022 359.64  3024.64 357  3028 357  Z " fill-rule="nonzero" fill="#ffffff" stroke="none" />
  <path d="M 3028 357.5  C 3031.08 357.5  3033.5 359.92  3033.5 363  C 3033.5 366.08  3031.08 368.5  3028 368.5  C 3024.92 368.5  3022.5 366.08  3022.5 363  C 3022.5 359.92  3024.92 357.5  3028 357.5  Z " stroke-width="1" stroke="#797979" fill="none" />
  <path d="M 3028 366  C 3026.32 366  3025 364.68  3025 363  C 3025 361.32  3026.32 360  3028 360  C 3029.68 360  3031 361.32  3031 363  C 3031 364.68  3029.68 366  3028 366  " fill-rule="nonzero" fill="#797979" stroke="none" />
</svg>