<?xml version="1.0" encoding="utf-8"?>
<svg version="1.1" xmlns:xlink="http://www.w3.org/1999/xlink" width="12px" height="12px" viewBox="2918 519  12 12" xmlns="http://www.w3.org/2000/svg">
  <path d="M 2924 519  C 2927.36 519  2930 521.64  2930 525  C 2930 528.36  2927.36 531  2924 531  C 2920.64 531  2918 528.36  2918 525  C 2918 521.64  2920.64 519  2924 519  Z " fill-rule="nonzero" fill="#f0f0f0" stroke="none" />
  <path d="M 2924 519.5  C 2927.08 519.5  2929.5 521.92  2929.5 525  C 2929.5 528.08  2927.08 530.5  2924 530.5  C 2920.92 530.5  2918.5 528.08  2918.5 525  C 2918.5 521.92  2920.92 519.5  2924 519.5  Z " stroke-width="1" stroke="#797979" fill="none" />
  <path d="M 2924 528  C 2922.32 528  2921 526.68  2921 525  C 2921 523.32  2922.32 522  2924 522  C 2925.68 522  2927 523.32  2927 525  C 2927 526.68  2925.68 528  2924 528  " fill-rule="nonzero" fill="#797979" stroke="none" />
</svg>