<?xml version="1.0" encoding="utf-8"?>
<svg version="1.1" xmlns:xlink="http://www.w3.org/1999/xlink" width="12px" height="12px" viewBox="2576 313  12 12" xmlns="http://www.w3.org/2000/svg">
  <path d="M 2582 313  C 2585.36 313  2588 315.64  2588 319  C 2588 322.36  2585.36 325  2582 325  C 2578.64 325  2576 322.36  2576 319  C 2576 315.64  2578.64 313  2582 313  Z " fill-rule="nonzero" fill="#ffffff" stroke="none" />
  <path d="M 2582 313.5  C 2585.08 313.5  2587.5 315.92  2587.5 319  C 2587.5 322.08  2585.08 324.5  2582 324.5  C 2578.92 324.5  2576.5 322.08  2576.5 319  C 2576.5 315.92  2578.92 313.5  2582 313.5  Z " stroke-width="1" stroke="#797979" fill="none" />
  <path d="M 2582 322  C 2580.32 322  2579 320.68  2579 319  C 2579 317.32  2580.32 316  2582 316  C 2583.68 316  2585 317.32  2585 319  C 2585 320.68  2583.68 322  2582 322  " fill-rule="nonzero" fill="#797979" stroke="none" />
</svg>