<?xml version="1.0" encoding="utf-8"?>
<svg version="1.1" xmlns:xlink="http://www.w3.org/1999/xlink" width="12px" height="12px" viewBox="2461 313  12 12" xmlns="http://www.w3.org/2000/svg">
  <path d="M 2467 313  C 2470.36 313  2473 315.64  2473 319  C 2473 322.36  2470.36 325  2467 325  C 2463.64 325  2461 322.36  2461 319  C 2461 315.64  2463.64 313  2467 313  Z " fill-rule="nonzero" fill="#ffffff" stroke="none" />
  <path d="M 2467 313.5  C 2470.08 313.5  2472.5 315.92  2472.5 319  C 2472.5 322.08  2470.08 324.5  2467 324.5  C 2463.92 324.5  2461.5 322.08  2461.5 319  C 2461.5 315.92  2463.92 313.5  2467 313.5  Z " stroke-width="1" stroke="#797979" fill="none" />
  <path d="M 2467 322  C 2465.32 322  2464 320.68  2464 319  C 2464 317.32  2465.32 316  2467 316  C 2468.68 316  2470 317.32  2470 319  C 2470 320.68  2468.68 322  2467 322  " fill-rule="nonzero" fill="#797979" stroke="none" />
</svg>