<?xml version="1.0" encoding="utf-8"?>
<svg version="1.1" xmlns:xlink="http://www.w3.org/1999/xlink" width="12px" height="12px" viewBox="3066 445  12 12" xmlns="http://www.w3.org/2000/svg">
  <path d="M 3072 445  C 3075.36 445  3078 447.64  3078 451  C 3078 454.36  3075.36 457  3072 457  C 3068.64 457  3066 454.36  3066 451  C 3066 447.64  3068.64 445  3072 445  Z " fill-rule="nonzero" fill="#ffffff" stroke="none" />
  <path d="M 3072 445.5  C 3075.08 445.5  3077.5 447.92  3077.5 451  C 3077.5 454.08  3075.08 456.5  3072 456.5  C 3068.92 456.5  3066.5 454.08  3066.5 451  C 3066.5 447.92  3068.92 445.5  3072 445.5  Z " stroke-width="1" stroke="#797979" fill="none" />
  <path d="M 3072 454  C 3070.32 454  3069 452.68  3069 451  C 3069 449.32  3070.32 448  3072 448  C 3073.68 448  3075 449.32  3075 451  C 3075 452.68  3073.68 454  3072 454  " fill-rule="nonzero" fill="#797979" stroke="none" />
</svg>