<?xml version="1.0" encoding="utf-8"?>
<svg version="1.1" xmlns:xlink="http://www.w3.org/1999/xlink" width="12px" height="12px" viewBox="2951 445  12 12" xmlns="http://www.w3.org/2000/svg">
  <path d="M 2957 445  C 2960.36 445  2963 447.64  2963 451  C 2963 454.36  2960.36 457  2957 457  C 2953.64 457  2951 454.36  2951 451  C 2951 447.64  2953.64 445  2957 445  Z " fill-rule="nonzero" fill="#f0f0f0" stroke="none" />
  <path d="M 2957 445.5  C 2960.08 445.5  2962.5 447.92  2962.5 451  C 2962.5 454.08  2960.08 456.5  2957 456.5  C 2953.92 456.5  2951.5 454.08  2951.5 451  C 2951.5 447.92  2953.92 445.5  2957 445.5  Z " stroke-width="1" stroke="#797979" fill="none" />
  <path d="M 2957 454  C 2955.32 454  2954 452.68  2954 451  C 2954 449.32  2955.32 448  2957 448  C 2958.68 448  2960 449.32  2960 451  C 2960 452.68  2958.68 454  2957 454  " fill-rule="nonzero" fill="#797979" stroke="none" />
</svg>