<?xml version="1.0" encoding="utf-8"?>
<svg version="1.1" xmlns:xlink="http://www.w3.org/1999/xlink" width="12px" height="12px" viewBox="3058 310  12 12" xmlns="http://www.w3.org/2000/svg">
  <path d="M 3064 310  C 3067.36 310  3070 312.64  3070 316  C 3070 319.36  3067.36 322  3064 322  C 3060.64 322  3058 319.36  3058 316  C 3058 312.64  3060.64 310  3064 310  Z " fill-rule="nonzero" fill="#f0f0f0" stroke="none" />
  <path d="M 3064 310.5  C 3067.08 310.5  3069.5 312.92  3069.5 316  C 3069.5 319.08  3067.08 321.5  3064 321.5  C 3060.92 321.5  3058.5 319.08  3058.5 316  C 3058.5 312.92  3060.92 310.5  3064 310.5  Z " stroke-width="1" stroke="#797979" fill="none" />
  <path d="M 3064 319  C 3062.32 319  3061 317.68  3061 316  C 3061 314.32  3062.32 313  3064 313  C 3065.68 313  3067 314.32  3067 316  C 3067 317.68  3065.68 319  3064 319  " fill-rule="nonzero" fill="#797979" stroke="none" />
</svg>