<?xml version="1.0" encoding="utf-8"?>
<svg version="1.1" xmlns:xlink="http://www.w3.org/1999/xlink" width="12px" height="12px" viewBox="1775 1314  12 12" xmlns="http://www.w3.org/2000/svg">
  <path d="M 1781 1314  C 1784.36 1314  1787 1316.64  1787 1320  C 1787 1323.36  1784.36 1326  1781 1326  C 1777.64 1326  1775 1323.36  1775 1320  C 1775 1316.64  1777.64 1314  1781 1314  Z " fill-rule="nonzero" fill="#f0f0f0" stroke="none" />
  <path d="M 1781 1314.5  C 1784.08 1314.5  1786.5 1316.92  1786.5 1320  C 1786.5 1323.08  1784.08 1325.5  1781 1325.5  C 1777.92 1325.5  1775.5 1323.08  1775.5 1320  C 1775.5 1316.92  1777.92 1314.5  1781 1314.5  Z " stroke-width="1" stroke="#797979" fill="none" />
  <path d="M 1781 1323  C 1779.32 1323  1778 1321.68  1778 1320  C 1778 1318.32  1779.32 1317  1781 1317  C 1782.68 1317  1784 1318.32  1784 1320  C 1784 1321.68  1782.68 1323  1781 1323  " fill-rule="nonzero" fill="#797979" stroke="none" />
</svg>