<?xml version="1.0" encoding="utf-8"?>
<svg version="1.1" xmlns:xlink="http://www.w3.org/1999/xlink" width="12px" height="12px" viewBox="2258 1449  12 12" xmlns="http://www.w3.org/2000/svg">
  <path d="M 2264 1449  C 2267.36 1449  2270 1451.64  2270 1455  C 2270 1458.36  2267.36 1461  2264 1461  C 2260.64 1461  2258 1458.36  2258 1455  C 2258 1451.64  2260.64 1449  2264 1449  Z " fill-rule="nonzero" fill="#ffffff" stroke="none" />
  <path d="M 2264 1449.5  C 2267.08 1449.5  2269.5 1451.92  2269.5 1455  C 2269.5 1458.08  2267.08 1460.5  2264 1460.5  C 2260.92 1460.5  2258.5 1458.08  2258.5 1455  C 2258.5 1451.92  2260.92 1449.5  2264 1449.5  Z " stroke-width="1" stroke="#797979" fill="none" />
  <path d="M 2264 1458  C 2262.32 1458  2261 1456.68  2261 1455  C 2261 1453.32  2262.32 1452  2264 1452  C 2265.68 1452  2267 1453.32  2267 1455  C 2267 1456.68  2265.68 1458  2264 1458  " fill-rule="nonzero" fill="#797979" stroke="none" />
</svg>