<?xml version="1.0" encoding="utf-8"?>
<svg version="1.1" xmlns:xlink="http://www.w3.org/1999/xlink" width="12px" height="12px" viewBox="2365 1314  12 12" xmlns="http://www.w3.org/2000/svg">
  <path d="M 2371 1314  C 2374.36 1314  2377 1316.64  2377 1320  C 2377 1323.36  2374.36 1326  2371 1326  C 2367.64 1326  2365 1323.36  2365 1320  C 2365 1316.64  2367.64 1314  2371 1314  Z " fill-rule="nonzero" fill="#f0f0f0" stroke="none" />
  <path d="M 2371 1314.5  C 2374.08 1314.5  2376.5 1316.92  2376.5 1320  C 2376.5 1323.08  2374.08 1325.5  2371 1325.5  C 2367.92 1325.5  2365.5 1323.08  2365.5 1320  C 2365.5 1316.92  2367.92 1314.5  2371 1314.5  Z " stroke-width="1" stroke="#797979" fill="none" />
  <path d="M 2371 1323  C 2369.32 1323  2368 1321.68  2368 1320  C 2368 1318.32  2369.32 1317  2371 1317  C 2372.68 1317  2374 1318.32  2374 1320  C 2374 1321.68  2372.68 1323  2371 1323  " fill-rule="nonzero" fill="#797979" stroke="none" />
</svg>