<?xml version="1.0" encoding="utf-8"?>
<svg version="1.1" xmlns:xlink="http://www.w3.org/1999/xlink" width="12px" height="12px" viewBox="2466 466  12 12" xmlns="http://www.w3.org/2000/svg">
  <path d="M 2472 466  C 2475.36 466  2478 468.64  2478 472  C 2478 475.36  2475.36 478  2472 478  C 2468.64 478  2466 475.36  2466 472  C 2466 468.64  2468.64 466  2472 466  Z " fill-rule="nonzero" fill="#ffffff" stroke="none" />
  <path d="M 2472 466.5  C 2475.08 466.5  2477.5 468.92  2477.5 472  C 2477.5 475.08  2475.08 477.5  2472 477.5  C 2468.92 477.5  2466.5 475.08  2466.5 472  C 2466.5 468.92  2468.92 466.5  2472 466.5  Z " stroke-width="1" stroke="#797979" fill="none" />
  <path d="M 2472 475  C 2470.32 475  2469 473.68  2469 472  C 2469 470.32  2470.32 469  2472 469  C 2473.68 469  2475 470.32  2475 472  C 2475 473.68  2473.68 475  2472 475  " fill-rule="nonzero" fill="#797979" stroke="none" />
</svg>