<?xml version="1.0" encoding="utf-8"?>
<svg version="1.1" xmlns:xlink="http://www.w3.org/1999/xlink" width="12px" height="12px" viewBox="1780 1467  12 12" xmlns="http://www.w3.org/2000/svg">
  <path d="M 1786 1467  C 1789.36 1467  1792 1469.64  1792 1473  C 1792 1476.36  1789.36 1479  1786 1479  C 1782.64 1479  1780 1476.36  1780 1473  C 1780 1469.64  1782.64 1467  1786 1467  Z " fill-rule="nonzero" fill="#ffffff" stroke="none" />
  <path d="M 1786 1467.5  C 1789.08 1467.5  1791.5 1469.92  1791.5 1473  C 1791.5 1476.08  1789.08 1478.5  1786 1478.5  C 1782.92 1478.5  1780.5 1476.08  1780.5 1473  C 1780.5 1469.92  1782.92 1467.5  1786 1467.5  Z " stroke-width="1" stroke="#797979" fill="none" />
  <path d="M 1786 1476  C 1784.32 1476  1783 1474.68  1783 1473  C 1783 1471.32  1784.32 1470  1786 1470  C 1787.68 1470  1789 1471.32  1789 1473  C 1789 1474.68  1787.68 1476  1786 1476  " fill-rule="nonzero" fill="#797979" stroke="none" />
</svg>