<?xml version="1.0" encoding="utf-8"?>
<svg version="1.1" xmlns:xlink="http://www.w3.org/1999/xlink" width="12px" height="12px" viewBox="1890 1314  12 12" xmlns="http://www.w3.org/2000/svg">
  <path d="M 1896 1314  C 1899.36 1314  1902 1316.64  1902 1320  C 1902 1323.36  1899.36 1326  1896 1326  C 1892.64 1326  1890 1323.36  1890 1320  C 1890 1316.64  1892.64 1314  1896 1314  Z " fill-rule="nonzero" fill="#ffffff" stroke="none" />
  <path d="M 1896 1314.5  C 1899.08 1314.5  1901.5 1316.92  1901.5 1320  C 1901.5 1323.08  1899.08 1325.5  1896 1325.5  C 1892.92 1325.5  1890.5 1323.08  1890.5 1320  C 1890.5 1316.92  1892.92 1314.5  1896 1314.5  Z " stroke-width="1" stroke="#797979" fill="none" />
  <path d="M 1896 1323  C 1894.32 1323  1893 1321.68  1893 1320  C 1893 1318.32  1894.32 1317  1896 1317  C 1897.68 1317  1899 1318.32  1899 1320  C 1899 1321.68  1897.68 1323  1896 1323  " fill-rule="nonzero" fill="#797979" stroke="none" />
</svg>