<?xml version="1.0" encoding="utf-8"?>
<svg version="1.1" xmlns:xlink="http://www.w3.org/1999/xlink" width="12px" height="12px" viewBox="2373 1449  12 12" xmlns="http://www.w3.org/2000/svg">
  <path d="M 2379 1449  C 2382.36 1449  2385 1451.64  2385 1455  C 2385 1458.36  2382.36 1461  2379 1461  C 2375.64 1461  2373 1458.36  2373 1455  C 2373 1451.64  2375.64 1449  2379 1449  Z " fill-rule="nonzero" fill="#ffffff" stroke="none" />
  <path d="M 2379 1449.5  C 2382.08 1449.5  2384.5 1451.92  2384.5 1455  C 2384.5 1458.08  2382.08 1460.5  2379 1460.5  C 2375.92 1460.5  2373.5 1458.08  2373.5 1455  C 2373.5 1451.92  2375.92 1449.5  2379 1449.5  Z " stroke-width="1" stroke="#797979" fill="none" />
  <path d="M 2379 1458  C 2377.32 1458  2376 1456.68  2376 1455  C 2376 1453.32  2377.32 1452  2379 1452  C 2380.68 1452  2382 1453.32  2382 1455  C 2382 1456.68  2380.68 1458  2379 1458  " fill-rule="nonzero" fill="#797979" stroke="none" />
</svg>