<?xml version="1.0" encoding="utf-8"?>
<svg version="1.1" xmlns:xlink="http://www.w3.org/1999/xlink" width="12px" height="12px" viewBox="2250 1314  12 12" xmlns="http://www.w3.org/2000/svg">
  <path d="M 2256 1314  C 2259.36 1314  2262 1316.64  2262 1320  C 2262 1323.36  2259.36 1326  2256 1326  C 2252.64 1326  2250 1323.36  2250 1320  C 2250 1316.64  2252.64 1314  2256 1314  Z " fill-rule="nonzero" fill="#f0f0f0" stroke="none" />
  <path d="M 2256 1314.5  C 2259.08 1314.5  2261.5 1316.92  2261.5 1320  C 2261.5 1323.08  2259.08 1325.5  2256 1325.5  C 2252.92 1325.5  2250.5 1323.08  2250.5 1320  C 2250.5 1316.92  2252.92 1314.5  2256 1314.5  Z " stroke-width="1" stroke="#797979" fill="none" />
  <path d="M 2256 1323  C 2254.32 1323  2253 1321.68  2253 1320  C 2253 1318.32  2254.32 1317  2256 1317  C 2257.68 1317  2259 1318.32  2259 1320  C 2259 1321.68  2257.68 1323  2256 1323  " fill-rule="nonzero" fill="#797979" stroke="none" />
</svg>