<?xml version="1.0" encoding="utf-8"?>
<svg version="1.1" xmlns:xlink="http://www.w3.org/1999/xlink" width="12px" height="12px" viewBox="2469 538  12 12" xmlns="http://www.w3.org/2000/svg">
  <path d="M 2475 538  C 2478.36 538  2481 540.64  2481 544  C 2481 547.36  2478.36 550  2475 550  C 2471.64 550  2469 547.36  2469 544  C 2469 540.64  2471.64 538  2475 538  Z " fill-rule="nonzero" fill="#ffffff" stroke="none" />
  <path d="M 2475 538.5  C 2478.08 538.5  2480.5 540.92  2480.5 544  C 2480.5 547.08  2478.08 549.5  2475 549.5  C 2471.92 549.5  2469.5 547.08  2469.5 544  C 2469.5 540.92  2471.92 538.5  2475 538.5  Z " stroke-width="1" stroke="#797979" fill="none" />
  <path d="M 2475 547  C 2473.32 547  2472 545.68  2472 544  C 2472 542.32  2473.32 541  2475 541  C 2476.68 541  2478 542.32  2478 544  C 2478 545.68  2476.68 547  2475 547  " fill-rule="nonzero" fill="#797979" stroke="none" />
</svg>