<?xml version="1.0" encoding="utf-8"?>
<svg version="1.1" xmlns:xlink="http://www.w3.org/1999/xlink" width="12px" height="12px" viewBox="2579 385  12 12" xmlns="http://www.w3.org/2000/svg">
  <path d="M 2585 385  C 2588.36 385  2591 387.64  2591 391  C 2591 394.36  2588.36 397  2585 397  C 2581.64 397  2579 394.36  2579 391  C 2579 387.64  2581.64 385  2585 385  Z " fill-rule="nonzero" fill="#f0f0f0" stroke="none" />
  <path d="M 2585 385.5  C 2588.08 385.5  2590.5 387.92  2590.5 391  C 2590.5 394.08  2588.08 396.5  2585 396.5  C 2581.92 396.5  2579.5 394.08  2579.5 391  C 2579.5 387.92  2581.92 385.5  2585 385.5  Z " stroke-width="1" stroke="#797979" fill="none" />
  <path d="M 2585 394  C 2583.32 394  2582 392.68  2582 391  C 2582 389.32  2583.32 388  2585 388  C 2586.68 388  2588 389.32  2588 391  C 2588 392.68  2586.68 394  2585 394  " fill-rule="nonzero" fill="#797979" stroke="none" />
</svg>