<?xml version="1.0" encoding="utf-8"?>
<svg version="1.1" xmlns:xlink="http://www.w3.org/1999/xlink" width="12px" height="12px" viewBox="2464 385  12 12" xmlns="http://www.w3.org/2000/svg">
  <path d="M 2470 385  C 2473.36 385  2476 387.64  2476 391  C 2476 394.36  2473.36 397  2470 397  C 2466.64 397  2464 394.36  2464 391  C 2464 387.64  2466.64 385  2470 385  Z " fill-rule="nonzero" fill="#ffffff" stroke="none" />
  <path d="M 2470 385.5  C 2473.08 385.5  2475.5 387.92  2475.5 391  C 2475.5 394.08  2473.08 396.5  2470 396.5  C 2466.92 396.5  2464.5 394.08  2464.5 391  C 2464.5 387.92  2466.92 385.5  2470 385.5  Z " stroke-width="1" stroke="#797979" fill="none" />
  <path d="M 2470 394  C 2468.32 394  2467 392.68  2467 391  C 2467 389.32  2468.32 388  2470 388  C 2471.68 388  2473 389.32  2473 391  C 2473 392.68  2471.68 394  2470 394  " fill-rule="nonzero" fill="#797979" stroke="none" />
</svg>