<?xml version="1.0" encoding="utf-8"?>
<svg version="1.1" xmlns:xlink="http://www.w3.org/1999/xlink" width="12px" height="12px" viewBox="2954 517  12 12" xmlns="http://www.w3.org/2000/svg">
  <path d="M 2960 517  C 2963.36 517  2966 519.64  2966 523  C 2966 526.36  2963.36 529  2960 529  C 2956.64 529  2954 526.36  2954 523  C 2954 519.64  2956.64 517  2960 517  Z " fill-rule="nonzero" fill="#ffffff" stroke="none" />
  <path d="M 2960 517.5  C 2963.08 517.5  2965.5 519.92  2965.5 523  C 2965.5 526.08  2963.08 528.5  2960 528.5  C 2956.92 528.5  2954.5 526.08  2954.5 523  C 2954.5 519.92  2956.92 517.5  2960 517.5  Z " stroke-width="1" stroke="#797979" fill="none" />
  <path d="M 2960 526  C 2958.32 526  2957 524.68  2957 523  C 2957 521.32  2958.32 520  2960 520  C 2961.68 520  2963 521.32  2963 523  C 2963 524.68  2961.68 526  2960 526  " fill-rule="nonzero" fill="#797979" stroke="none" />
</svg>