<?xml version="1.0" encoding="utf-8"?>
<svg version="1.1" xmlns:xlink="http://www.w3.org/1999/xlink" width="12px" height="12px" viewBox="2944 388  12 12" xmlns="http://www.w3.org/2000/svg">
  <path d="M 2950 388  C 2953.36 388  2956 390.64  2956 394  C 2956 397.36  2953.36 400  2950 400  C 2946.64 400  2944 397.36  2944 394  C 2944 390.64  2946.64 388  2950 388  Z " fill-rule="nonzero" fill="#ffffff" stroke="none" />
  <path d="M 2950 388.5  C 2953.08 388.5  2955.5 390.92  2955.5 394  C 2955.5 397.08  2953.08 399.5  2950 399.5  C 2946.92 399.5  2944.5 397.08  2944.5 394  C 2944.5 390.92  2946.92 388.5  2950 388.5  Z " stroke-width="1" stroke="#797979" fill="none" />
  <path d="M 2950 397  C 2948.32 397  2947 395.68  2947 394  C 2947 392.32  2948.32 391  2950 391  C 2951.68 391  2953 392.32  2953 394  C 2953 395.68  2951.68 397  2950 397  " fill-rule="nonzero" fill="#797979" stroke="none" />
</svg>