<?xml version="1.0" encoding="utf-8"?>
<svg version="1.1" xmlns:xlink="http://www.w3.org/1999/xlink" width="12px" height="12px" viewBox="3069 517  12 12" xmlns="http://www.w3.org/2000/svg">
  <path d="M 3075 517  C 3078.36 517  3081 519.64  3081 523  C 3081 526.36  3078.36 529  3075 529  C 3071.64 529  3069 526.36  3069 523  C 3069 519.64  3071.64 517  3075 517  Z " fill-rule="nonzero" fill="#ffffff" stroke="none" />
  <path d="M 3075 517.5  C 3078.08 517.5  3080.5 519.92  3080.5 523  C 3080.5 526.08  3078.08 528.5  3075 528.5  C 3071.92 528.5  3069.5 526.08  3069.5 523  C 3069.5 519.92  3071.92 517.5  3075 517.5  Z " stroke-width="1" stroke="#797979" fill="none" />
  <path d="M 3075 526  C 3073.32 526  3072 524.68  3072 523  C 3072 521.32  3073.32 520  3075 520  C 3076.68 520  3078 521.32  3078 523  C 3078 524.68  3076.68 526  3075 526  " fill-rule="nonzero" fill="#797979" stroke="none" />
</svg>