<?xml version="1.0" encoding="utf-8"?>
<svg version="1.1" xmlns:xlink="http://www.w3.org/1999/xlink" width="12px" height="12px" viewBox="2271 1518  12 12" xmlns="http://www.w3.org/2000/svg">
  <path d="M 2277 1518  C 2280.36 1518  2283 1520.64  2283 1524  C 2283 1527.36  2280.36 1530  2277 1530  C 2273.64 1530  2271 1527.36  2271 1524  C 2271 1520.64  2273.64 1518  2277 1518  Z " fill-rule="nonzero" fill="#ffffff" stroke="none" />
  <path d="M 2277 1518.5  C 2280.08 1518.5  2282.5 1520.92  2282.5 1524  C 2282.5 1527.08  2280.08 1529.5  2277 1529.5  C 2273.92 1529.5  2271.5 1527.08  2271.5 1524  C 2271.5 1520.92  2273.92 1518.5  2277 1518.5  Z " stroke-width="1" stroke="#797979" fill="none" />
  <path d="M 2277 1527  C 2275.32 1527  2274 1525.68  2274 1524  C 2274 1522.32  2275.32 1521  2277 1521  C 2278.68 1521  2280 1522.32  2280 1524  C 2280 1525.68  2278.68 1527  2277 1527  " fill-rule="nonzero" fill="#797979" stroke="none" />
</svg>