<?xml version="1.0" encoding="utf-8"?>
<svg version="1.1" xmlns:xlink="http://www.w3.org/1999/xlink" width="12px" height="12px" viewBox="1977 284  12 12" xmlns="http://www.w3.org/2000/svg">
  <path d="M 1983 284  C 1986.36 284  1989 286.64  1989 290  C 1989 293.36  1986.36 296  1983 296  C 1979.64 296  1977 293.36  1977 290  C 1977 286.64  1979.64 284  1983 284  Z " fill-rule="nonzero" fill="#f0f0f0" stroke="none" />
  <path d="M 1983 284.5  C 1986.08 284.5  1988.5 286.92  1988.5 290  C 1988.5 293.08  1986.08 295.5  1983 295.5  C 1979.92 295.5  1977.5 293.08  1977.5 290  C 1977.5 286.92  1979.92 284.5  1983 284.5  Z " stroke-width="1" stroke="#797979" fill="none" />
  <path d="M 1983 293  C 1981.32 293  1980 291.68  1980 290  C 1980 288.32  1981.32 287  1983 287  C 1984.68 287  1986 288.32  1986 290  C 1986 291.68  1984.68 293  1983 293  " fill-rule="nonzero" fill="#797979" stroke="none" />
</svg>