<?xml version="1.0" encoding="utf-8"?>
<svg version="1.1" xmlns:xlink="http://www.w3.org/1999/xlink" width="12px" height="12px" viewBox="2627 314  12 12" xmlns="http://www.w3.org/2000/svg">
  <path d="M 2633 314  C 2636.36 314  2639 316.64  2639 320  C 2639 323.36  2636.36 326  2633 326  C 2629.64 326  2627 323.36  2627 320  C 2627 316.64  2629.64 314  2633 314  Z " fill-rule="nonzero" fill="#ffffff" stroke="none" />
  <path d="M 2633 314.5  C 2636.08 314.5  2638.5 316.92  2638.5 320  C 2638.5 323.08  2636.08 325.5  2633 325.5  C 2629.92 325.5  2627.5 323.08  2627.5 320  C 2627.5 316.92  2629.92 314.5  2633 314.5  Z " stroke-width="1" stroke="#797979" fill="none" />
  <path d="M 2633 323  C 2631.32 323  2630 321.68  2630 320  C 2630 318.32  2631.32 317  2633 317  C 2634.68 317  2636 318.32  2636 320  C 2636 321.68  2634.68 323  2633 323  " fill-rule="nonzero" fill="#797979" stroke="none" />
</svg>