<?xml version="1.0" encoding="utf-8"?>
<svg version="1.1" xmlns:xlink="http://www.w3.org/1999/xlink" width="12px" height="12px" viewBox="3040 443  12 12" xmlns="http://www.w3.org/2000/svg">
  <path d="M 3046 443  C 3049.36 443  3052 445.64  3052 449  C 3052 452.36  3049.36 455  3046 455  C 3042.64 455  3040 452.36  3040 449  C 3040 445.64  3042.64 443  3046 443  Z " fill-rule="nonzero" fill="#f0f0f0" stroke="none" />
  <path d="M 3046 443.5  C 3049.08 443.5  3051.5 445.92  3051.5 449  C 3051.5 452.08  3049.08 454.5  3046 454.5  C 3042.92 454.5  3040.5 452.08  3040.5 449  C 3040.5 445.92  3042.92 443.5  3046 443.5  Z " stroke-width="1" stroke="#797979" fill="none" />
  <path d="M 3046 452  C 3044.32 452  3043 450.68  3043 449  C 3043 447.32  3044.32 446  3046 446  C 3047.68 446  3049 447.32  3049 449  C 3049 450.68  3047.68 452  3046 452  " fill-rule="nonzero" fill="#797979" stroke="none" />
</svg>