<?xml version="1.0" encoding="utf-8"?>
<svg version="1.1" xmlns:xlink="http://www.w3.org/1999/xlink" width="28px" height="17px" xmlns="http://www.w3.org/2000/svg">
  <g transform="matrix(1 0 0 1 -3883 -294 )">
    <path d="M 3883 294  L 3911 294  L 3911 311  L 3883 311  L 3883 294  " fill-rule="nonzero" fill="#cccccc" stroke="none" />
    <path d="M 3884 295  L 3910 295  L 3910 310  L 3884 310  L 3884 295  " fill-rule="nonzero" fill="#ffffff" stroke="none" />
    <path d="M 3898.835 299.1  C 3898.121 299.1  3897.56 298.539  3897.56 297.825  C 3897.56 297.111  3898.121 296.55  3898.835 296.55  C 3899.549 296.55  3900.11 297.111  3900.11 297.825  C 3900.11 298.539  3899.549 299.1  3898.835 299.1  " fill-rule="nonzero" fill="#cccccc" stroke="none" />
    <path d="M 3885 310  L 3885 302.3  L 3891.25 298.8  L 3900 304.9  L 3905 300.9  L 3910 304.9  L 3910 310  L 3885 310  " fill-rule="nonzero" fill="#169bd5" stroke="none" />
  </g>
</svg>