<?xml version="1.0" encoding="utf-8"?>
<svg version="1.1" xmlns:xlink="http://www.w3.org/1999/xlink" width="28px" height="17px" xmlns="http://www.w3.org/2000/svg">
  <g transform="matrix(1 0 0 1 -3981 -295 )">
    <path d="M 3981 295  L 4009 295  L 4009 312  L 3981 312  L 3981 295  " fill-rule="nonzero" fill="#cccccc" stroke="none" />
    <path d="M 3982 296  L 4008 296  L 4008 311  L 3982 311  L 3982 296  " fill-rule="nonzero" fill="#ffffff" stroke="none" />
    <path d="M 3996.835 300.1  C 3996.121 300.1  3995.56 299.539  3995.56 298.825  C 3995.56 298.111  3996.121 297.55  3996.835 297.55  C 3997.549 297.55  3998.11 298.111  3998.11 298.825  C 3998.11 299.539  3997.549 300.1  3996.835 300.1  " fill-rule="nonzero" fill="#cccccc" stroke="none" />
    <path d="M 3983 311  L 3983 303.3  L 3989.25 299.8  L 3998 305.9  L 4003 301.9  L 4008 305.9  L 4008 311  L 3983 311  " fill-rule="nonzero" fill="#169bd5" stroke="none" />
  </g>
</svg>