<?xml version="1.0" encoding="utf-8"?>
<svg version="1.1" xmlns:xlink="http://www.w3.org/1999/xlink" width="12px" height="12px" viewBox="1853 1328  12 12" xmlns="http://www.w3.org/2000/svg">
  <path d="M 1859 1328  C 1862.36 1328  1865 1330.64  1865 1334  C 1865 1337.36  1862.36 1340  1859 1340  C 1855.64 1340  1853 1337.36  1853 1334  C 1853 1330.64  1855.64 1328  1859 1328  Z " fill-rule="nonzero" fill="#f0f0f0" stroke="none" />
  <path d="M 1859 1328.5  C 1862.08 1328.5  1864.5 1330.92  1864.5 1334  C 1864.5 1337.08  1862.08 1339.5  1859 1339.5  C 1855.92 1339.5  1853.5 1337.08  1853.5 1334  C 1853.5 1330.92  1855.92 1328.5  1859 1328.5  Z " stroke-width="1" stroke="#797979" fill="none" />
  <path d="M 1859 1337  C 1857.32 1337  1856 1335.68  1856 1334  C 1856 1332.32  1857.32 1331  1859 1331  C 1860.68 1331  1862 1332.32  1862 1334  C 1862 1335.68  1860.68 1337  1859 1337  " fill-rule="nonzero" fill="#797979" stroke="none" />
</svg>