<?xml version="1.0" encoding="utf-8"?>
<svg version="1.1" xmlns:xlink="http://www.w3.org/1999/xlink" width="12px" height="12px" viewBox="1903 1383  12 12" xmlns="http://www.w3.org/2000/svg">
  <path d="M 1909 1383  C 1912.36 1383  1915 1385.64  1915 1389  C 1915 1392.36  1912.36 1395  1909 1395  C 1905.64 1395  1903 1392.36  1903 1389  C 1903 1385.64  1905.64 1383  1909 1383  Z " fill-rule="nonzero" fill="#f0f0f0" stroke="none" />
  <path d="M 1909 1383.5  C 1912.08 1383.5  1914.5 1385.92  1914.5 1389  C 1914.5 1392.08  1912.08 1394.5  1909 1394.5  C 1905.92 1394.5  1903.5 1392.08  1903.5 1389  C 1903.5 1385.92  1905.92 1383.5  1909 1383.5  Z " stroke-width="1" stroke="#797979" fill="none" />
  <path d="M 1909 1392  C 1907.32 1392  1906 1390.68  1906 1389  C 1906 1387.32  1907.32 1386  1909 1386  C 1910.68 1386  1912 1387.32  1912 1389  C 1912 1390.68  1910.68 1392  1909 1392  " fill-rule="nonzero" fill="#797979" stroke="none" />
</svg>