<?xml version="1.0" encoding="utf-8"?>
<svg version="1.1" xmlns:xlink="http://www.w3.org/1999/xlink" width="12px" height="12px" viewBox="1974 1470  12 12" xmlns="http://www.w3.org/2000/svg">
  <path d="M 1980 1470  C 1983.36 1470  1986 1472.64  1986 1476  C 1986 1479.36  1983.36 1482  1980 1482  C 1976.64 1482  1974 1479.36  1974 1476  C 1974 1472.64  1976.64 1470  1980 1470  Z " fill-rule="nonzero" fill="#f0f0f0" stroke="none" />
  <path d="M 1980 1470.5  C 1983.08 1470.5  1985.5 1472.92  1985.5 1476  C 1985.5 1479.08  1983.08 1481.5  1980 1481.5  C 1976.92 1481.5  1974.5 1479.08  1974.5 1476  C 1974.5 1472.92  1976.92 1470.5  1980 1470.5  Z " stroke-width="1" stroke="#797979" fill="none" />
  <path d="M 1980 1479  C 1978.32 1479  1977 1477.68  1977 1476  C 1977 1474.32  1978.32 1473  1980 1473  C 1981.68 1473  1983 1474.32  1983 1476  C 1983 1477.68  1981.68 1479  1980 1479  " fill-rule="nonzero" fill="#797979" stroke="none" />
</svg>