<?xml version="1.0" encoding="utf-8"?>
<svg version="1.1" xmlns:xlink="http://www.w3.org/1999/xlink" width="12px" height="12px" viewBox="2513 1487  12 12" xmlns="http://www.w3.org/2000/svg">
  <path d="M 2519 1487  C 2522.36 1487  2525 1489.64  2525 1493  C 2525 1496.36  2522.36 1499  2519 1499  C 2515.64 1499  2513 1496.36  2513 1493  C 2513 1489.64  2515.64 1487  2519 1487  Z " fill-rule="nonzero" fill="#ffffff" stroke="none" />
  <path d="M 2519 1487.5  C 2522.08 1487.5  2524.5 1489.92  2524.5 1493  C 2524.5 1496.08  2522.08 1498.5  2519 1498.5  C 2515.92 1498.5  2513.5 1496.08  2513.5 1493  C 2513.5 1489.92  2515.92 1487.5  2519 1487.5  Z " stroke-width="1" stroke="#797979" fill="none" />
  <path d="M 2519 1496  C 2517.32 1496  2516 1494.68  2516 1493  C 2516 1491.32  2517.32 1490  2519 1490  C 2520.68 1490  2522 1491.32  2522 1493  C 2522 1494.68  2520.68 1496  2519 1496  " fill-rule="nonzero" fill="#797979" stroke="none" />
</svg>