<?xml version="1.0" encoding="utf-8"?>
<svg version="1.1" xmlns:xlink="http://www.w3.org/1999/xlink" width="12px" height="12px" viewBox="3031 1487  12 12" xmlns="http://www.w3.org/2000/svg">
  <path d="M 3037 1487  C 3040.36 1487  3043 1489.64  3043 1493  C 3043 1496.36  3040.36 1499  3037 1499  C 3033.64 1499  3031 1496.36  3031 1493  C 3031 1489.64  3033.64 1487  3037 1487  Z " fill-rule="nonzero" fill="#f0f0f0" stroke="none" />
  <path d="M 3037 1487.5  C 3040.08 1487.5  3042.5 1489.92  3042.5 1493  C 3042.5 1496.08  3040.08 1498.5  3037 1498.5  C 3033.92 1498.5  3031.5 1496.08  3031.5 1493  C 3031.5 1489.92  3033.92 1487.5  3037 1487.5  Z " stroke-width="1" stroke="#797979" fill="none" />
  <path d="M 3037 1496  C 3035.32 1496  3034 1494.68  3034 1493  C 3034 1491.32  3035.32 1490  3037 1490  C 3038.68 1490  3040 1491.32  3040 1493  C 3040 1494.68  3038.68 1496  3037 1496  " fill-rule="nonzero" fill="#797979" stroke="none" />
</svg>