<?xml version="1.0" encoding="utf-8"?>
<svg version="1.1" xmlns:xlink="http://www.w3.org/1999/xlink" width="12px" height="12px" viewBox="1859 1470  12 12" xmlns="http://www.w3.org/2000/svg">
  <path d="M 1865 1470  C 1868.36 1470  1871 1472.64  1871 1476  C 1871 1479.36  1868.36 1482  1865 1482  C 1861.64 1482  1859 1479.36  1859 1476  C 1859 1472.64  1861.64 1470  1865 1470  Z " fill-rule="nonzero" fill="#f0f0f0" stroke="none" />
  <path d="M 1865 1470.5  C 1868.08 1470.5  1870.5 1472.92  1870.5 1476  C 1870.5 1479.08  1868.08 1481.5  1865 1481.5  C 1861.92 1481.5  1859.5 1479.08  1859.5 1476  C 1859.5 1472.92  1861.92 1470.5  1865 1470.5  Z " stroke-width="1" stroke="#797979" fill="none" />
  <path d="M 1865 1479  C 1863.32 1479  1862 1477.68  1862 1476  C 1862 1474.32  1863.32 1473  1865 1473  C 1866.68 1473  1868 1474.32  1868 1476  C 1868 1477.68  1866.68 1479  1865 1479  " fill-rule="nonzero" fill="#797979" stroke="none" />
</svg>