<?xml version="1.0" encoding="utf-8"?>
<svg version="1.1" xmlns:xlink="http://www.w3.org/1999/xlink" width="12px" height="12px" viewBox="2398 1487  12 12" xmlns="http://www.w3.org/2000/svg">
  <path d="M 2404 1487  C 2407.36 1487  2410 1489.64  2410 1493  C 2410 1496.36  2407.36 1499  2404 1499  C 2400.64 1499  2398 1496.36  2398 1493  C 2398 1489.64  2400.64 1487  2404 1487  Z " fill-rule="nonzero" fill="#ffffff" stroke="none" />
  <path d="M 2404 1487.5  C 2407.08 1487.5  2409.5 1489.92  2409.5 1493  C 2409.5 1496.08  2407.08 1498.5  2404 1498.5  C 2400.92 1498.5  2398.5 1496.08  2398.5 1493  C 2398.5 1489.92  2400.92 1487.5  2404 1487.5  Z " stroke-width="1" stroke="#797979" fill="none" />
  <path d="M 2404 1496  C 2402.32 1496  2401 1494.68  2401 1493  C 2401 1491.32  2402.32 1490  2404 1490  C 2405.68 1490  2407 1491.32  2407 1493  C 2407 1494.68  2405.68 1496  2404 1496  " fill-rule="nonzero" fill="#797979" stroke="none" />
</svg>