<?xml version="1.0" encoding="utf-8"?>
<svg version="1.1" xmlns:xlink="http://www.w3.org/1999/xlink" width="12px" height="12px" viewBox="2388 1358  12 12" xmlns="http://www.w3.org/2000/svg">
  <path d="M 2394 1358  C 2397.36 1358  2400 1360.64  2400 1364  C 2400 1367.36  2397.36 1370  2394 1370  C 2390.64 1370  2388 1367.36  2388 1364  C 2388 1360.64  2390.64 1358  2394 1358  Z " fill-rule="nonzero" fill="#ffffff" stroke="none" />
  <path d="M 2394 1358.5  C 2397.08 1358.5  2399.5 1360.92  2399.5 1364  C 2399.5 1367.08  2397.08 1369.5  2394 1369.5  C 2390.92 1369.5  2388.5 1367.08  2388.5 1364  C 2388.5 1360.92  2390.92 1358.5  2394 1358.5  Z " stroke-width="1" stroke="#797979" fill="none" />
  <path d="M 2394 1367  C 2392.32 1367  2391 1365.68  2391 1364  C 2391 1362.32  2392.32 1361  2394 1361  C 2395.68 1361  2397 1362.32  2397 1364  C 2397 1365.68  2395.68 1367  2394 1367  " fill-rule="nonzero" fill="#797979" stroke="none" />
</svg>