<?xml version="1.0" encoding="utf-8"?>
<svg version="1.1" xmlns:xlink="http://www.w3.org/1999/xlink" width="12px" height="12px" viewBox="2092 284  12 12" xmlns="http://www.w3.org/2000/svg">
  <path d="M 2098 284  C 2101.36 284  2104 286.64  2104 290  C 2104 293.36  2101.36 296  2098 296  C 2094.64 296  2092 293.36  2092 290  C 2092 286.64  2094.64 284  2098 284  Z " fill-rule="nonzero" fill="#f0f0f0" stroke="none" />
  <path d="M 2098 284.5  C 2101.08 284.5  2103.5 286.92  2103.5 290  C 2103.5 293.08  2101.08 295.5  2098 295.5  C 2094.92 295.5  2092.5 293.08  2092.5 290  C 2092.5 286.92  2094.92 284.5  2098 284.5  Z " stroke-width="1" stroke="#797979" fill="none" />
  <path d="M 2098 293  C 2096.32 293  2095 291.68  2095 290  C 2095 288.32  2096.32 287  2098 287  C 2099.68 287  2101 288.32  2101 290  C 2101 291.68  2099.68 293  2098 293  " fill-rule="nonzero" fill="#797979" stroke="none" />
</svg>