<?xml version="1.0" encoding="utf-8"?>
<svg version="1.1" xmlns:xlink="http://www.w3.org/1999/xlink" width="12px" height="12px" viewBox="1983 426  12 12" xmlns="http://www.w3.org/2000/svg">
  <path d="M 1989 426  C 1992.36 426  1995 428.64  1995 432  C 1995 435.36  1992.36 438  1989 438  C 1985.64 438  1983 435.36  1983 432  C 1983 428.64  1985.64 426  1989 426  Z " fill-rule="nonzero" fill="#ffffff" stroke="none" />
  <path d="M 1989 426.5  C 1992.08 426.5  1994.5 428.92  1994.5 432  C 1994.5 435.08  1992.08 437.5  1989 437.5  C 1985.92 437.5  1983.5 435.08  1983.5 432  C 1983.5 428.92  1985.92 426.5  1989 426.5  Z " stroke-width="1" stroke="#797979" fill="none" />
  <path d="M 1989 435  C 1987.32 435  1986 433.68  1986 432  C 1986 430.32  1987.32 429  1989 429  C 1990.68 429  1992 430.32  1992 432  C 1992 433.68  1990.68 435  1989 435  " fill-rule="nonzero" fill="#797979" stroke="none" />
</svg>