<?xml version="1.0" encoding="utf-8"?>
<svg version="1.1" xmlns:xlink="http://www.w3.org/1999/xlink" width="12px" height="12px" viewBox="2098 426  12 12" xmlns="http://www.w3.org/2000/svg">
  <path d="M 2104 426  C 2107.36 426  2110 428.64  2110 432  C 2110 435.36  2107.36 438  2104 438  C 2100.64 438  2098 435.36  2098 432  C 2098 428.64  2100.64 426  2104 426  Z " fill-rule="nonzero" fill="#f0f0f0" stroke="none" />
  <path d="M 2104 426.5  C 2107.08 426.5  2109.5 428.92  2109.5 432  C 2109.5 435.08  2107.08 437.5  2104 437.5  C 2100.92 437.5  2098.5 435.08  2098.5 432  C 2098.5 428.92  2100.92 426.5  2104 426.5  Z " stroke-width="1" stroke="#797979" fill="none" />
  <path d="M 2104 435  C 2102.32 435  2101 433.68  2101 432  C 2101 430.32  2102.32 429  2104 429  C 2105.68 429  2107 430.32  2107 432  C 2107 433.68  2105.68 435  2104 435  " fill-rule="nonzero" fill="#797979" stroke="none" />
</svg>