<?xml version="1.0" encoding="utf-8"?>
<svg version="1.1" xmlns:xlink="http://www.w3.org/1999/xlink" width="12px" height="12px" viewBox="2512 314  12 12" xmlns="http://www.w3.org/2000/svg">
  <path d="M 2518 314  C 2521.36 314  2524 316.64  2524 320  C 2524 323.36  2521.36 326  2518 326  C 2514.64 326  2512 323.36  2512 320  C 2512 316.64  2514.64 314  2518 314  Z " fill-rule="nonzero" fill="#f0f0f0" stroke="none" />
  <path d="M 2518 314.5  C 2521.08 314.5  2523.5 316.92  2523.5 320  C 2523.5 323.08  2521.08 325.5  2518 325.5  C 2514.92 325.5  2512.5 323.08  2512.5 320  C 2512.5 316.92  2514.92 314.5  2518 314.5  Z " stroke-width="1" stroke="#797979" fill="none" />
  <path d="M 2518 323  C 2516.32 323  2515 321.68  2515 320  C 2515 318.32  2516.32 317  2518 317  C 2519.68 317  2521 318.32  2521 320  C 2521 321.68  2519.68 323  2518 323  " fill-rule="nonzero" fill="#797979" stroke="none" />
</svg>