<?xml version="1.0" encoding="utf-8"?>
<svg version="1.1" xmlns:xlink="http://www.w3.org/1999/xlink" width="12px" height="12px" viewBox="3030 314  12 12" xmlns="http://www.w3.org/2000/svg">
  <path d="M 3036 314  C 3039.36 314  3042 316.64  3042 320  C 3042 323.36  3039.36 326  3036 326  C 3032.64 326  3030 323.36  3030 320  C 3030 316.64  3032.64 314  3036 314  Z " fill-rule="nonzero" fill="#f0f0f0" stroke="none" />
  <path d="M 3036 314.5  C 3039.08 314.5  3041.5 316.92  3041.5 320  C 3041.5 323.08  3039.08 325.5  3036 325.5  C 3032.92 325.5  3030.5 323.08  3030.5 320  C 3030.5 316.92  3032.92 314.5  3036 314.5  Z " stroke-width="1" stroke="#797979" fill="none" />
  <path d="M 3036 323  C 3034.32 323  3033 321.68  3033 320  C 3033 318.32  3034.32 317  3036 317  C 3037.68 317  3039 318.32  3039 320  C 3039 321.68  3037.68 323  3036 323  " fill-rule="nonzero" fill="#797979" stroke="none" />
</svg>