<?xml version="1.0" encoding="utf-8"?>
<svg version="1.1" xmlns:xlink="http://www.w3.org/1999/xlink" width="12px" height="12px" viewBox="2906 1358  12 12" xmlns="http://www.w3.org/2000/svg">
  <path d="M 2912 1358  C 2915.36 1358  2918 1360.64  2918 1364  C 2918 1367.36  2915.36 1370  2912 1370  C 2908.64 1370  2906 1367.36  2906 1364  C 2906 1360.64  2908.64 1358  2912 1358  Z " fill-rule="nonzero" fill="#f0f0f0" stroke="none" />
  <path d="M 2912 1358.5  C 2915.08 1358.5  2917.5 1360.92  2917.5 1364  C 2917.5 1367.08  2915.08 1369.5  2912 1369.5  C 2908.92 1369.5  2906.5 1367.08  2906.5 1364  C 2906.5 1360.92  2908.92 1358.5  2912 1358.5  Z " stroke-width="1" stroke="#797979" fill="none" />
  <path d="M 2912 1367  C 2910.32 1367  2909 1365.68  2909 1364  C 2909 1362.32  2910.32 1361  2912 1361  C 2913.68 1361  2915 1362.32  2915 1364  C 2915 1365.68  2913.68 1367  2912 1367  " fill-rule="nonzero" fill="#797979" stroke="none" />
</svg>