<?xml version="1.0" encoding="utf-8"?>
<svg version="1.1" xmlns:xlink="http://www.w3.org/1999/xlink" width="12px" height="12px" viewBox="3021 1358  12 12" xmlns="http://www.w3.org/2000/svg">
  <path d="M 3027 1358  C 3030.36 1358  3033 1360.64  3033 1364  C 3033 1367.36  3030.36 1370  3027 1370  C 3023.64 1370  3021 1367.36  3021 1364  C 3021 1360.64  3023.64 1358  3027 1358  Z " fill-rule="nonzero" fill="#f0f0f0" stroke="none" />
  <path d="M 3027 1358.5  C 3030.08 1358.5  3032.5 1360.92  3032.5 1364  C 3032.5 1367.08  3030.08 1369.5  3027 1369.5  C 3023.92 1369.5  3021.5 1367.08  3021.5 1364  C 3021.5 1360.92  3023.92 1358.5  3027 1358.5  Z " stroke-width="1" stroke="#797979" fill="none" />
  <path d="M 3027 1367  C 3025.32 1367  3024 1365.68  3024 1364  C 3024 1362.32  3025.32 1361  3027 1361  C 3028.68 1361  3030 1362.32  3030 1364  C 3030 1365.68  3028.68 1367  3027 1367  " fill-rule="nonzero" fill="#797979" stroke="none" />
</svg>