<?xml version="1.0" encoding="utf-8"?>
<svg version="1.1" xmlns:xlink="http://www.w3.org/1999/xlink" width="12px" height="12px" viewBox="49 898  12 12" xmlns="http://www.w3.org/2000/svg">
  <path d="M 55 898  C 58.36 898  61 900.64  61 904  C 61 907.36  58.36 910  55 910  C 51.64 910  49 907.36  49 904  C 49 900.64  51.64 898  55 898  Z " fill-rule="nonzero" fill="#f0f0f0" stroke="none" />
  <path d="M 55 898.5  C 58.08 898.5  60.5 900.92  60.5 904  C 60.5 907.08  58.08 909.5  55 909.5  C 51.92 909.5  49.5 907.08  49.5 904  C 49.5 900.92  51.92 898.5  55 898.5  Z " stroke-width="1" stroke="#797979" fill="none" />
  <path d="M 55 907  C 53.32 907  52 905.68  52 904  C 52 902.32  53.32 901  55 901  C 56.68 901  58 902.32  58 904  C 58 905.68  56.68 907  55 907  " fill-rule="nonzero" fill="#797979" stroke="none" />
</svg>