<?xml version="1.0" encoding="utf-8"?>
<svg version="1.1" xmlns:xlink="http://www.w3.org/1999/xlink" width="12px" height="12px" viewBox="0 267  12 12" xmlns="http://www.w3.org/2000/svg">
  <path d="M 6 267  C 9.36 267  12 269.64  12 273  C 12 276.36  9.36 279  6 279  C 2.64 279  0 276.36  0 273  C 0 269.64  2.64 267  6 267  Z " fill-rule="nonzero" fill="#ffffff" stroke="none" />
  <path d="M 6 267.5  C 9.08 267.5  11.5 269.92  11.5 273  C 11.5 276.08  9.08 278.5  6 278.5  C 2.92 278.5  0.5 276.08  0.5 273  C 0.5 269.92  2.92 267.5  6 267.5  Z " stroke-width="1" stroke="#797979" fill="none" />
  <path d="M 6 276  C 4.32 276  3 274.68  3 273  C 3 271.32  4.32 270  6 270  C 7.68 270  9 271.32  9 273  C 9 274.68  7.68 276  6 276  " fill-rule="nonzero" fill="#797979" stroke="none" />
</svg>