<?xml version="1.0" encoding="utf-8"?>
<svg version="1.1" xmlns:xlink="http://www.w3.org/1999/xlink" width="12px" height="12px" viewBox="0 450  12 12" xmlns="http://www.w3.org/2000/svg">
  <path d="M 6 450  C 9.36 450  12 452.64  12 456  C 12 459.36  9.36 462  6 462  C 2.64 462  0 459.36  0 456  C 0 452.64  2.64 450  6 450  Z " fill-rule="nonzero" fill="#f0f0f0" stroke="none" />
  <path d="M 6 450.5  C 9.08 450.5  11.5 452.92  11.5 456  C 11.5 459.08  9.08 461.5  6 461.5  C 2.92 461.5  0.5 459.08  0.5 456  C 0.5 452.92  2.92 450.5  6 450.5  Z " stroke-width="1" stroke="#797979" fill="none" />
  <path d="M 6 459  C 4.32 459  3 457.68  3 456  C 3 454.32  4.32 453  6 453  C 7.68 453  9 454.32  9 456  C 9 457.68  7.68 459  6 459  " fill-rule="nonzero" fill="#797979" stroke="none" />
</svg>