<?xml version="1.0" encoding="utf-8"?>
<svg version="1.1" xmlns:xlink="http://www.w3.org/1999/xlink" width="12px" height="12px" viewBox="432 909  12 12" xmlns="http://www.w3.org/2000/svg">
  <path d="M 438 909  C 441.36 909  444 911.64  444 915  C 444 918.36  441.36 921  438 921  C 434.64 921  432 918.36  432 915  C 432 911.64  434.64 909  438 909  Z " fill-rule="nonzero" fill="#f0f0f0" stroke="none" />
  <path d="M 438 909.5  C 441.08 909.5  443.5 911.92  443.5 915  C 443.5 918.08  441.08 920.5  438 920.5  C 434.92 920.5  432.5 918.08  432.5 915  C 432.5 911.92  434.92 909.5  438 909.5  Z " stroke-width="1" stroke="#797979" fill="none" />
  <path d="M 438 918  C 436.32 918  435 916.68  435 915  C 435 913.32  436.32 912  438 912  C 439.68 912  441 913.32  441 915  C 441 916.68  439.68 918  438 918  " fill-rule="nonzero" fill="#797979" stroke="none" />
</svg>