<?xml version="1.0" encoding="utf-8"?>
<svg version="1.1" xmlns:xlink="http://www.w3.org/1999/xlink" width="12px" height="12px" viewBox="829 889  12 12" xmlns="http://www.w3.org/2000/svg">
  <path d="M 835 889  C 838.36 889  841 891.64  841 895  C 841 898.36  838.36 901  835 901  C 831.64 901  829 898.36  829 895  C 829 891.64  831.64 889  835 889  Z " fill-rule="nonzero" fill="#f0f0f0" stroke="none" />
  <path d="M 835 889.5  C 838.08 889.5  840.5 891.92  840.5 895  C 840.5 898.08  838.08 900.5  835 900.5  C 831.92 900.5  829.5 898.08  829.5 895  C 829.5 891.92  831.92 889.5  835 889.5  Z " stroke-width="1" stroke="#797979" fill="none" />
  <path d="M 835 898  C 833.32 898  832 896.68  832 895  C 832 893.32  833.32 892  835 892  C 836.68 892  838 893.32  838 895  C 838 896.68  836.68 898  835 898  " fill-rule="nonzero" fill="#797979" stroke="none" />
</svg>