<?xml version="1.0" encoding="utf-8"?>
<svg version="1.1" xmlns:xlink="http://www.w3.org/1999/xlink" width="13px" height="16px" xmlns="http://www.w3.org/2000/svg">
  <g transform="matrix(1 0 0 1 -390 -148 )">
    <path d="M 4.64417613636364 13.2395833333333  C 4.69957386363636 13.1770833333333  4.72727272727273 13.0972222222222  4.72727272727273 13  L 4.72727272727273 5.66666666666667  C 4.72727272727273 5.56944444444444  4.69957386363636 5.48958333333333  4.64417613636364 5.42708333333333  C 4.58877840909091 5.36458333333333  4.51799242424242 5.33333333333333  4.43181818181818 5.33333333333333  L 3.84090909090909 5.33333333333333  C 3.75473484848485 5.33333333333333  3.68394886363636 5.36458333333333  3.62855113636364 5.42708333333333  C 3.57315340909091 5.48958333333333  3.54545454545454 5.56944444444444  3.54545454545454 5.66666666666667  L 3.54545454545454 13  C 3.54545454545454 13.0972222222222  3.57315340909091 13.1770833333333  3.62855113636364 13.2395833333333  C 3.68394886363636 13.3020833333333  3.75473484848485 13.3333333333333  3.84090909090909 13.3333333333333  L 4.43181818181818 13.3333333333333  C 4.51799242424242 13.3333333333333  4.58877840909091 13.3020833333333  4.64417613636364 13.2395833333333  Z M 7.0078125 13.2395833333333  C 7.06321022727273 13.1770833333333  7.09090909090909 13.0972222222222  7.09090909090909 13  L 7.09090909090909 5.66666666666667  C 7.09090909090909 5.56944444444444  7.06321022727273 5.48958333333333  7.0078125 5.42708333333333  C 6.95241477272727 5.36458333333333  6.88162878787879 5.33333333333333  6.79545454545454 5.33333333333333  L 6.20454545454546 5.33333333333333  C 6.11837121212121 5.33333333333333  6.04758522727273 5.36458333333333  5.9921875 5.42708333333333  C 5.93678977272727 5.48958333333333  5.90909090909091 5.56944444444444  5.90909090909091 5.66666666666667  L 5.90909090909091 13  C 5.90909090909091 13.0972222222222  5.93678977272727 13.1770833333333  5.9921875 13.2395833333333  C 6.04758522727273 13.3020833333333  6.11837121212121 13.3333333333333  6.20454545454546 13.3333333333333  L 6.79545454545454 13.3333333333333  C 6.88162878787879 13.3333333333333  6.95241477272727 13.3020833333333  7.0078125 13.2395833333333  Z M 9.37144886363636 13.2395833333333  C 9.42684659090909 13.1770833333333  9.45454545454546 13.0972222222222  9.45454545454546 13  L 9.45454545454546 5.66666666666667  C 9.45454545454546 5.56944444444444  9.42684659090909 5.48958333333333  9.37144886363636 5.42708333333333  C 9.31605113636364 5.36458333333333  9.24526515151515 5.33333333333333  9.15909090909091 5.33333333333333  L 8.56818181818182 5.33333333333333  C 8.48200757575758 5.33333333333333  8.41122159090909 5.36458333333333  8.35582386363636 5.42708333333333  C 8.30042613636364 5.48958333333333  8.27272727272727 5.56944444444444  8.27272727272727 5.66666666666667  L 8.27272727272727 13  C 8.27272727272727 13.0972222222222  8.30042613636364 13.1770833333333  8.35582386363636 13.2395833333333  C 8.41122159090909 13.3020833333333  8.48200757575758 13.3333333333333  8.56818181818182 13.3333333333333  L 9.15909090909091 13.3333333333333  C 9.24526515151515 13.3333333333333  9.31605113636364 13.3020833333333  9.37144886363636 13.2395833333333  Z M 4.88423295454546 1.44791666666667  L 4.43181818181818 2.66666666666667  L 8.56818181818182 2.66666666666667  L 8.125 1.44791666666667  C 8.08191287878788 1.38541666666667  8.0295928030303 1.34722222222222  7.96803977272727 1.33333333333333  L 5.04119318181818 1.33333333333333  C 4.97964015151515 1.34722222222222  4.92732007575758 1.38541666666667  4.88423295454546 1.44791666666667  Z M 12.9169034090909 2.76041666666667  C 12.9723011363636 2.82291666666667  13 2.90277777777778  13 3  L 13 3.66666666666667  C 13 3.76388888888889  12.9723011363636 3.84375  12.9169034090909 3.90625  C 12.8615056818182 3.96875  12.7907196969697 4  12.7045454545455 4  L 11.8181818181818 4  L 11.8181818181818 13.875  C 11.8181818181818 14.4513888888889  11.6735321969697 14.9496527777778  11.3842329545455 15.3697916666667  C 11.0949337121212 15.7899305555556  10.7471590909091 16  10.3409090909091 16  L 2.65909090909091 16  C 2.25284090909091 16  1.90506628787879 15.796875  1.61576704545455 15.390625  C 1.3264678030303 14.984375  1.18181818181818 14.4930555555556  1.18181818181818 13.9166666666667  L 1.18181818181818 4  L 0.295454545454545 4  C 0.209280303030303 4  0.138494318181818 3.96875  0.0830965909090909 3.90625  C 0.0276988636363636 3.84375  0 3.76388888888889  0 3.66666666666667  L 0 3  C 0 2.90277777777778  0.0276988636363636 2.82291666666667  0.0830965909090909 2.76041666666667  C 0.138494318181818 2.69791666666667  0.209280303030303 2.66666666666667  0.295454545454545 2.66666666666667  L 3.1484375 2.66666666666667  L 3.79474431818182 0.927083333333334  C 3.88707386363636 0.670138888888888  4.05326704545455 0.451388888888888  4.29332386363636 0.270833333333334  C 4.53338068181818 0.0902777777777768  4.77651515151515 0  5.02272727272727 0  L 7.97727272727273 0  C 8.22348484848485 0  8.46661931818182 0.0902777777777768  8.70667613636364 0.270833333333334  C 8.94673295454546 0.451388888888888  9.11292613636364 0.670138888888888  9.20525568181818 0.927083333333334  L 9.8515625 2.66666666666667  L 12.7045454545455 2.66666666666667  C 12.7907196969697 2.66666666666667  12.8615056818182 2.69791666666667  12.9169034090909 2.76041666666667  Z " fill-rule="nonzero" fill="#000000" stroke="none" transform="matrix(1 0 0 1 390 148 )" />
  </g>
</svg>