<?xml version="1.0" encoding="utf-8"?>
<svg version="1.1" xmlns:xlink="http://www.w3.org/1999/xlink" width="27px" height="26px" xmlns="http://www.w3.org/2000/svg">
  <g transform="matrix(1 0 0 1 -553 -305 )">
    <path d="M 553 305  L 580 305  L 580 331  L 553 331  L 553 305  " fill-rule="nonzero" fill="#cccccc" stroke="none" />
    <path d="M 555 307  L 578 307  L 578 329  L 555 329  L 555 307  " fill-rule="nonzero" fill="#ffffff" stroke="none" />
    <path d="M 568.99 312.8  C 567.898 312.8  567.04 311.942  567.04 310.85  C 567.04 309.758  567.898 308.9  568.99 308.9  C 570.082 308.9  570.94 309.758  570.94 310.85  C 570.94 311.942  570.082 312.8  568.99 312.8  " fill-rule="nonzero" fill="#cccccc" stroke="none" />
    <path d="M 556 329  L 556 317.45  L 561.5 312.2  L 569.2 316.866666666667  L 573.6 315.35  L 578 316.866666666667  L 578 329  L 556 329  " fill-rule="nonzero" fill="#169bd5" stroke="none" />
  </g>
</svg>