<?xml version="1.0" encoding="utf-8"?>
<svg version="1.1" xmlns:xlink="http://www.w3.org/1999/xlink" width="113px" height="98px" xmlns="http://www.w3.org/2000/svg">
  <g transform="matrix(1 0 0 1 -2489 -1309 )">
    <path d="M 2489 1309  L 2602 1309  L 2602 1407  L 2489 1407  L 2489 1309  " fill-rule="nonzero" fill="#cccccc" stroke="none" />
    <path d="M 2496 1316  L 2595 1316  L 2595 1400  L 2496 1400  L 2496 1316  " fill-rule="nonzero" fill="#ffffff" stroke="none" />
    <path d="M 2555.11 1338.4  C 2550.994 1338.4  2547.76 1335.166  2547.76 1331.05  C 2547.76 1326.934  2550.994 1323.7  2555.11 1323.7  C 2559.226 1323.7  2562.46 1326.934  2562.46 1331.05  C 2562.46 1335.166  2559.226 1338.4  2555.11 1338.4  " fill-rule="nonzero" fill="#cccccc" stroke="none" />
    <path d="M 2499 1398  L 2499 1354.55  L 2522.5 1334.8  L 2555.4 1356.89203539823  L 2574.2 1346.65  L 2593 1356.89203539823  L 2593 1398  L 2499 1398  " fill-rule="nonzero" fill="#169bd5" stroke="none" />
  </g>
</svg>