<?xml version="1.0" encoding="utf-8"?>
<svg version="1.1" xmlns:xlink="http://www.w3.org/1999/xlink" width="24px" height="24px" xmlns="http://www.w3.org/2000/svg">
  <g transform="matrix(1 0 0 1 -2572 -1318 )">
    <path d="M 8.57386363636364 19.859375  C 8.67613636363636 19.765625  8.72727272727273 19.6458333333333  9 19.5  L 9 8.5  C 8.72727272727273 8.35416666666667  8.67613636363636 8.234375  8.57386363636364 8.140625  C 8.47159090909091 8.046875  8.34090909090909 8  8.18181818181818 8  L 7.09090909090909 8  C 6.93181818181818 8  6.80113636363637 8.046875  6.69886363636364 8.140625  C 6.59659090909091 8.234375  6.54545454545454 8.35416666666667  7 8.5  L 7 19.5  C 6.54545454545454 19.6458333333333  6.59659090909091 19.765625  6.69886363636364 19.859375  C 6.80113636363637 19.953125  6.93181818181818 20  7.09090909090909 20  L 8.18181818181818 20  C 8.34090909090909 20  8.47159090909091 19.953125  8.57386363636364 19.859375  Z M 12.9375 19.859375  C 13.0397727272727 19.765625  13.0909090909091 19.6458333333333  13 19.5  L 13 8.5  C 13.0909090909091 8.35416666666667  13.0397727272727 8.234375  12.9375 8.140625  C 12.8352272727273 8.046875  12.7045454545455 8  12.5454545454545 8  L 11.4545454545455 8  C 11.2954545454545 8  11.1647727272727 8.046875  11.0625 8.140625  C 10.9602272727273 8.234375  10.9090909090909 8.35416666666667  11 8.5  L 11 19.5  C 10.9090909090909 19.6458333333333  10.9602272727273 19.765625  11.0625 19.859375  C 11.1647727272727 19.953125  11.2954545454545 20  11.4545454545455 20  L 12.5454545454545 20  C 12.7045454545455 20  12.8352272727273 19.953125  12.9375 19.859375  Z M 17.3011363636364 19.859375  C 17.4034090909091 19.765625  17.4545454545455 19.6458333333333  17 19.5  L 17 8.5  C 17.4545454545455 8.35416666666667  17.4034090909091 8.234375  17.3011363636364 8.140625  C 17.1988636363636 8.046875  17.0681818181818 8  16.9090909090909 8  L 15.8181818181818 8  C 15.6590909090909 8  15.5284090909091 8.046875  15.4261363636364 8.140625  C 15.3238636363636 8.234375  15.2727272727273 8.35416666666667  15 8.5  L 15 19.5  C 15.2727272727273 19.6458333333333  15.3238636363636 19.765625  15.4261363636364 19.859375  C 15.5284090909091 19.953125  15.6590909090909 20  15.8181818181818 20  L 16.9090909090909 20  C 17.0681818181818 20  17.1988636363636 19.953125  17.3011363636364 19.859375  Z M 9.01704545454546 2.171875  L 8.18181818181818 4  L 15.8181818181818 4  L 15 2.171875  C 14.9204545454545 2.078125  14.8238636363636 2.02083333333333  14.7102272727273 2  L 9.30681818181818 2  C 9.19318181818182 2.02083333333333  9.09659090909091 2.078125  9.01704545454546 2.171875  Z M 23.8465909090909 4.140625  C 23.9488636363636 4.234375  24 4.35416666666667  24 4.5  L 24 5.5  C 24 5.64583333333333  23.9488636363636 5.765625  23.8465909090909 5.859375  C 23.7443181818182 5.953125  23.6136363636364 6  23.4545454545455 6  L 21.8181818181818 6  L 21.8181818181818 20.8125  C 21.8181818181818 21.6770833333333  21.5511363636364 22.4244791666667  21.0170454545455 23.0546875  C 20.4829545454545 23.6848958333333  19.8409090909091 24  19.0909090909091 24  L 4.90909090909091 24  C 4.15909090909091 24  3.51704545454546 23.6953125  2.98295454545455 23.0859375  C 2.44886363636364 22.4765625  2.18181818181818 21.7395833333333  2.18181818181818 20.875  L 2.18181818181818 6  L 0.545454545454545 6  C 0.386363636363636 6  0.255681818181818 5.953125  0.153409090909091 5.859375  C 0.0511363636363636 5.765625  0 5.64583333333333  0 5.5  L 0 4.5  C 0 4.35416666666667  0.0511363636363636 4.234375  0.153409090909091 4.140625  C 0.255681818181818 4.046875  0.386363636363636 4  0.545454545454545 4  L 5.8125 4  L 7.00568181818182 1.390625  C 7.17613636363637 1.00520833333333  7.48295454545455 0.677083333333331  7.92613636363636 0.406250000000001  C 8.36931818181818 0.135416666666665  8.81818181818182 0  9.27272727272727 0  L 14.7272727272727 0  C 15.1818181818182 0  15.6306818181818 0.135416666666665  16.0738636363636 0.406250000000001  C 16.5170454545455 0.677083333333331  16.8238636363636 1.00520833333333  16.9943181818182 1.390625  L 18.1875 4  L 23.4545454545455 4  C 23.6136363636364 4  23.7443181818182 4.046875  23.8465909090909 4.140625  Z " fill-rule="nonzero" fill="#000000" stroke="none" transform="matrix(1 0 0 1 2572 1318 )" />
  </g>
</svg>