<?xml version="1.0" encoding="utf-8"?>
<svg version="1.1" xmlns:xlink="http://www.w3.org/1999/xlink" width="63px" height="10px" preserveAspectRatio="xMinYMid meet" viewBox="1754 1478  63 8" xmlns="http://www.w3.org/2000/svg">
  <path d="M 1760 1482  L 1812 1482  L 1812 1501  L 1865 1501  " stroke-width="2" stroke-dasharray="6,2" stroke="#000000" fill="none" />
  <path d="M 1757.5 1478.5  A 3.5 3.5 0 0 0 1754 1482 A 3.5 3.5 0 0 0 1757.5 1485.5 A 3.5 3.5 0 0 0 1761 1482 A 3.5 3.5 0 0 0 1757.5 1478.5 Z M 1757.5 1480.5  A 1.5 1.5 0 0 1 1759 1482 A 1.5 1.5 0 0 1 1757.5 1483.5 A 1.5 1.5 0 0 1 1756 1482 A 1.5 1.5 0 0 1 1757.5 1480.5 Z M 1864 1508.6  L 1871 1501  L 1864 1493.4  L 1864 1508.6  Z M 1866 1503.8  L 1866 1498.2  L 1868 1501  L 1866 1503.8  Z " fill-rule="nonzero" fill="#000000" stroke="none" />
</svg>