<?xml version="1.0" encoding="utf-8"?>
<svg version="1.1" xmlns:xlink="http://www.w3.org/1999/xlink" width="92px" height="78px" xmlns="http://www.w3.org/2000/svg">
  <g transform="matrix(1 0 0 1 -2265 1041 )">
    <path d="M 2265 -1041  L 2357 -1041  L 2357 -963  L 2265 -963  L 2265 -1041  " fill-rule="nonzero" fill="#cccccc" stroke="none" />
    <path d="M 2270 -1036  L 2352 -1036  L 2352 -968  L 2270 -968  L 2270 -1036  " fill-rule="nonzero" fill="#ffffff" stroke="none" />
    <path d="M 2318.69 -1017.6  C 2315.414 -1017.6  2312.84 -1020.174  2312.84 -1023.45  C 2312.84 -1026.726  2315.414 -1029.3  2318.69 -1029.3  C 2321.966 -1029.3  2324.54 -1026.726  2324.54 -1023.45  C 2324.54 -1020.174  2321.966 -1017.6  2318.69 -1017.6  " fill-rule="nonzero" fill="#cccccc" stroke="none" />
    <path d="M 2272 -970  L 2272 -1005.2  L 2291.5 -1021.2  L 2318.8 -1002.55652173913  L 2334.4 -1011.6  L 2350 -1002.55652173913  L 2350 -970  L 2272 -970  " fill-rule="nonzero" fill="#169bd5" stroke="none" />
  </g>
</svg>