<?xml version="1.0" encoding="utf-8"?>
<svg version="1.1" xmlns:xlink="http://www.w3.org/1999/xlink" width="17px" height="19px" xmlns="http://www.w3.org/2000/svg">
  <g transform="matrix(1 0 0 1 -155 -701 )">
    <path d="M 163.5 701  C 168.26 701  172 705.18  172 710.5  C 172 715.82  168.26 720  163.5 720  C 158.74 720  155 715.82  155 710.5  C 155 705.18  158.74 701  163.5 701  Z " fill-rule="nonzero" fill="#ffffff" stroke="none" />
    <path d="M 163.5 701.5  C 167.98 701.5  171.5 705.46  171.5 710.5  C 171.5 715.54  167.98 719.5  163.5 719.5  C 159.02 719.5  155.5 715.54  155.5 710.5  C 155.5 705.46  159.02 701.5  163.5 701.5  Z " stroke-width="1" stroke="#797979" fill="none" />
  </g>
</svg>