<?xml version="1.0" encoding="utf-8"?>
<svg version="1.1" xmlns:xlink="http://www.w3.org/1999/xlink" width="92px" height="85px" xmlns="http://www.w3.org/2000/svg">
  <g transform="matrix(1 0 0 1 -1469 1481 )">
    <path d="M 1469 -1481  L 1561 -1481  L 1561 -1396  L 1469 -1396  L 1469 -1481  " fill-rule="nonzero" fill="#cccccc" stroke="none" />
    <path d="M 1475 -1475  L 1555 -1475  L 1555 -1402  L 1475 -1402  L 1475 -1475  " fill-rule="nonzero" fill="#ffffff" stroke="none" />
    <path d="M 1523.215 -1455.5  C 1519.645 -1455.5  1516.84 -1458.305  1516.84 -1461.875  C 1516.84 -1465.445  1519.645 -1468.25  1523.215 -1468.25  C 1526.785 -1468.25  1529.59 -1465.445  1529.59 -1461.875  C 1529.59 -1458.305  1526.785 -1455.5  1523.215 -1455.5  " fill-rule="nonzero" fill="#cccccc" stroke="none" />
    <path d="M 1477 -1404  L 1477 -1441.95  L 1496 -1459.2  L 1522.6 -1442.25  L 1537.8 -1448.85  L 1553 -1442.25  L 1553 -1404  L 1477 -1404  " fill-rule="nonzero" fill="#169bd5" stroke="none" />
  </g>
</svg>