<?xml version="1.0" encoding="utf-8"?>
<svg version="1.1" xmlns:xlink="http://www.w3.org/1999/xlink" width="20px" height="20px" xmlns="http://www.w3.org/2000/svg">
  <g transform="matrix(1 0 0 1 -60 -229 )">
    <path d="M 70 229  C 75.6 229  80 233.4  80 239  C 80 244.6  75.6 249  70 249  C 64.4 249  60 244.6  60 239  C 60 233.4  64.4 229  70 229  Z " fill-rule="nonzero" fill="#d9001b" stroke="none" />
    <path d="M 70 229.5  C 75.32 229.5  79.5 233.68  79.5 239  C 79.5 244.32  75.32 248.5  70 248.5  C 64.68 248.5  60.5 244.32  60.5 239  C 60.5 233.68  64.68 229.5  70 229.5  Z " stroke-width="1" stroke="#797979" fill="none" />
  </g>
</svg>