<?xml version="1.0" encoding="utf-8"?>
<svg version="1.1" xmlns:xlink="http://www.w3.org/1999/xlink" width="20px" height="20px" xmlns="http://www.w3.org/2000/svg">
  <g transform="matrix(1 0 0 1 -60 -331 )">
    <path d="M 70 331  C 75.6 331  80 335.4  80 341  C 80 346.6  75.6 351  70 351  C 64.4 351  60 346.6  60 341  C 60 335.4  64.4 331  70 331  Z " fill-rule="nonzero" fill="#ffffff" stroke="none" />
    <path d="M 70 331.5  C 75.32 331.5  79.5 335.68  79.5 341  C 79.5 346.32  75.32 350.5  70 350.5  C 64.68 350.5  60.5 346.32  60.5 341  C 60.5 335.68  64.68 331.5  70 331.5  Z " stroke-width="1" stroke="#797979" fill="none" />
  </g>
</svg>