<?xml version="1.0" encoding="utf-8"?>
<svg version="1.1" xmlns:xlink="http://www.w3.org/1999/xlink" width="17px" height="19px" xmlns="http://www.w3.org/2000/svg">
  <g transform="matrix(1 0 0 1 -60 -820 )">
    <path d="M 68.5 820  C 73.26 820  77 824.18  77 829.5  C 77 834.82  73.26 839  68.5 839  C 63.74 839  60 834.82  60 829.5  C 60 824.18  63.74 820  68.5 820  Z " fill-rule="nonzero" fill="#ffffff" stroke="none" />
    <path d="M 68.5 820.5  C 72.98 820.5  76.5 824.46  76.5 829.5  C 76.5 834.54  72.98 838.5  68.5 838.5  C 64.02 838.5  60.5 834.54  60.5 829.5  C 60.5 824.46  64.02 820.5  68.5 820.5  Z " stroke-width="1" stroke="#797979" fill="none" />
  </g>
</svg>