<?xml version="1.0" encoding="utf-8"?>
<svg version="1.1" xmlns:xlink="http://www.w3.org/1999/xlink" width="15px" height="14px" xmlns="http://www.w3.org/2000/svg">
  <g transform="matrix(1 0 0 1 -2675 -172 )">
    <path d="M 13.8490513392857 12.92578125  C 13.9020647321429 12.8763020833333  13.9285714285714 12.8177083333333  13.9285714285714 12.75  L 13.9285714285714 4.25  C 13.9285714285714 4.18229166666667  13.9020647321429 4.12369791666667  13.8490513392857 4.07421875  C 13.7960379464286 4.02473958333333  13.7332589285714 4  13.6607142857143 4  L 4.55357142857143 4  C 4.48102678571429 4  4.41824776785714 4.02473958333333  4.365234375 4.07421875  C 4.31222098214286 4.12369791666667  4.28571428571429 4.18229166666667  4.28571428571429 4.25  L 4.28571428571429 12.75  C 4.28571428571429 12.8177083333333  4.31222098214286 12.8763020833333  4.365234375 12.92578125  C 4.41824776785714 12.9752604166667  4.48102678571429 13  4.55357142857143 13  L 13.6607142857143 13  C 13.7332589285714 13  13.7960379464286 12.9752604166667  13.8490513392857 12.92578125  Z M 14.6065848214286 3.3671875  C 14.8688616071429 3.61197916666667  15 3.90625  15 4.25  L 15 12.75  C 15 13.09375  14.8688616071429 13.3880208333333  14.6065848214286 13.6328125  C 14.3443080357143 13.8776041666667  14.0290178571429 14  13.6607142857143 14  L 4.55357142857143 14  C 4.18526785714286 14  3.86997767857143 13.8776041666667  3.60770089285714 13.6328125  C 3.34542410714286 13.3880208333333  3.21428571428571 13.09375  3.21428571428571 12.75  L 3.21428571428571 4.25  C 3.21428571428571 3.90625  3.34542410714286 3.61197916666667  3.60770089285714 3.3671875  C 3.86997767857143 3.12239583333333  4.18526785714286 3  4.55357142857143 3  L 13.6607142857143 3  C 14.0290178571429 3  14.3443080357143 3.12239583333333  14.6065848214286 3.3671875  Z M 11.3922991071429 0.3671875  C 11.6545758928571 0.611979166666666  11.7857142857143 0.906250000000001  11.7857142857143 1.25  L 11.7857142857143 2.5  L 10.7142857142857 2.5  L 10.7142857142857 1.25  C 10.7142857142857 1.18229166666667  10.6877790178571 1.12369791666667  10.634765625 1.07421875  C 10.5817522321429 1.02473958333333  10.5189732142857 1  10.4464285714286 1  L 1.33928571428571 1  C 1.26674107142857 1  1.20396205357143 1.02473958333333  1.15094866071429 1.07421875  C 1.09793526785714 1.12369791666667  1.07142857142857 1.18229166666667  1.07142857142857 1.25  L 1.07142857142857 9.75  C 1.07142857142857 9.81770833333333  1.09793526785714 9.87630208333333  1.15094866071429 9.92578125  C 1.20396205357143 9.97526041666667  1.26674107142857 10  1.33928571428571 10  L 2.67857142857143 10  L 2.67857142857143 11  L 1.33928571428571 11  C 0.970982142857143 11  0.655691964285714 10.8776041666667  0.393415178571429 10.6328125  C 0.131138392857143 10.3880208333333  0 10.09375  0 9.75  L 0 1.25  C 0 0.906250000000001  0.131138392857143 0.611979166666666  0.393415178571429 0.3671875  C 0.655691964285714 0.122395833333333  0.970982142857143 0  1.33928571428571 0  L 10.4464285714286 0  C 10.8147321428571 0  11.1300223214286 0.122395833333333  11.3922991071429 0.3671875  Z " fill-rule="nonzero" fill="#000000" stroke="none" transform="matrix(1 0 0 1 2675 172 )" />
  </g>
</svg>