<?xml version="1.0" encoding="utf-8"?>
<svg version="1.1" xmlns:xlink="http://www.w3.org/1999/xlink" width="20px" height="20px" xmlns="http://www.w3.org/2000/svg">
  <g transform="matrix(1 0 0 1 -2239 1012 )">
    <path d="M 2249 -1012  C 2254.6 -1012  2259 -1007.6  2259 -1002  C 2259 -996.4  2254.6 -992  2249 -992  C 2243.4 -992  2239 -996.4  2239 -1002  C 2239 -1007.6  2243.4 -1012  2249 -1012  Z " fill-rule="nonzero" fill="#d9001b" stroke="none" />
    <path d="M 2249 -1011.5  C 2254.32 -1011.5  2258.5 -1007.32  2258.5 -1002  C 2258.5 -996.68  2254.32 -992.5  2249 -992.5  C 2243.68 -992.5  2239.5 -996.68  2239.5 -1002  C 2239.5 -1007.32  2243.68 -1011.5  2249 -1011.5  Z " stroke-width="1" stroke="#797979" fill="none" />
  </g>
</svg>