<?xml version="1.0" encoding="utf-8"?>
<svg version="1.1" xmlns:xlink="http://www.w3.org/1999/xlink" width="20px" height="20px" xmlns="http://www.w3.org/2000/svg">
  <g transform="matrix(1 0 0 1 -2239 910 )">
    <path d="M 2249 -910  C 2254.6 -910  2259 -905.6  2259 -900  C 2259 -894.4  2254.6 -890  2249 -890  C 2243.4 -890  2239 -894.4  2239 -900  C 2239 -905.6  2243.4 -910  2249 -910  Z " fill-rule="nonzero" fill="#ffffff" stroke="none" />
    <path d="M 2249 -909.5  C 2254.32 -909.5  2258.5 -905.32  2258.5 -900  C 2258.5 -894.68  2254.32 -890.5  2249 -890.5  C 2243.68 -890.5  2239.5 -894.68  2239.5 -900  C 2239.5 -905.32  2243.68 -909.5  2249 -909.5  Z " stroke-width="1" stroke="#797979" fill="none" />
  </g>
</svg>