<?xml version="1.0" encoding="utf-8"?>
<svg version="1.1" xmlns:xlink="http://www.w3.org/1999/xlink" width="17px" height="19px" xmlns="http://www.w3.org/2000/svg">
  <g transform="matrix(1 0 0 1 -2239 421 )">
    <path d="M 2247.5 -421  C 2252.26 -421  2256 -416.82  2256 -411.5  C 2256 -406.18  2252.26 -402  2247.5 -402  C 2242.74 -402  2239 -406.18  2239 -411.5  C 2239 -416.82  2242.74 -421  2247.5 -421  Z " fill-rule="nonzero" fill="#ffffff" stroke="none" />
    <path d="M 2247.5 -420.5  C 2251.98 -420.5  2255.5 -416.54  2255.5 -411.5  C 2255.5 -406.46  2251.98 -402.5  2247.5 -402.5  C 2243.02 -402.5  2239.5 -406.46  2239.5 -411.5  C 2239.5 -416.54  2243.02 -420.5  2247.5 -420.5  Z " stroke-width="1" stroke="#797979" fill="none" />
  </g>
</svg>