<?xml version="1.0" encoding="utf-8"?>
<svg version="1.1" xmlns:xlink="http://www.w3.org/1999/xlink" width="20px" height="20px" xmlns="http://www.w3.org/2000/svg">
  <g transform="matrix(1 0 0 1 -149 -193 )">
    <path d="M 159 193  C 164.6 193  169 197.4  169 203  C 169 208.6  164.6 213  159 213  C 153.4 213  149 208.6  149 203  C 149 197.4  153.4 193  159 193  Z " fill-rule="nonzero" fill="#ffffff" stroke="none" />
    <path d="M 159 193.5  C 164.32 193.5  168.5 197.68  168.5 203  C 168.5 208.32  164.32 212.5  159 212.5  C 153.68 212.5  149.5 208.32  149.5 203  C 149.5 197.68  153.68 193.5  159 193.5  Z " stroke-width="1" stroke="#797979" fill="none" />
  </g>
</svg>