<?xml version="1.0" encoding="utf-8"?>
<svg version="1.1" xmlns:xlink="http://www.w3.org/1999/xlink" width="92px" height="93px" xmlns="http://www.w3.org/2000/svg">
  <g transform="matrix(1 0 0 1 -1671 -196 )">
    <path d="M 1671 196  L 1763 196  L 1763 289  L 1671 289  L 1671 196  " fill-rule="nonzero" fill="#cccccc" stroke="none" />
    <path d="M 1677 202  L 1757 202  L 1757 283  L 1677 283  L 1677 202  " fill-rule="nonzero" fill="#ffffff" stroke="none" />
    <path d="M 1725.74 223.75  C 1721.876 223.75  1718.84 220.714  1718.84 216.85  C 1718.84 212.986  1721.876 209.95  1725.74 209.95  C 1729.604 209.95  1732.64 212.986  1732.64 216.85  C 1732.64 220.714  1729.604 223.75  1725.74 223.75  " fill-rule="nonzero" fill="#cccccc" stroke="none" />
    <path d="M 1680 281  L 1680 239.2  L 1698.75 220.2  L 1725 235.4  L 1740 231.6  L 1755 235.4  L 1755 281  L 1680 281  " fill-rule="nonzero" fill="#169bd5" stroke="none" />
  </g>
</svg>