<?xml version="1.0" encoding="utf-8"?>
<svg version="1.1" xmlns:xlink="http://www.w3.org/1999/xlink" width="92px" height="78px" xmlns="http://www.w3.org/2000/svg">
  <g transform="matrix(1 0 0 1 -590 -183 )">
    <path d="M 590 183  L 682 183  L 682 261  L 590 261  L 590 183  " fill-rule="nonzero" fill="#cccccc" stroke="none" />
    <path d="M 595 188  L 677 188  L 677 256  L 595 256  L 595 188  " fill-rule="nonzero" fill="#ffffff" stroke="none" />
    <path d="M 643.69 206.4  C 640.414 206.4  637.84 203.826  637.84 200.55  C 637.84 197.274  640.414 194.7  643.69 194.7  C 646.966 194.7  649.54 197.274  649.54 200.55  C 649.54 203.826  646.966 206.4  643.69 206.4  " fill-rule="nonzero" fill="#cccccc" stroke="none" />
    <path d="M 597 254  L 597 218.8  L 616.5 202.8  L 643.8 221.44347826087  L 659.4 212.4  L 675 221.44347826087  L 675 254  L 597 254  " fill-rule="nonzero" fill="#169bd5" stroke="none" />
  </g>
</svg>