<?xml version="1.0" encoding="utf-8"?>
<svg version="1.1" xmlns:xlink="http://www.w3.org/1999/xlink" width="92px" height="78px" xmlns="http://www.w3.org/2000/svg">
  <g transform="matrix(1 0 0 1 -67 -232 )">
    <path d="M 67 232  L 159 232  L 159 310  L 67 310  L 67 232  " fill-rule="nonzero" fill="#cccccc" stroke="none" />
    <path d="M 72 237  L 154 237  L 154 305  L 72 305  L 72 237  " fill-rule="nonzero" fill="#ffffff" stroke="none" />
    <path d="M 120.69 255.4  C 117.414 255.4  114.84 252.826  114.84 249.55  C 114.84 246.274  117.414 243.7  120.69 243.7  C 123.966 243.7  126.54 246.274  126.54 249.55  C 126.54 252.826  123.966 255.4  120.69 255.4  " fill-rule="nonzero" fill="#cccccc" stroke="none" />
    <path d="M 74 303  L 74 267.8  L 93.5 251.8  L 120.8 270.44347826087  L 136.4 261.4  L 152 270.44347826087  L 152 303  L 74 303  " fill-rule="nonzero" fill="#169bd5" stroke="none" />
  </g>
</svg>