<?xml version="1.0" encoding="utf-8"?>
<svg version="1.1" xmlns:xlink="http://www.w3.org/1999/xlink" width="6px" height="10px" xmlns="http://www.w3.org/2000/svg">
  <g transform="matrix(1 0 0 1 -893 -162 )">
    <path d="M 6 1.42679900744417  C 6 1.5343258891646  5.96332046332046 1.62737799834574  5.88996138996139 1.70595533498759  L 2.81467181467181 5  L 5.88996138996139 8.29404466501241  C 5.96332046332046 8.37262200165426  6 8.4656741108354  6 8.57320099255583  C 6 8.68072787427626  5.96332046332046 8.7737799834574  5.88996138996139 8.85235732009926  L 4.92857142857143 9.88213399503722  C 4.85521235521236 9.96071133167907  4.76833976833977 10  4.66795366795367 10  C 4.56756756756757 10  4.48069498069498 9.96071133167907  4.40733590733591 9.88213399503722  L 0.11003861003861 5.27915632754342  C 0.0366795366795367 5.20057899090157  0 5.10752688172043  0 5  C 0 4.89247311827957  0.0366795366795367 4.79942100909843  0.11003861003861 4.72084367245658  L 4.40733590733591 0.117866004962779  C 4.48069498069498 0.0392886683209259  4.56756756756757 0  4.66795366795367 0  C 4.76833976833977 0  4.85521235521236 0.0392886683209259  4.92857142857143 0.117866004962779  L 5.88996138996139 1.14764267990074  C 5.96332046332046 1.2262200165426  6 1.31927212572374  6 1.42679900744417  Z " fill-rule="nonzero" fill="#000000" stroke="none" transform="matrix(1 0 0 1 893 162 )" />
  </g>
</svg>