<?xml version="1.0" encoding="utf-8"?>
<svg version="1.1" xmlns:xlink="http://www.w3.org/1999/xlink" width="92px" height="85px" xmlns="http://www.w3.org/2000/svg">
  <g transform="matrix(1 0 0 1 -1600 -157 )">
    <path d="M 1600 157  L 1692 157  L 1692 242  L 1600 242  L 1600 157  " fill-rule="nonzero" fill="#cccccc" stroke="none" />
    <path d="M 1606 163  L 1686 163  L 1686 236  L 1606 236  L 1606 163  " fill-rule="nonzero" fill="#ffffff" stroke="none" />
    <path d="M 1654.215 182.5  C 1650.645 182.5  1647.84 179.695  1647.84 176.125  C 1647.84 172.555  1650.645 169.75  1654.215 169.75  C 1657.785 169.75  1660.59 172.555  1660.59 176.125  C 1660.59 179.695  1657.785 182.5  1654.215 182.5  " fill-rule="nonzero" fill="#cccccc" stroke="none" />
    <path d="M 1608 234  L 1608 196.05  L 1627 178.8  L 1653.6 195.75  L 1668.8 189.15  L 1684 195.75  L 1684 234  L 1608 234  " fill-rule="nonzero" fill="#169bd5" stroke="none" />
  </g>
</svg>