<?xml version="1.0" encoding="utf-8"?>
<svg version="1.1" xmlns:xlink="http://www.w3.org/1999/xlink" width="20px" height="13px" xmlns="http://www.w3.org/2000/svg">
  <g transform="matrix(1 0 0 1 -1820 -816 )">
    <path d="M 19.7995991983968 10.6323024054983  C 19.9331997327989 10.7812142038946  20 10.9524627720504  20 11.1460481099656  C 20 11.3396334478809  19.9331997327989 11.5108820160367  19.7995991983968 11.659793814433  L 18.7975951903808 12.7766323024055  C 18.6639946559786 12.9255441008018  18.5103540414162 13  18.3366733466934 13  C 18.1629926519706 13  18.0093520374081 12.9255441008018  17.875751503006 12.7766323024055  L 10 3.99828178694158  L 2.12424849699399 12.7766323024055  C 1.99064796259185 12.9255441008018  1.83700734802939 13  1.66332665330661 13  C 1.48964595858383 13  1.33600534402138 12.9255441008018  1.20240480961924 12.7766323024055  L 0.200400801603206 11.659793814433  C 0.066800267201069 11.5108820160367  0 11.3396334478809  0 11.1460481099656  C 0 10.9524627720504  0.066800267201069 10.7812142038946  0.200400801603206 10.6323024054983  L 9.53907815631263 0.223367697594502  C 9.67267869071476 0.0744558991981655  9.82631930527722 0  10 0  C 10.1736806947228 0  10.3273213092852 0.0744558991981655  10.4609218436874 0.223367697594502  L 19.7995991983968 10.6323024054983  Z " fill-rule="nonzero" fill="#000000" stroke="none" transform="matrix(1 0 0 1 1820 816 )" />
  </g>
</svg>