<?xml version="1.0" encoding="utf-8"?>
<svg version="1.1" xmlns:xlink="http://www.w3.org/1999/xlink" width="33px" height="34px" xmlns="http://www.w3.org/2000/svg">
  <g transform="matrix(1 0 0 1 -2222 742 )">
    <path d="M 2238.5 -742  C 2247.74 -742  2255 -734.52  2255 -725  C 2255 -715.48  2247.74 -708  2238.5 -708  C 2229.26 -708  2222 -715.48  2222 -725  C 2222 -734.52  2229.26 -742  2238.5 -742  Z " fill-rule="nonzero" fill="#333333" stroke="none" />
    <path d="M 2238.5 -741.5  C 2247.46 -741.5  2254.5 -734.24  2254.5 -725  C 2254.5 -715.76  2247.46 -708.5  2238.5 -708.5  C 2229.54 -708.5  2222.5 -715.76  2222.5 -725  C 2222.5 -734.24  2229.54 -741.5  2238.5 -741.5  Z " stroke-width="1" stroke="#797979" fill="none" />
  </g>
</svg>