<?xml version="1.0" encoding="utf-8"?>
<svg version="1.1" xmlns:xlink="http://www.w3.org/1999/xlink" width="33px" height="34px" xmlns="http://www.w3.org/2000/svg">
  <g transform="matrix(1 0 0 1 -2222 633 )">
    <path d="M 2238.5 -633  C 2247.74 -633  2255 -625.52  2255 -616  C 2255 -606.48  2247.74 -599  2238.5 -599  C 2229.26 -599  2222 -606.48  2222 -616  C 2222 -625.52  2229.26 -633  2238.5 -633  Z " fill-rule="nonzero" fill="#ffffff" stroke="none" />
    <path d="M 2238.5 -632.5  C 2247.46 -632.5  2254.5 -625.24  2254.5 -616  C 2254.5 -606.76  2247.46 -599.5  2238.5 -599.5  C 2229.54 -599.5  2222.5 -606.76  2222.5 -616  C 2222.5 -625.24  2229.54 -632.5  2238.5 -632.5  Z " stroke-width="1" stroke="#797979" fill="none" />
  </g>
</svg>