<?xml version="1.0" encoding="utf-8"?>
<svg version="1.1" xmlns:xlink="http://www.w3.org/1999/xlink" width="25px" height="23px" xmlns="http://www.w3.org/2000/svg">
  <g transform="matrix(1 0 0 1 -2239 524 )">
    <path d="M 2251.5 -524  C 2258.5 -524  2264 -518.94  2264 -512.5  C 2264 -506.06  2258.5 -501  2251.5 -501  C 2244.5 -501  2239 -506.06  2239 -512.5  C 2239 -518.94  2244.5 -524  2251.5 -524  Z " fill-rule="nonzero" fill="#ffffff" stroke="none" />
    <path d="M 2251.5 -523.5  C 2258.22 -523.5  2263.5 -518.66  2263.5 -512.5  C 2263.5 -506.34  2258.22 -501.5  2251.5 -501.5  C 2244.78 -501.5  2239.5 -506.34  2239.5 -512.5  C 2239.5 -518.66  2244.78 -523.5  2251.5 -523.5  Z " stroke-width="1" stroke="#797979" fill="none" />
  </g>
</svg>