<?xml version="1.0" encoding="utf-8"?>
<svg version="1.1" xmlns:xlink="http://www.w3.org/1999/xlink" width="92px" height="78px" xmlns="http://www.w3.org/2000/svg">
  <g transform="matrix(1 0 0 1 -86 -200 )">
    <path d="M 86 200  L 178 200  L 178 278  L 86 278  L 86 200  " fill-rule="nonzero" fill="#cccccc" stroke="none" />
    <path d="M 91 205  L 173 205  L 173 273  L 91 273  L 91 205  " fill-rule="nonzero" fill="#ffffff" stroke="none" />
    <path d="M 139.69 223.4  C 136.414 223.4  133.84 220.826  133.84 217.55  C 133.84 214.274  136.414 211.7  139.69 211.7  C 142.966 211.7  145.54 214.274  145.54 217.55  C 145.54 220.826  142.966 223.4  139.69 223.4  " fill-rule="nonzero" fill="#cccccc" stroke="none" />
    <path d="M 93 271  L 93 235.8  L 112.5 219.8  L 139.8 238.44347826087  L 155.4 229.4  L 171 238.44347826087  L 171 271  L 93 271  " fill-rule="nonzero" fill="#169bd5" stroke="none" />
  </g>
</svg>