<?xml version="1.0" encoding="utf-8"?>
<svg version="1.1" xmlns:xlink="http://www.w3.org/1999/xlink" width="92px" height="93px" xmlns="http://www.w3.org/2000/svg">
  <g transform="matrix(1 0 0 1 -2553 -196 )">
    <path d="M 2553 196  L 2645 196  L 2645 289  L 2553 289  L 2553 196  " fill-rule="nonzero" fill="#cccccc" stroke="none" />
    <path d="M 2559 202  L 2639 202  L 2639 283  L 2559 283  L 2559 202  " fill-rule="nonzero" fill="#ffffff" stroke="none" />
    <path d="M 2607.74 223.75  C 2603.876 223.75  2600.84 220.714  2600.84 216.85  C 2600.84 212.986  2603.876 209.95  2607.74 209.95  C 2611.604 209.95  2614.64 212.986  2614.64 216.85  C 2614.64 220.714  2611.604 223.75  2607.74 223.75  " fill-rule="nonzero" fill="#cccccc" stroke="none" />
    <path d="M 2562 281  L 2562 239.2  L 2580.75 220.2  L 2607 235.4  L 2622 231.6  L 2637 235.4  L 2637 281  L 2562 281  " fill-rule="nonzero" fill="#169bd5" stroke="none" />
  </g>
</svg>