<?xml version="1.0" encoding="utf-8"?>
<svg version="1.1" xmlns:xlink="http://www.w3.org/1999/xlink" width="20px" height="20px" xmlns="http://www.w3.org/2000/svg">
  <g transform="matrix(1 0 0 1 -553 -540 )">
    <path d="M 563 540  C 568.6 540  573 544.4  573 550  C 573 555.6  568.6 560  563 560  C 557.4 560  553 555.6  553 550  C 553 544.4  557.4 540  563 540  Z " fill-rule="nonzero" fill="#d9001b" stroke="none" />
    <path d="M 563 540.5  C 568.32 540.5  572.5 544.68  572.5 550  C 572.5 555.32  568.32 559.5  563 559.5  C 557.68 559.5  553.5 555.32  553.5 550  C 553.5 544.68  557.68 540.5  563 540.5  Z " stroke-width="1" stroke="#797979" fill="none" />
  </g>
</svg>