<?xml version="1.0" encoding="utf-8"?>
<svg version="1.1" xmlns:xlink="http://www.w3.org/1999/xlink" width="10px" height="20px" preserveAspectRatio="xMidYMin meet" viewBox="1095 130  8 20" xmlns="http://www.w3.org/2000/svg">
  <path d="M 460 145  L 1099 145  L 1099 135  L 1739 135  " stroke-width="2" stroke-dasharray="6,2" stroke="#000000" fill="none" />
  <path d="M 457.5 141.5  A 3.5 3.5 0 0 0 454 145 A 3.5 3.5 0 0 0 457.5 148.5 A 3.5 3.5 0 0 0 461 145 A 3.5 3.5 0 0 0 457.5 141.5 Z M 457.5 143.5  A 1.5 1.5 0 0 1 459 145 A 1.5 1.5 0 0 1 457.5 146.5 A 1.5 1.5 0 0 1 456 145 A 1.5 1.5 0 0 1 457.5 143.5 Z M 1738 142.6  L 1745 135  L 1738 127.4  L 1738 142.6  Z M 1740 137.8  L 1740 132.2  L 1742 135  L 1740 137.8  Z " fill-rule="nonzero" fill="#000000" stroke="none" />
</svg>