<?xml version="1.0" encoding="utf-8"?>
<svg version="1.1" xmlns:xlink="http://www.w3.org/1999/xlink" width="12px" height="12px" viewBox="126 358  12 12" xmlns="http://www.w3.org/2000/svg">
  <path d="M 132 358  C 135.36 358  138 360.64  138 364  C 138 367.36  135.36 370  132 370  C 128.64 370  126 367.36  126 364  C 126 360.64  128.64 358  132 358  Z " fill-rule="nonzero" fill="#ffffff" stroke="none" />
  <path d="M 132 358.5  C 135.08 358.5  137.5 360.92  137.5 364  C 137.5 367.08  135.08 369.5  132 369.5  C 128.92 369.5  126.5 367.08  126.5 364  C 126.5 360.92  128.92 358.5  132 358.5  Z " stroke-width="1" stroke="#797979" fill="none" />
  <path d="M 132 367  C 130.32 367  129 365.68  129 364  C 129 362.32  130.32 361  132 361  C 133.68 361  135 362.32  135 364  C 135 365.68  133.68 367  132 367  " fill-rule="nonzero" fill="#797979" stroke="none" />
</svg>