<?xml version="1.0" encoding="utf-8"?>
<svg version="1.1" xmlns:xlink="http://www.w3.org/1999/xlink" width="12px" height="12px" viewBox="226 353  12 12" xmlns="http://www.w3.org/2000/svg">
  <path d="M 232 353  C 235.36 353  238 355.64  238 359  C 238 362.36  235.36 365  232 365  C 228.64 365  226 362.36  226 359  C 226 355.64  228.64 353  232 353  Z " fill-rule="nonzero" fill="#ffffff" stroke="none" />
  <path d="M 232 353.5  C 235.08 353.5  237.5 355.92  237.5 359  C 237.5 362.08  235.08 364.5  232 364.5  C 228.92 364.5  226.5 362.08  226.5 359  C 226.5 355.92  228.92 353.5  232 353.5  Z " stroke-width="1" stroke="#797979" fill="none" />
  <path d="M 232 362  C 230.32 362  229 360.68  229 359  C 229 357.32  230.32 356  232 356  C 233.68 356  235 357.32  235 359  C 235 360.68  233.68 362  232 362  " fill-rule="nonzero" fill="#797979" stroke="none" />
</svg>