<?xml version="1.0" encoding="utf-8"?>
<svg version="1.1" xmlns:xlink="http://www.w3.org/1999/xlink" width="12px" height="12px" viewBox="126 328  12 12" xmlns="http://www.w3.org/2000/svg">
  <path d="M 132 328  C 135.36 328  138 330.64  138 334  C 138 337.36  135.36 340  132 340  C 128.64 340  126 337.36  126 334  C 126 330.64  128.64 328  132 328  Z " fill-rule="nonzero" fill="#f0f0f0" stroke="none" />
  <path d="M 132 328.5  C 135.08 328.5  137.5 330.92  137.5 334  C 137.5 337.08  135.08 339.5  132 339.5  C 128.92 339.5  126.5 337.08  126.5 334  C 126.5 330.92  128.92 328.5  132 328.5  Z " stroke-width="1" stroke="#797979" fill="none" />
  <path d="M 132 337  C 130.32 337  129 335.68  129 334  C 129 332.32  130.32 331  132 331  C 133.68 331  135 332.32  135 334  C 135 335.68  133.68 337  132 337  " fill-rule="nonzero" fill="#797979" stroke="none" />
</svg>