<?xml version="1.0" encoding="utf-8"?>
<svg version="1.1" xmlns:xlink="http://www.w3.org/1999/xlink" width="19px" height="20px" xmlns="http://www.w3.org/2000/svg">
  <g transform="matrix(1 0 0 1 -787 -1677 )">
    <path d="M 17.5421316964286 18.4654017857143  C 17.6092819940476 18.3947172619048  17.6428571428571 18.3110119047619  17.6428571428571 18.2142857142857  L 17.6428571428571 6.07142857142857  C 17.6428571428571 5.97470238095238  17.6092819940476 5.89099702380952  17.5421316964286 5.8203125  C 17.4749813988095 5.74962797619047  17.3954613095238 5.71428571428571  17.3035714285714 6  L 5.76785714285714 6  C 5.67596726190476 5.71428571428571  5.59644717261905 5.74962797619047  5.529296875 5.8203125  C 5.46214657738095 5.89099702380952  5.42857142857143 5.97470238095238  5.42857142857143 6.07142857142857  L 5.42857142857143 18.2142857142857  C 5.42857142857143 18.3110119047619  5.46214657738095 18.3947172619048  5.529296875 18.4654017857143  C 5.59644717261905 18.5360863095238  5.67596726190476 18.5714285714286  5.76785714285714 18.5714285714286  L 17.3035714285714 18.5714285714286  C 17.3954613095238 18.5714285714286  17.4749813988095 18.5360863095238  17.5421316964286 18.4654017857143  Z M 18.5016741071429 4.81026785714286  C 18.8338913690476 5.15997023809524  19 5.58035714285714  19 6.07142857142857  L 19 18.2142857142857  C 19 18.7053571428571  18.8338913690476 19.125744047619  18.5016741071429 19.4754464285714  C 18.1694568452381 19.8251488095238  17.7700892857143 20  17.3035714285714 20  L 5.76785714285714 20  C 5.30133928571429 20  4.90197172619048 19.8251488095238  4.56975446428571 19.4754464285714  C 4.23753720238095 19.125744047619  4.07142857142857 18.7053571428571  4 18.2142857142857  L 4 6.07142857142857  C 4.07142857142857 5.58035714285714  4.23753720238095 5.15997023809524  4.56975446428571 4.81026785714286  C 4.90197172619048 4.46056547619047  5.30133928571429 4.28571428571429  5.76785714285714 4.28571428571429  L 17.3035714285714 4.28571428571429  C 17.7700892857143 4.28571428571429  18.1694568452381 4.46056547619047  18.5016741071429 4.81026785714286  Z M 14.4302455357143 0.524553571428572  C 14.762462797619 0.874255952380951  14.9285714285714 1.29464285714286  14.9285714285714 1.78571428571429  L 14.9285714285714 3.57142857142857  L 13.5714285714286 3.57142857142857  L 13.5714285714286 1.78571428571429  C 13.5714285714286 1.6889880952381  13.537853422619 1.60528273809524  13.470703125 1.53459821428571  C 13.403552827381 1.46391369047619  13.3240327380952 1.42857142857143  13.2321428571429 1.42857142857143  L 1.69642857142857 1.42857142857143  C 1.60453869047619 1.42857142857143  1.52501860119048 1.46391369047619  1.45786830357143 1.53459821428571  C 1.39071800595238 1.60528273809524  1.35714285714286 1.6889880952381  1.35714285714286 1.78571428571429  L 1.35714285714286 13.9285714285714  C 1.35714285714286 14.0252976190476  1.39071800595238 14.1090029761905  1.45786830357143 14.1796875  C 1.52501860119048 14.2503720238095  1.60453869047619 14.2857142857143  1.69642857142857 14.2857142857143  L 3.39285714285714 14.2857142857143  L 3.39285714285714 15.7142857142857  L 1.69642857142857 15.7142857142857  C 1.22991071428571 15.7142857142857  0.830543154761905 15.5394345238095  0.498325892857143 15.1897321428571  C 0.166108630952381 14.8400297619048  0 14.4196428571429  0 13.9285714285714  L 0 1.78571428571429  C 0 1.29464285714286  0.166108630952381 0.874255952380951  0.498325892857143 0.524553571428572  C 0.830543154761905 0.174851190476191  1.22991071428571 0  1.69642857142857 0  L 13.2321428571429 0  C 13.6986607142857 0  14.0980282738095 0.174851190476191  14.4302455357143 0.524553571428572  Z " fill-rule="nonzero" fill="#000000" stroke="none" transform="matrix(1 0 0 1 787 1677 )" />
  </g>
</svg>