<?xml version="1.0" encoding="utf-8"?>
<svg version="1.1" xmlns:xlink="http://www.w3.org/1999/xlink" width="171px" height="155px" xmlns="http://www.w3.org/2000/svg">
  <g transform="matrix(1 0 0 1 -41 -299 )">
    <path d="M 41 299  L 212 299  L 212 454  L 41 454  L 41 299  " fill-rule="nonzero" fill="#cccccc" stroke="none" />
    <path d="M 52 310  L 201 310  L 201 443  L 52 443  L 52 310  " fill-rule="nonzero" fill="#ffffff" stroke="none" />
    <path d="M 141.545 345.5  C 135.035 345.5  129.92 340.385  129.92 333.875  C 129.92 327.365  135.035 322.25  141.545 322.25  C 148.055 322.25  153.17 327.365  153.17 333.875  C 153.17 340.385  148.055 345.5  141.545 345.5  " fill-rule="nonzero" fill="#cccccc" stroke="none" />
    <path d="M 56 439  L 56 370.25  L 91.25 339  L 140.6 371.017543859649  L 168.8 357.75  L 197 371.017543859649  L 197 439  L 56 439  " fill-rule="nonzero" fill="#169bd5" stroke="none" />
  </g>
</svg>