<?xml version="1.0" encoding="utf-8"?>
<svg version="1.1" xmlns:xlink="http://www.w3.org/1999/xlink" width="351px" height="94px" xmlns="http://www.w3.org/2000/svg">
  <g transform="matrix(1 0 0 1 -42 -164 )">
    <path d="M 42 164  L 393 164  L 393 258  L 42 258  L 42 164  " fill-rule="nonzero" fill="#cccccc" stroke="none" />
    <path d="M 49 171  L 386 171  L 386 251  L 49 251  L 49 171  " fill-rule="nonzero" fill="#ffffff" stroke="none" />
    <path d="M 231.57 192.2  C 227.622 192.2  224.52 189.098  224.52 185.15  C 224.52 181.202  227.622 178.1  231.57 178.1  C 235.518 178.1  238.62 181.202  238.62 185.15  C 238.62 189.098  235.518 192.2  231.57 192.2  " fill-rule="nonzero" fill="#cccccc" stroke="none" />
    <path d="M 52 249  L 52 207.75  L 135 189  L 251.2 236.948717948718  L 317.6 200.25  L 384 236.948717948718  L 384 249  L 52 249  " fill-rule="nonzero" fill="#169bd5" stroke="none" />
  </g>
</svg>