<?xml version="1.0" encoding="utf-8"?>
<svg version="1.1" xmlns:xlink="http://www.w3.org/1999/xlink" width="375px" height="198px" xmlns="http://www.w3.org/2000/svg">
  <g transform="matrix(1 0 0 1 -422 -129 )">
    <path d="M 422 129  L 797 129  L 797 327  L 422 327  L 422 129  " fill-rule="nonzero" fill="#cccccc" stroke="none" />
    <path d="M 436 143  L 783 143  L 783 313  L 436 313  L 436 143  " fill-rule="nonzero" fill="#ffffff" stroke="none" />
    <path d="M 631.85 188.4  C 623.534 188.4  617 181.866  617 173.55  C 617 165.234  623.534 158.7  631.85 158.7  C 640.166 158.7  646.7 165.234  646.7 173.55  C 646.7 181.866  640.166 188.4  631.85 188.4  " fill-rule="nonzero" fill="#cccccc" stroke="none" />
    <path d="M 441 308  L 441 220  L 525.25 180  L 643.2 257.312  L 710.6 204  L 778 257.312  L 778 308  L 441 308  " fill-rule="nonzero" fill="#169bd5" stroke="none" />
  </g>
</svg>