<?xml version="1.0" encoding="utf-8"?>
<svg version="1.1" xmlns:xlink="http://www.w3.org/1999/xlink" width="84px" height="77px" xmlns="http://www.w3.org/2000/svg">
  <g transform="matrix(1 0 0 1 -50 -1493 )">
    <path d="M 50 1493  L 134 1493  L 134 1570  L 50 1570  L 50 1493  " fill-rule="nonzero" fill="#cccccc" stroke="none" />
    <path d="M 55 1498  L 129 1498  L 129 1565  L 55 1565  L 55 1498  " fill-rule="nonzero" fill="#ffffff" stroke="none" />
    <path d="M 99.455 1516.1  C 96.221 1516.1  93.68 1513.559  93.68 1510.325  C 93.68 1507.091  96.221 1504.55  99.455 1504.55  C 102.689 1504.55  105.23 1507.091  105.23 1510.325  C 105.23 1513.559  102.689 1516.1  99.455 1516.1  " fill-rule="nonzero" fill="#cccccc" stroke="none" />
    <path d="M 57 1563  L 57 1528.35  L 74.5 1512.6  L 99 1528.35  L 113 1522.05  L 127 1528.35  L 127 1563  L 57 1563  " fill-rule="nonzero" fill="#169bd5" stroke="none" />
  </g>
</svg>