<?xml version="1.0" encoding="utf-8"?>
<svg version="1.1" xmlns:xlink="http://www.w3.org/1999/xlink" width="12px" height="12px" viewBox="2328 310  12 12" xmlns="http://www.w3.org/2000/svg">
  <path d="M 2334 310  C 2337.36 310  2340 312.64  2340 316  C 2340 319.36  2337.36 322  2334 322  C 2330.64 322  2328 319.36  2328 316  C 2328 312.64  2330.64 310  2334 310  Z " fill-rule="nonzero" fill="#ffffff" stroke="none" />
  <path d="M 2334 310.5  C 2337.08 310.5  2339.5 312.92  2339.5 316  C 2339.5 319.08  2337.08 321.5  2334 321.5  C 2330.92 321.5  2328.5 319.08  2328.5 316  C 2328.5 312.92  2330.92 310.5  2334 310.5  Z " stroke-width="1" stroke="#797979" fill="none" />
  <path d="M 2334 319  C 2332.32 319  2331 317.68  2331 316  C 2331 314.32  2332.32 313  2334 313  C 2335.68 313  2337 314.32  2337 316  C 2337 317.68  2335.68 319  2334 319  " fill-rule="nonzero" fill="#797979" stroke="none" />
</svg>