<?xml version="1.0" encoding="utf-8"?>
<svg version="1.1" xmlns:xlink="http://www.w3.org/1999/xlink" width="12px" height="12px" viewBox="1835 310  12 12" xmlns="http://www.w3.org/2000/svg">
  <path d="M 1841 310  C 1844.36 310  1847 312.64  1847 316  C 1847 319.36  1844.36 322  1841 322  C 1837.64 322  1835 319.36  1835 316  C 1835 312.64  1837.64 310  1841 310  Z " fill-rule="nonzero" fill="#ffffff" stroke="none" />
  <path d="M 1841 310.5  C 1844.08 310.5  1846.5 312.92  1846.5 316  C 1846.5 319.08  1844.08 321.5  1841 321.5  C 1837.92 321.5  1835.5 319.08  1835.5 316  C 1835.5 312.92  1837.92 310.5  1841 310.5  Z " stroke-width="1" stroke="#797979" fill="none" />
  <path d="M 1841 319  C 1839.32 319  1838 317.68  1838 316  C 1838 314.32  1839.32 313  1841 313  C 1842.68 313  1844 314.32  1844 316  C 1844 317.68  1842.68 319  1841 319  " fill-rule="nonzero" fill="#797979" stroke="none" />
</svg>