<?xml version="1.0" encoding="utf-8"?>
<svg version="1.1" xmlns:xlink="http://www.w3.org/1999/xlink" width="12px" height="12px" viewBox="1729 310  12 12" xmlns="http://www.w3.org/2000/svg">
  <path d="M 1735 310  C 1738.36 310  1741 312.64  1741 316  C 1741 319.36  1738.36 322  1735 322  C 1731.64 322  1729 319.36  1729 316  C 1729 312.64  1731.64 310  1735 310  Z " fill-rule="nonzero" fill="#ffffff" stroke="none" />
  <path d="M 1735 310.5  C 1738.08 310.5  1740.5 312.92  1740.5 316  C 1740.5 319.08  1738.08 321.5  1735 321.5  C 1731.92 321.5  1729.5 319.08  1729.5 316  C 1729.5 312.92  1731.92 310.5  1735 310.5  Z " stroke-width="1" stroke="#797979" fill="none" />
  <path d="M 1735 319  C 1733.32 319  1732 317.68  1732 316  C 1732 314.32  1733.32 313  1735 313  C 1736.68 313  1738 314.32  1738 316  C 1738 317.68  1736.68 319  1735 319  " fill-rule="nonzero" fill="#797979" stroke="none" />
</svg>