<?xml version="1.0" encoding="utf-8"?>
<svg version="1.1" xmlns:xlink="http://www.w3.org/1999/xlink" width="12px" height="12px" viewBox="2452 310  12 12" xmlns="http://www.w3.org/2000/svg">
  <path d="M 2458 310  C 2461.36 310  2464 312.64  2464 316  C 2464 319.36  2461.36 322  2458 322  C 2454.64 322  2452 319.36  2452 316  C 2452 312.64  2454.64 310  2458 310  Z " fill-rule="nonzero" fill="#ffffff" stroke="none" />
  <path d="M 2458 310.5  C 2461.08 310.5  2463.5 312.92  2463.5 316  C 2463.5 319.08  2461.08 321.5  2458 321.5  C 2454.92 321.5  2452.5 319.08  2452.5 316  C 2452.5 312.92  2454.92 310.5  2458 310.5  Z " stroke-width="1" stroke="#797979" fill="none" />
  <path d="M 2458 319  C 2456.32 319  2455 317.68  2455 316  C 2455 314.32  2456.32 313  2458 313  C 2459.68 313  2461 314.32  2461 316  C 2461 317.68  2459.68 319  2458 319  " fill-rule="nonzero" fill="#797979" stroke="none" />
</svg>