<?xml version="1.0" encoding="utf-8"?>
<svg version="1.1" xmlns:xlink="http://www.w3.org/1999/xlink" width="11px" height="13px" xmlns="http://www.w3.org/2000/svg">
  <g transform="matrix(1 0 0 1 -128 -115 )">
    <path d="M 10.6298076923077 4.66099558916194  C 10.8766025641026 4.71014492753623  11 4.83574879227053  11 5.03780718336484  C 11 5.15795001050199  10.9427083333333 5.28901491283344  10.828125 5.43100189035917  L 8.42848557692308 8.33081285444234  L 8.99699519230769 12.4265910522999  C 9.00140224358974 12.4648183154799  9.00360576923077 12.5194286914514  9.00360576923077 12.5904221802142  C 9.00360576923077 12.7051039697543  8.98046875 12.8020373871035  8.93419471153846 12.8812224322621  C 8.88792067307692 12.9604074774207  8.82071314102564 13  8.73257211538461 13  C 8.64883814102564 13  8.56069711538461 12.9672337744171  8.46814903846154 12.9017013232514  L 5.5 10.9684940138626  L 2.53185096153846 12.9017013232514  C 2.43489583333333 12.9672337744171  2.34675480769231 13  2.26742788461538 13  C 2.17487980769231 13  2.10546875 12.9604074774207  2.05919471153846 12.8812224322621  C 2.01292067307692 12.8020373871035  1.98978365384615 12.7051039697543  1.98978365384615 12.5904221802142  C 1.98978365384615 12.5576559546314  1.99419070512821 12.5030455786599  2.00300480769231 12.4265910522999  L 2.57151442307692 8.33081285444234  L 0.165264423076923 5.43100189035917  C 0.055088141025641 5.28355387523629  0 5.15248897290485  0 5.03780718336484  C 0 4.83574879227053  0.123397435897436 4.71014492753623  0.370192307692308 4.66099558916194  L 3.68870192307692 4.06301197227473  L 5.17608173076923 0.335853812224322  C 5.25981570512821 0.11195127074144  5.36778846153846 0  5.5 0  C 5.63221153846154 0  5.74018429487179 0.11195127074144  5.82391826923077 0.335853812224322  L 7.31129807692308 4.06301197227473  L 10.6298076923077 4.66099558916194  Z " fill-rule="nonzero" fill="#000000" stroke="none" transform="matrix(1 0 0 1 128 115 )" />
  </g>
</svg>