<?xml version="1.0" encoding="utf-8"?>
<svg version="1.1" xmlns:xlink="http://www.w3.org/1999/xlink" width="13px" height="14px" xmlns="http://www.w3.org/2000/svg">
  <g transform="matrix(1 0 0 1 -171 -115 )">
    <path d="M 9.4453125 12.2885948330183  L 8.8828125 8.57466918714556  L 11.2734375 5.95463137996219  L 7.9765625 5.40768746061752  L 6.5 2.03780718336484  L 5.0234375 5.40768746061752  L 1.7265625 5.95463137996219  L 4.1171875 8.57466918714556  L 3.546875 12.2885948330183  L 6.5 10.5330812854442  L 9.4453125 12.2885948330183  Z M 12.5625 5.01953371140517  C 12.8541666666667 5.07246376811594  13 5.20772946859903  13 5.42533081285444  C 13 5.55471539592522  12.9322916666667 5.69586221382062  12.796875 5.84877126654064  L 9.9609375 8.97164461247637  L 10.6328125 13.3824826717076  C 10.6380208333333 13.4236504935938  10.640625 13.4824616677169  10.640625 13.5589161940769  C 10.640625 13.8529720646923  10.5338541666667 14  10.3203125 14  C 10.2213541666667 14  10.1171875 13.9647132955262  10.0078125 13.8941398865785  L 6.5 11.8122243226213  L 2.9921875 13.8941398865785  C 2.87760416666667 13.9647132955262  2.7734375 14  2.6796875 14  C 2.5703125 14  2.48828125 13.9573618987608  2.43359375 13.8720856962823  C 2.37890625 13.7868094938038  2.3515625 13.6824196597354  2.3515625 13.5589161940769  C 2.3515625 13.523629489603  2.35677083333333 13.4648183154799  2.3671875 13.3824826717076  L 3.0390625 8.97164461247637  L 0.1953125 5.84877126654064  C 0.0651041666666667 5.68998109640832  0 5.54883427851292  0 5.42533081285444  C 0 5.20772946859903  0.145833333333333 5.07246376811594  0.4375 5.01953371140517  L 4.359375 4.3755513547574  L 6.1171875 0.361688720856962  C 6.21614583333333 0.12056290695232  6.34375 0  6.5 0  C 6.65625 0  6.78385416666667 0.12056290695232  6.8828125 0.361688720856962  L 8.640625 4.3755513547574  L 12.5625 5.01953371140517  Z " fill-rule="nonzero" fill="#000000" stroke="none" transform="matrix(1 0 0 1 171 115 )" />
  </g>
</svg>