<?xml version="1.0" encoding="utf-8"?>
<svg version="1.1" xmlns:xlink="http://www.w3.org/1999/xlink" width="11px" height="13px" xmlns="http://www.w3.org/2000/svg">
  <g transform="matrix(1 0 0 1 -157 -115 )">
    <path d="M 7.51622596153846 7.96219281663516  L 7.84014423076923 7.57718966603655  L 9.5390625 5.52930056710775  L 7.18569711538461 5.10333963453056  L 6.74939903846154 5.02142407057341  L 6.55108173076923 4.5299306868305  L 5.5 1.89224952741021  L 5.5 9.78071833648393  L 5.89002403846154 10.0346565847511  L 7.9921875 11.4108380592313  L 7.59555288461539 8.50283553875236  L 7.51622596153846 7.96219281663516  Z M 10.9867788461538 4.94360428481412  C 11.0264423076923 5.09378281873556  10.9735576923077 5.25624868725058  10.828125 5.43100189035917  L 8.42848557692308 8.33081285444234  L 8.99699519230769 12.4265910522999  C 9.01903044871795 12.6068052930057  9.0058092948718 12.7474270111321  8.95733173076923 12.8484562066793  C 8.90885416666667 12.9494854022264  8.8339342948718 13  8.73257211538461 13  C 8.65765224358974 13  8.56951121794872 12.9672337744171  8.46814903846154 12.9017013232514  L 5.5 10.9684940138626  L 2.53185096153846 12.9017013232514  C 2.43048878205128 12.9672337744171  2.34234775641026 13  2.26742788461538 13  C 2.16606570512821 13  2.09114583333333 12.9494854022264  2.04266826923077 12.8484562066793  C 1.99419070512821 12.7474270111321  1.98096955128205 12.6068052930057  2.00300480769231 12.4265910522999  L 2.57151442307692 8.33081285444234  L 0.165264423076923 5.43100189035917  C 0.024238782051282 5.25624868725058  -0.0264423076923077 5.09378281873556  0.0132211538461538 4.94360428481412  C 0.0528846153846154 4.79342575089267  0.171875 4.69922285234195  0.370192307692308 4.66099558916194  L 3.68870192307692 4.06301197227473  L 5.17608173076923 0.335853812224322  C 5.26422275641026 0.11195127074144  5.37219551282051 0  5.5 0  C 5.62339743589744 0  5.73137019230769 0.11195127074144  5.82391826923077 0.335853812224322  L 7.31129807692308 4.06301197227473  L 10.6298076923077 4.66099558916194  C 10.828125 4.69922285234195  10.9471153846154 4.79342575089267  10.9867788461538 4.94360428481412  Z " fill-rule="nonzero" fill="#000000" stroke="none" transform="matrix(1 0 0 1 157 115 )" />
  </g>
</svg>