<?xml version="1.0" encoding="utf-8"?>
<svg version="1.1" xmlns:xlink="http://www.w3.org/1999/xlink" width="50px" height="50px" xmlns="http://www.w3.org/2000/svg">
  <g transform="matrix(1 0 0 1 -53 -87 )">
    <path d="M 53 87  L 103 87  L 103 137  L 53 137  L 53 87  " fill-rule="nonzero" fill="#cccccc" stroke="none" />
    <path d="M 57 91  L 99 91  L 99 133  L 57 133  L 57 91  " fill-rule="nonzero" fill="#ffffff" stroke="none" />
    <path d="M 82.75 102  C 80.65 102  79 100.35  79 98.25  C 79 96.15  80.65 94.5  82.75 94.5  C 84.85 94.5  86.5 96.15  86.5 98.25  C 86.5 100.35  84.85 102  82.75 102  " fill-rule="nonzero" fill="#cccccc" stroke="none" />
    <path d="M 59 132  L 59 110.55  L 68.75 100.8  L 82.4 108.6  L 90.2 106.65  L 98 108.6  L 98 132  L 59 132  " fill-rule="nonzero" fill="#169bd5" stroke="none" />
  </g>
</svg>