<?xml version="1.0" encoding="utf-8"?>
<svg version="1.1" xmlns:xlink="http://www.w3.org/1999/xlink" width="92px" height="85px" xmlns="http://www.w3.org/2000/svg">
  <g transform="matrix(1 0 0 1 -52 -525 )">
    <path d="M 52 525  L 144 525  L 144 610  L 52 610  L 52 525  " fill-rule="nonzero" fill="#cccccc" stroke="none" />
    <path d="M 58 531  L 138 531  L 138 604  L 58 604  L 58 531  " fill-rule="nonzero" fill="#ffffff" stroke="none" />
    <path d="M 106.215 550.5  C 102.645 550.5  99.84 547.695  99.84 544.125  C 99.84 540.555  102.645 537.75  106.215 537.75  C 109.785 537.75  112.59 540.555  112.59 544.125  C 112.59 547.695  109.785 550.5  106.215 550.5  " fill-rule="nonzero" fill="#cccccc" stroke="none" />
    <path d="M 60 602  L 60 564.05  L 79 546.8  L 105.6 563.75  L 120.8 557.15  L 136 563.75  L 136 602  L 60 602  " fill-rule="nonzero" fill="#169bd5" stroke="none" />
  </g>
</svg>