<?xml version="1.0" encoding="utf-8"?>
<svg version="1.1" xmlns:xlink="http://www.w3.org/1999/xlink" width="12px" height="13px" xmlns="http://www.w3.org/2000/svg">
  <g transform="matrix(1 0 0 1 -178 -131 )">
    <path d="M 11.0792410714286 12.0025111607143  C 11.1216517857143 11.9565662202381  11.1428571428571 11.9021577380952  11.1428571428571 11.8392857142857  L 11.1428571428571 3.94642857142857  C 11.1428571428571 3.88355654761905  11.1216517857143 3.82914806547619  11.0792410714286 3.783203125  C 11.0368303571429 3.73725818452381  10.9866071428571 3.71428571428571  10.9285714285714 3.71428571428571  L 3.64285714285714 3.71428571428571  C 3.58482142857143 3.71428571428571  3.53459821428571 3.73725818452381  3.4921875 3.783203125  C 3.44977678571429 3.82914806547619  3.42857142857143 3.88355654761905  3.42857142857143 3.94642857142857  L 3.42857142857143 11.8392857142857  C 3.42857142857143 11.9021577380952  3.44977678571429 11.9565662202381  3.4921875 12.0025111607143  C 3.53459821428571 12.0484561011905  3.58482142857143 12.0714285714286  3.64285714285714 12.0714285714286  L 10.9285714285714 12.0714285714286  C 10.9866071428571 12.0714285714286  11.0368303571429 12.0484561011905  11.0792410714286 12.0025111607143  Z M 11.6852678571429 3.12667410714286  C 11.8950892857143 3.3539806547619  12 3.62723214285714  12 3.94642857142857  L 12 11.8392857142857  C 12 12.1584821428571  11.8950892857143 12.4317336309524  11.6852678571429 12.6590401785714  C 11.4754464285714 12.8863467261905  11.2232142857143 13  10.9285714285714 13  L 3.64285714285714 13  C 3.34821428571429 13  3.09598214285714 12.8863467261905  2.88616071428571 12.6590401785714  C 2.67633928571429 12.4317336309524  2.57142857142857 12.1584821428571  2.57142857142857 11.8392857142857  L 2.57142857142857 3.94642857142857  C 2.57142857142857 3.62723214285714  2.67633928571429 3.3539806547619  2.88616071428571 3.12667410714286  C 3.09598214285714 2.89936755952381  3.34821428571429 2.78571428571429  3.64285714285714 2.78571428571429  L 10.9285714285714 2.78571428571429  C 11.2232142857143 2.78571428571429  11.4754464285714 2.89936755952381  11.6852678571429 3.12667410714286  Z M 9.11383928571428 0.340959821428572  C 9.32366071428572 0.568266369047618  9.42857142857143 0.841517857142858  9.42857142857143 1.16071428571429  L 9.42857142857143 2.32142857142857  L 8.57142857142857 2.32142857142857  L 8.57142857142857 1.16071428571429  C 8.57142857142857 1.09784226190476  8.55022321428572 1.0434337797619  8.5078125 0.997488839285714  C 8.46540178571429 0.951543898809523  8.41517857142857 0.928571428571428  8.35714285714286 0.928571428571428  L 1.07142857142857 0.928571428571428  C 1.01339285714286 0.928571428571428  0.963169642857143 0.951543898809523  0.920758928571429 0.997488839285714  C 0.878348214285714 1.0434337797619  0.857142857142857 1.09784226190476  0.857142857142857 1.16071428571429  L 0.857142857142857 9.05357142857143  C 0.857142857142857 9.11644345238095  0.878348214285714 9.17085193452381  0.920758928571429 9.216796875  C 0.963169642857143 9.26274181547619  1.01339285714286 9.28571428571429  1.07142857142857 9.28571428571429  L 2.14285714285714 9.28571428571429  L 2.14285714285714 10.2142857142857  L 1.07142857142857 10.2142857142857  C 0.776785714285714 10.2142857142857  0.524553571428572 10.1006324404762  0.314732142857143 9.87332589285714  C 0.104910714285714 9.64601934523809  0 9.37276785714286  0 9.05357142857143  L 0 1.16071428571429  C 0 0.841517857142858  0.104910714285714 0.568266369047618  0.314732142857143 0.340959821428572  C 0.524553571428572 0.113653273809524  0.776785714285714 0  1.07142857142857 0  L 8.35714285714286 0  C 8.65178571428572 0  8.90401785714286 0.113653273809524  9.11383928571428 0.340959821428572  Z " fill-rule="nonzero" fill="#000000" stroke="none" transform="matrix(1 0 0 1 178 131 )" />
  </g>
</svg>