<?xml version="1.0" encoding="utf-8"?>
<svg version="1.1" xmlns:xlink="http://www.w3.org/1999/xlink" width="183px" height="23px" xmlns="http://www.w3.org/2000/svg">
  <defs>
    <mask fill="white" id="clip68">
      <path d="M 0 22  L 0 0  L 182 0  L 182 22  L 166.615172413793 22  L 0 22  Z " fill-rule="evenodd" />
    </mask>
  </defs>
  <g transform="matrix(1 0 0 1 -2338 -416 )">
    <path d="M 0 22  L 0 0  L 182 0  L 182 22  L 166.615172413793 22  L 0 22  Z M 178.243495248091 21.545917008011  L 3.75650475190905 0.454082991988997  L 122.526687297 14.8109182446923  L 178.243495248091 21.545917008011  Z " fill-rule="nonzero" fill="#f2f2f2" stroke="none" transform="matrix(1 0 0 1 2338 416 )" />
    <path d="M 0 22  L 0 0  L 182 0  L 182 22  L 166.615172413793 22  L 0 22  Z " stroke-width="2" stroke="#797979" fill="none" transform="matrix(1 0 0 1 2338 416 )" mask="url(#clip68)" />
    <path d="M 178.243495248091 0.454082991988997  L 3.75650475190905 21.545917008011  M 3.75650475190905 0.454082991988997  L 122.526687297 14.8109182446923  L 178.243495248091 21.545917008011  " stroke-width="1" stroke="#797979" fill="none" transform="matrix(1 0 0 1 2338 416 )" />
  </g>
</svg>