<?xml version="1.0" encoding="utf-8"?>
<svg version="1.1" xmlns:xlink="http://www.w3.org/1999/xlink" width="12px" height="12px" viewBox="1977 1333  12 12" xmlns="http://www.w3.org/2000/svg">
  <path d="M 1983 1333  C 1986.36 1333  1989 1335.64  1989 1339  C 1989 1342.36  1986.36 1345  1983 1345  C 1979.64 1345  1977 1342.36  1977 1339  C 1977 1335.64  1979.64 1333  1983 1333  Z " fill-rule="nonzero" fill="#ffffff" stroke="none" />
  <path d="M 1983 1333.5  C 1986.08 1333.5  1988.5 1335.92  1988.5 1339  C 1988.5 1342.08  1986.08 1344.5  1983 1344.5  C 1979.92 1344.5  1977.5 1342.08  1977.5 1339  C 1977.5 1335.92  1979.92 1333.5  1983 1333.5  Z " stroke-width="1" stroke="#797979" fill="none" />
  <path d="M 1983 1342  C 1981.32 1342  1980 1340.68  1980 1339  C 1980 1337.32  1981.32 1336  1983 1336  C 1984.68 1336  1986 1337.32  1986 1339  C 1986 1340.68  1984.68 1342  1983 1342  " fill-rule="nonzero" fill="#797979" stroke="none" />
</svg>