<?xml version="1.0" encoding="utf-8"?>
<svg version="1.1" xmlns:xlink="http://www.w3.org/1999/xlink" width="12px" height="12px" viewBox="1984 381  12 12" xmlns="http://www.w3.org/2000/svg">
  <path d="M 1990 381  C 1993.36 381  1996 383.64  1996 387  C 1996 390.36  1993.36 393  1990 393  C 1986.64 393  1984 390.36  1984 387  C 1984 383.64  1986.64 381  1990 381  Z " fill-rule="nonzero" fill="#f0f0f0" stroke="none" />
  <path d="M 1990 381.5  C 1993.08 381.5  1995.5 383.92  1995.5 387  C 1995.5 390.08  1993.08 392.5  1990 392.5  C 1986.92 392.5  1984.5 390.08  1984.5 387  C 1984.5 383.92  1986.92 381.5  1990 381.5  Z " stroke-width="1" stroke="#797979" fill="none" />
  <path d="M 1990 390  C 1988.32 390  1987 388.68  1987 387  C 1987 385.32  1988.32 384  1990 384  C 1991.68 384  1993 385.32  1993 387  C 1993 388.68  1991.68 390  1990 390  " fill-rule="nonzero" fill="#797979" stroke="none" />
</svg>