<?xml version="1.0" encoding="utf-8"?>
<svg version="1.1" xmlns:xlink="http://www.w3.org/1999/xlink" width="12px" height="12px" viewBox="2336 387  12 12" xmlns="http://www.w3.org/2000/svg">
  <path d="M 2342 387  C 2345.36 387  2348 389.64  2348 393  C 2348 396.36  2345.36 399  2342 399  C 2338.64 399  2336 396.36  2336 393  C 2336 389.64  2338.64 387  2342 387  Z " fill-rule="nonzero" fill="#ffffff" stroke="none" />
  <path d="M 2342 387.5  C 2345.08 387.5  2347.5 389.92  2347.5 393  C 2347.5 396.08  2345.08 398.5  2342 398.5  C 2338.92 398.5  2336.5 396.08  2336.5 393  C 2336.5 389.92  2338.92 387.5  2342 387.5  Z " stroke-width="1" stroke="#797979" fill="none" />
  <path d="M 2342 396  C 2340.32 396  2339 394.68  2339 393  C 2339 391.32  2340.32 390  2342 390  C 2343.68 390  2345 391.32  2345 393  C 2345 394.68  2343.68 396  2342 396  " fill-rule="nonzero" fill="#797979" stroke="none" />
</svg>