<?xml version="1.0" encoding="utf-8"?>
<svg version="1.1" xmlns:xlink="http://www.w3.org/1999/xlink" width="12px" height="12px" viewBox="1395 1327  12 12" xmlns="http://www.w3.org/2000/svg">
  <path d="M 1401 1327  C 1404.36 1327  1407 1329.64  1407 1333  C 1407 1336.36  1404.36 1339  1401 1339  C 1397.64 1339  1395 1336.36  1395 1333  C 1395 1329.64  1397.64 1327  1401 1327  Z " fill-rule="nonzero" fill="#f0f0f0" stroke="none" />
  <path d="M 1401 1327.5  C 1404.08 1327.5  1406.5 1329.92  1406.5 1333  C 1406.5 1336.08  1404.08 1338.5  1401 1338.5  C 1397.92 1338.5  1395.5 1336.08  1395.5 1333  C 1395.5 1329.92  1397.92 1327.5  1401 1327.5  Z " stroke-width="1" stroke="#797979" fill="none" />
  <path d="M 1401 1336  C 1399.32 1336  1398 1334.68  1398 1333  C 1398 1331.32  1399.32 1330  1401 1330  C 1402.68 1330  1404 1331.32  1404 1333  C 1404 1334.68  1402.68 1336  1401 1336  " fill-rule="nonzero" fill="#797979" stroke="none" />
</svg>