<?xml version="1.0" encoding="utf-8"?>
<svg version="1.1" xmlns:xlink="http://www.w3.org/1999/xlink" width="12px" height="12px" viewBox="1510 1327  12 12" xmlns="http://www.w3.org/2000/svg">
  <path d="M 1516 1327  C 1519.36 1327  1522 1329.64  1522 1333  C 1522 1336.36  1519.36 1339  1516 1339  C 1512.64 1339  1510 1336.36  1510 1333  C 1510 1329.64  1512.64 1327  1516 1327  Z " fill-rule="nonzero" fill="#ffffff" stroke="none" />
  <path d="M 1516 1327.5  C 1519.08 1327.5  1521.5 1329.92  1521.5 1333  C 1521.5 1336.08  1519.08 1338.5  1516 1338.5  C 1512.92 1338.5  1510.5 1336.08  1510.5 1333  C 1510.5 1329.92  1512.92 1327.5  1516 1327.5  Z " stroke-width="1" stroke="#797979" fill="none" />
  <path d="M 1516 1336  C 1514.32 1336  1513 1334.68  1513 1333  C 1513 1331.32  1514.32 1330  1516 1330  C 1517.68 1330  1519 1331.32  1519 1333  C 1519 1334.68  1517.68 1336  1516 1336  " fill-rule="nonzero" fill="#797979" stroke="none" />
</svg>