<?xml version="1.0" encoding="utf-8"?>
<svg version="1.1" xmlns:xlink="http://www.w3.org/1999/xlink" width="12px" height="12px" viewBox="1862 1333  12 12" xmlns="http://www.w3.org/2000/svg">
  <path d="M 1868 1333  C 1871.36 1333  1874 1335.64  1874 1339  C 1874 1342.36  1871.36 1345  1868 1345  C 1864.64 1345  1862 1342.36  1862 1339  C 1862 1335.64  1864.64 1333  1868 1333  Z " fill-rule="nonzero" fill="#ffffff" stroke="none" />
  <path d="M 1868 1333.5  C 1871.08 1333.5  1873.5 1335.92  1873.5 1339  C 1873.5 1342.08  1871.08 1344.5  1868 1344.5  C 1864.92 1344.5  1862.5 1342.08  1862.5 1339  C 1862.5 1335.92  1864.92 1333.5  1868 1333.5  Z " stroke-width="1" stroke="#797979" fill="none" />
  <path d="M 1868 1342  C 1866.32 1342  1865 1340.68  1865 1339  C 1865 1337.32  1866.32 1336  1868 1336  C 1869.68 1336  1871 1337.32  1871 1339  C 1871 1340.68  1869.68 1342  1868 1342  " fill-rule="nonzero" fill="#797979" stroke="none" />
</svg>