<?xml version="1.0" encoding="utf-8"?>
<svg version="1.1" xmlns:xlink="http://www.w3.org/1999/xlink" width="12px" height="12px" viewBox="576 1528  12 12" xmlns="http://www.w3.org/2000/svg">
  <path d="M 582 1528  C 585.36 1528  588 1530.64  588 1534  C 588 1537.36  585.36 1540  582 1540  C 578.64 1540  576 1537.36  576 1534  C 576 1530.64  578.64 1528  582 1528  Z " fill-rule="nonzero" fill="#ffffff" stroke="none" />
  <path d="M 582 1528.5  C 585.08 1528.5  587.5 1530.92  587.5 1534  C 587.5 1537.08  585.08 1539.5  582 1539.5  C 578.92 1539.5  576.5 1537.08  576.5 1534  C 576.5 1530.92  578.92 1528.5  582 1528.5  Z " stroke-width="1" stroke="#797979" fill="none" />
  <path d="M 582 1537  C 580.32 1537  579 1535.68  579 1534  C 579 1532.32  580.32 1531  582 1531  C 583.68 1531  585 1532.32  585 1534  C 585 1535.68  583.68 1537  582 1537  " fill-rule="nonzero" fill="#797979" stroke="none" />
</svg>