<?xml version="1.0" encoding="utf-8"?>
<svg version="1.1" xmlns:xlink="http://www.w3.org/1999/xlink" width="92px" height="85px" xmlns="http://www.w3.org/2000/svg">
  <g transform="matrix(1 0 0 1 -1026 -299 )">
    <path d="M 1026 299  L 1118 299  L 1118 384  L 1026 384  L 1026 299  " fill-rule="nonzero" fill="#cccccc" stroke="none" />
    <path d="M 1032 305  L 1112 305  L 1112 378  L 1032 378  L 1032 305  " fill-rule="nonzero" fill="#ffffff" stroke="none" />
    <path d="M 1080.215 324.5  C 1076.645 324.5  1073.84 321.695  1073.84 318.125  C 1073.84 314.555  1076.645 311.75  1080.215 311.75  C 1083.785 311.75  1086.59 314.555  1086.59 318.125  C 1086.59 321.695  1083.785 324.5  1080.215 324.5  " fill-rule="nonzero" fill="#cccccc" stroke="none" />
    <path d="M 1034 376  L 1034 338.05  L 1053 320.8  L 1079.6 337.75  L 1094.8 331.15  L 1110 337.75  L 1110 376  L 1034 376  " fill-rule="nonzero" fill="#169bd5" stroke="none" />
  </g>
</svg>