<?xml version="1.0" encoding="utf-8"?>
<svg version="1.1" xmlns:xlink="http://www.w3.org/1999/xlink" width="10px" height="18px" xmlns="http://www.w3.org/2000/svg">
  <g transform="matrix(1 0 0 1 -373 -1523 )">
    <path d="M 10 9  C 10 9.19354838709677  9.93886743886744 9.36104218362283  9.81660231660232 9.50248138957816  L 2.65444015444015 17.787841191067  C 2.53217503217503 17.9292803970223  2.38738738738739 18  2.22007722007722 18  C 2.05276705276705 18  1.90797940797941 17.9292803970223  1.78571428571429 17.787841191067  L 0.183397683397683 15.9342431761787  C 0.0611325611325612 15.7928039702233  0 15.6253101736973  0 15.4317617866005  C 0 15.2382133995037  0.0611325611325612 15.0707196029777  0.183397683397683 14.9292803970223  L 5.30888030888031 9  L 0.183397683397683 3.07071960297767  C 0.0611325611325612 2.92928039702233  0 2.76178660049628  0 2.5682382133995  C 0 2.37468982630273  0.0611325611325612 2.20719602977667  0.183397683397683 2.06575682382134  L 1.78571428571429 0.212158808933002  C 1.90797940797941 0.0707196029776667  2.05276705276705 0  2.22007722007722 0  C 2.38738738738739 0  2.53217503217503 0.0707196029776667  2.65444015444015 0.212158808933002  L 9.81660231660232 8.49751861042184  C 9.93886743886744 8.63895781637717  10 8.80645161290323  10 9  Z " fill-rule="nonzero" fill="#000000" stroke="none" transform="matrix(1 0 0 1 373 1523 )" />
  </g>
</svg>