<?xml version="1.0" encoding="utf-8"?>
<svg version="1.1" xmlns:xlink="http://www.w3.org/1999/xlink" width="7px" height="12px" xmlns="http://www.w3.org/2000/svg">
  <g transform="matrix(1 0 0 1 -398 -585 )">
    <path d="M 7 6  C 7 6.12903225806452  6.95720720720721 6.24069478908189  6.87162162162162 6.33498759305211  L 1.85810810810811 11.8585607940447  C 1.77252252252252 11.9528535980149  1.67117117117117 12  1.55405405405405 12  C 1.43693693693694 12  1.33558558558559 11.9528535980149  1.25 11.8585607940447  L 0.128378378378378 10.6228287841191  C 0.0427927927927929 10.5285359801489  0 10.4168734491315  0 10.287841191067  C 0 10.1588089330025  0.0427927927927929 10.0471464019851  0.128378378378378 9.95285359801489  L 3.71621621621622 6  L 0.128378378378378 2.04714640198511  C 0.0427927927927929 1.95285359801489  0 1.84119106699752  0 1.712158808933  C 0 1.58312655086848  0.0427927927927929 1.47146401985112  0.128378378378378 1.37717121588089  L 1.25 0.141439205955335  C 1.33558558558559 0.0471464019851111  1.43693693693694 0  1.55405405405405 0  C 1.67117117117117 0  1.77252252252252 0.0471464019851111  1.85810810810811 0.141439205955335  L 6.87162162162162 5.66501240694789  C 6.95720720720721 5.75930521091811  7 5.87096774193548  7 6  Z " fill-rule="nonzero" fill="#000000" stroke="none" transform="matrix(1 0 0 1 398 585 )" />
  </g>
</svg>