<?xml version="1.0" encoding="utf-8"?>
<svg version="1.1" xmlns:xlink="http://www.w3.org/1999/xlink" width="92px" height="85px" xmlns="http://www.w3.org/2000/svg">
  <g transform="matrix(1 0 0 1 -69 -594 )">
    <path d="M 69 594  L 161 594  L 161 679  L 69 679  L 69 594  " fill-rule="nonzero" fill="#cccccc" stroke="none" />
    <path d="M 75 600  L 155 600  L 155 673  L 75 673  L 75 600  " fill-rule="nonzero" fill="#ffffff" stroke="none" />
    <path d="M 123.215 619.5  C 119.645 619.5  116.84 616.695  116.84 613.125  C 116.84 609.555  119.645 606.75  123.215 606.75  C 126.785 606.75  129.59 609.555  129.59 613.125  C 129.59 616.695  126.785 619.5  123.215 619.5  " fill-rule="nonzero" fill="#cccccc" stroke="none" />
    <path d="M 77 671  L 77 633.05  L 96 615.8  L 122.6 632.75  L 137.8 626.15  L 153 632.75  L 153 671  L 77 671  " fill-rule="nonzero" fill="#169bd5" stroke="none" />
  </g>
</svg>