<?xml version="1.0" encoding="utf-8"?>
<svg version="1.1" xmlns:xlink="http://www.w3.org/1999/xlink" width="12px" height="12px" viewBox="1243 892  12 12" xmlns="http://www.w3.org/2000/svg">
  <path d="M 1249 892  C 1252.36 892  1255 894.64  1255 898  C 1255 901.36  1252.36 904  1249 904  C 1245.64 904  1243 901.36  1243 898  C 1243 894.64  1245.64 892  1249 892  Z " fill-rule="nonzero" fill="#f0f0f0" stroke="none" />
  <path d="M 1249 892.5  C 1252.08 892.5  1254.5 894.92  1254.5 898  C 1254.5 901.08  1252.08 903.5  1249 903.5  C 1245.92 903.5  1243.5 901.08  1243.5 898  C 1243.5 894.92  1245.92 892.5  1249 892.5  Z " stroke-width="1" stroke="#797979" fill="none" />
  <path d="M 1249 901  C 1247.32 901  1246 899.68  1246 898  C 1246 896.32  1247.32 895  1249 895  C 1250.68 895  1252 896.32  1252 898  C 1252 899.68  1250.68 901  1249 901  " fill-rule="nonzero" fill="#797979" stroke="none" />
</svg>