<?xml version="1.0" encoding="utf-8"?>
<svg version="1.1" xmlns:xlink="http://www.w3.org/1999/xlink" width="12px" height="12px" viewBox="35 973  12 12" xmlns="http://www.w3.org/2000/svg">
  <path d="M 41 973  C 44.36 973  47 975.64  47 979  C 47 982.36  44.36 985  41 985  C 37.64 985  35 982.36  35 979  C 35 975.64  37.64 973  41 973  Z " fill-rule="nonzero" fill="#ffffff" stroke="none" />
  <path d="M 41 973.5  C 44.08 973.5  46.5 975.92  46.5 979  C 46.5 982.08  44.08 984.5  41 984.5  C 37.92 984.5  35.5 982.08  35.5 979  C 35.5 975.92  37.92 973.5  41 973.5  Z " stroke-width="1" stroke="#797979" fill="none" />
  <path d="M 41 982  C 39.32 982  38 980.68  38 979  C 38 977.32  39.32 976  41 976  C 42.68 976  44 977.32  44 979  C 44 980.68  42.68 982  41 982  " fill-rule="nonzero" fill="#797979" stroke="none" />
</svg>