<?xml version="1.0" encoding="utf-8"?>
<svg version="1.1" xmlns:xlink="http://www.w3.org/1999/xlink" width="12px" height="12px" viewBox="528 1680  12 12" xmlns="http://www.w3.org/2000/svg">
  <path d="M 534 1680  C 537.36 1680  540 1682.64  540 1686  C 540 1689.36  537.36 1692  534 1692  C 530.64 1692  528 1689.36  528 1686  C 528 1682.64  530.64 1680  534 1680  Z " fill-rule="nonzero" fill="#f0f0f0" stroke="none" />
  <path d="M 534 1680.5  C 537.08 1680.5  539.5 1682.92  539.5 1686  C 539.5 1689.08  537.08 1691.5  534 1691.5  C 530.92 1691.5  528.5 1689.08  528.5 1686  C 528.5 1682.92  530.92 1680.5  534 1680.5  Z " stroke-width="1" stroke="#797979" fill="none" />
  <path d="M 534 1689  C 532.32 1689  531 1687.68  531 1686  C 531 1684.32  532.32 1683  534 1683  C 535.68 1683  537 1684.32  537 1686  C 537 1687.68  535.68 1689  534 1689  " fill-rule="nonzero" fill="#797979" stroke="none" />
</svg>