<?xml version="1.0" encoding="utf-8"?>
<svg version="1.1" xmlns:xlink="http://www.w3.org/1999/xlink" width="12px" height="12px" viewBox="628 1680  12 12" xmlns="http://www.w3.org/2000/svg">
  <path d="M 634 1680  C 637.36 1680  640 1682.64  640 1686  C 640 1689.36  637.36 1692  634 1692  C 630.64 1692  628 1689.36  628 1686  C 628 1682.64  630.64 1680  634 1680  Z " fill-rule="nonzero" fill="#ffffff" stroke="none" />
  <path d="M 634 1680.5  C 637.08 1680.5  639.5 1682.92  639.5 1686  C 639.5 1689.08  637.08 1691.5  634 1691.5  C 630.92 1691.5  628.5 1689.08  628.5 1686  C 628.5 1682.92  630.92 1680.5  634 1680.5  Z " stroke-width="1" stroke="#797979" fill="none" />
  <path d="M 634 1689  C 632.32 1689  631 1687.68  631 1686  C 631 1684.32  632.32 1683  634 1683  C 635.68 1683  637 1684.32  637 1686  C 637 1687.68  635.68 1689  634 1689  " fill-rule="nonzero" fill="#797979" stroke="none" />
</svg>