<?xml version="1.0" encoding="utf-8"?>
<svg version="1.1" xmlns:xlink="http://www.w3.org/1999/xlink" width="52px" height="53px" xmlns="http://www.w3.org/2000/svg">
  <g transform="matrix(1 0 0 1 -1073 -1370 )">
    <path d="M 1073 1370  L 1125 1370  L 1125 1423  L 1073 1423  L 1073 1370  " fill-rule="nonzero" fill="#cccccc" stroke="none" />
    <path d="M 1077 1374  L 1121 1374  L 1121 1419  L 1077 1419  L 1077 1374  " fill-rule="nonzero" fill="#ffffff" stroke="none" />
    <path d="M 1103.94 1385.75  C 1101.756 1385.75  1100.04 1384.034  1100.04 1381.85  C 1100.04 1379.666  1101.756 1377.95  1103.94 1377.95  C 1106.124 1377.95  1107.84 1379.666  1107.84 1381.85  C 1107.84 1384.034  1106.124 1385.75  1103.94 1385.75  " fill-rule="nonzero" fill="#cccccc" stroke="none" />
    <path d="M 1079 1418  L 1079 1394.9  L 1089.25 1384.4  L 1103.6 1392.8  L 1111.8 1390.7  L 1120 1392.8  L 1120 1418  L 1079 1418  " fill-rule="nonzero" fill="#169bd5" stroke="none" />
  </g>
</svg>