<?xml version="1.0" encoding="utf-8"?>
<svg version="1.1" xmlns:xlink="http://www.w3.org/1999/xlink" width="12px" height="12px" viewBox="528 1711  12 12" xmlns="http://www.w3.org/2000/svg">
  <path d="M 534 1711  C 537.36 1711  540 1713.64  540 1717  C 540 1720.36  537.36 1723  534 1723  C 530.64 1723  528 1720.36  528 1717  C 528 1713.64  530.64 1711  534 1711  Z " fill-rule="nonzero" fill="#ffffff" stroke="none" />
  <path d="M 534 1711.5  C 537.08 1711.5  539.5 1713.92  539.5 1717  C 539.5 1720.08  537.08 1722.5  534 1722.5  C 530.92 1722.5  528.5 1720.08  528.5 1717  C 528.5 1713.92  530.92 1711.5  534 1711.5  Z " stroke-width="1" stroke="#797979" fill="none" />
  <path d="M 534 1720  C 532.32 1720  531 1718.68  531 1717  C 531 1715.32  532.32 1714  534 1714  C 535.68 1714  537 1715.32  537 1717  C 537 1718.68  535.68 1720  534 1720  " fill-rule="nonzero" fill="#797979" stroke="none" />
</svg>