<?xml version="1.0" encoding="utf-8"?>
<svg version="1.1" xmlns:xlink="http://www.w3.org/1999/xlink" width="12px" height="12px" viewBox="628 1711  12 12" xmlns="http://www.w3.org/2000/svg">
  <path d="M 634 1711  C 637.36 1711  640 1713.64  640 1717  C 640 1720.36  637.36 1723  634 1723  C 630.64 1723  628 1720.36  628 1717  C 628 1713.64  630.64 1711  634 1711  Z " fill-rule="nonzero" fill="#ffffff" stroke="none" />
  <path d="M 634 1711.5  C 637.08 1711.5  639.5 1713.92  639.5 1717  C 639.5 1720.08  637.08 1722.5  634 1722.5  C 630.92 1722.5  628.5 1720.08  628.5 1717  C 628.5 1713.92  630.92 1711.5  634 1711.5  Z " stroke-width="1" stroke="#797979" fill="none" />
  <path d="M 634 1720  C 632.32 1720  631 1718.68  631 1717  C 631 1715.32  632.32 1714  634 1714  C 635.68 1714  637 1715.32  637 1717  C 637 1718.68  635.68 1720  634 1720  " fill-rule="nonzero" fill="#797979" stroke="none" />
</svg>