<?xml version="1.0" encoding="utf-8"?>
<svg version="1.1" xmlns:xlink="http://www.w3.org/1999/xlink" width="12px" height="12px" viewBox="971 1662  12 12" xmlns="http://www.w3.org/2000/svg">
  <path d="M 977 1662  C 980.36 1662  983 1664.64  983 1668  C 983 1671.36  980.36 1674  977 1674  C 973.64 1674  971 1671.36  971 1668  C 971 1664.64  973.64 1662  977 1662  Z " fill-rule="nonzero" fill="#ffffff" stroke="none" />
  <path d="M 977 1662.5  C 980.08 1662.5  982.5 1664.92  982.5 1668  C 982.5 1671.08  980.08 1673.5  977 1673.5  C 973.92 1673.5  971.5 1671.08  971.5 1668  C 971.5 1664.92  973.92 1662.5  977 1662.5  Z " stroke-width="1" stroke="#797979" fill="none" />
  <path d="M 977 1671  C 975.32 1671  974 1669.68  974 1668  C 974 1666.32  975.32 1665  977 1665  C 978.68 1665  980 1666.32  980 1668  C 980 1669.68  978.68 1671  977 1671  " fill-rule="nonzero" fill="#797979" stroke="none" />
</svg>