<?xml version="1.0" encoding="utf-8"?>
<svg version="1.1" xmlns:xlink="http://www.w3.org/1999/xlink" width="12px" height="12px" viewBox="819 1663  12 12" xmlns="http://www.w3.org/2000/svg">
  <path d="M 825 1663  C 828.36 1663  831 1665.64  831 1669  C 831 1672.36  828.36 1675  825 1675  C 821.64 1675  819 1672.36  819 1669  C 819 1665.64  821.64 1663  825 1663  Z " fill-rule="nonzero" fill="#ffffff" stroke="none" />
  <path d="M 825 1663.5  C 828.08 1663.5  830.5 1665.92  830.5 1669  C 830.5 1672.08  828.08 1674.5  825 1674.5  C 821.92 1674.5  819.5 1672.08  819.5 1669  C 819.5 1665.92  821.92 1663.5  825 1663.5  Z " stroke-width="1" stroke="#797979" fill="none" />
  <path d="M 825 1672  C 823.32 1672  822 1670.68  822 1669  C 822 1667.32  823.32 1666  825 1666  C 826.68 1666  828 1667.32  828 1669  C 828 1670.68  826.68 1672  825 1672  " fill-rule="nonzero" fill="#797979" stroke="none" />
</svg>