<?xml version="1.0" encoding="utf-8"?>
<svg version="1.1" xmlns:xlink="http://www.w3.org/1999/xlink" width="38px" height="33px" xmlns="http://www.w3.org/2000/svg">
  <g transform="matrix(1 0 0 1 -538 -1381 )">
    <path d="M 538 1381  L 576 1381  L 576 1414  L 538 1414  L 538 1381  " fill-rule="nonzero" fill="#cccccc" stroke="none" />
    <path d="M 540 1383  L 574 1383  L 574 1412  L 540 1412  L 540 1383  " fill-rule="nonzero" fill="#ffffff" stroke="none" />
    <path d="M 560.235 1390.9  C 558.849 1390.9  557.76 1389.811  557.76 1388.425  C 557.76 1387.039  558.849 1385.95  560.235 1385.95  C 561.621 1385.95  562.71 1387.039  562.71 1388.425  C 562.71 1389.811  561.621 1390.9  560.235 1390.9  " fill-rule="nonzero" fill="#cccccc" stroke="none" />
    <path d="M 541 1411  L 541 1396.15  L 549 1389.4  L 560.2 1396.93157894737  L 566.6 1393.45  L 573 1396.93157894737  L 573 1411  L 541 1411  " fill-rule="nonzero" fill="#169bd5" stroke="none" />
  </g>
</svg>