<?xml version="1.0" encoding="utf-8"?>
<svg version="1.1" xmlns:xlink="http://www.w3.org/1999/xlink" width="12px" height="12px" viewBox="2186 2131  12 12" xmlns="http://www.w3.org/2000/svg">
  <path d="M 2192 2131  C 2195.36 2131  2198 2133.64  2198 2137  C 2198 2140.36  2195.36 2143  2192 2143  C 2188.64 2143  2186 2140.36  2186 2137  C 2186 2133.64  2188.64 2131  2192 2131  Z " fill-rule="nonzero" fill="#f0f0f0" stroke="none" />
  <path d="M 2192 2131.5  C 2195.08 2131.5  2197.5 2133.92  2197.5 2137  C 2197.5 2140.08  2195.08 2142.5  2192 2142.5  C 2188.92 2142.5  2186.5 2140.08  2186.5 2137  C 2186.5 2133.92  2188.92 2131.5  2192 2131.5  Z " stroke-width="1" stroke="#797979" fill="none" />
  <path d="M 2192 2140  C 2190.32 2140  2189 2138.68  2189 2137  C 2189 2135.32  2190.32 2134  2192 2134  C 2193.68 2134  2195 2135.32  2195 2137  C 2195 2138.68  2193.68 2140  2192 2140  " fill-rule="nonzero" fill="#797979" stroke="none" />
</svg>