<?xml version="1.0" encoding="utf-8"?>
<svg version="1.1" xmlns:xlink="http://www.w3.org/1999/xlink" width="12px" height="12px" viewBox="2186 2010  12 12" xmlns="http://www.w3.org/2000/svg">
  <path d="M 2192 2010  C 2195.36 2010  2198 2012.64  2198 2016  C 2198 2019.36  2195.36 2022  2192 2022  C 2188.64 2022  2186 2019.36  2186 2016  C 2186 2012.64  2188.64 2010  2192 2010  Z " fill-rule="nonzero" fill="#f0f0f0" stroke="none" />
  <path d="M 2192 2010.5  C 2195.08 2010.5  2197.5 2012.92  2197.5 2016  C 2197.5 2019.08  2195.08 2021.5  2192 2021.5  C 2188.92 2021.5  2186.5 2019.08  2186.5 2016  C 2186.5 2012.92  2188.92 2010.5  2192 2010.5  Z " stroke-width="1" stroke="#797979" fill="none" />
  <path d="M 2192 2019  C 2190.32 2019  2189 2017.68  2189 2016  C 2189 2014.32  2190.32 2013  2192 2013  C 2193.68 2013  2195 2014.32  2195 2016  C 2195 2017.68  2193.68 2019  2192 2019  " fill-rule="nonzero" fill="#797979" stroke="none" />
</svg>