<?xml version="1.0" encoding="utf-8"?>
<svg version="1.1" xmlns:xlink="http://www.w3.org/1999/xlink" width="12px" height="12px" viewBox="2186 2053  12 12" xmlns="http://www.w3.org/2000/svg">
  <path d="M 2192 2053  C 2195.36 2053  2198 2055.64  2198 2059  C 2198 2062.36  2195.36 2065  2192 2065  C 2188.64 2065  2186 2062.36  2186 2059  C 2186 2055.64  2188.64 2053  2192 2053  Z " fill-rule="nonzero" fill="#f0f0f0" stroke="none" />
  <path d="M 2192 2053.5  C 2195.08 2053.5  2197.5 2055.92  2197.5 2059  C 2197.5 2062.08  2195.08 2064.5  2192 2064.5  C 2188.92 2064.5  2186.5 2062.08  2186.5 2059  C 2186.5 2055.92  2188.92 2053.5  2192 2053.5  Z " stroke-width="1" stroke="#797979" fill="none" />
  <path d="M 2192 2062  C 2190.32 2062  2189 2060.68  2189 2059  C 2189 2057.32  2190.32 2056  2192 2056  C 2193.68 2056  2195 2057.32  2195 2059  C 2195 2060.68  2193.68 2062  2192 2062  " fill-rule="nonzero" fill="#797979" stroke="none" />
</svg>