<?xml version="1.0" encoding="utf-8"?>
<svg version="1.1" xmlns:xlink="http://www.w3.org/1999/xlink" width="12px" height="12px" viewBox="2186 2091  12 12" xmlns="http://www.w3.org/2000/svg">
  <path d="M 2192 2091  C 2195.36 2091  2198 2093.64  2198 2097  C 2198 2100.36  2195.36 2103  2192 2103  C 2188.64 2103  2186 2100.36  2186 2097  C 2186 2093.64  2188.64 2091  2192 2091  Z " fill-rule="nonzero" fill="#ffffff" stroke="none" />
  <path d="M 2192 2091.5  C 2195.08 2091.5  2197.5 2093.92  2197.5 2097  C 2197.5 2100.08  2195.08 2102.5  2192 2102.5  C 2188.92 2102.5  2186.5 2100.08  2186.5 2097  C 2186.5 2093.92  2188.92 2091.5  2192 2091.5  Z " stroke-width="1" stroke="#797979" fill="none" />
  <path d="M 2192 2100  C 2190.32 2100  2189 2098.68  2189 2097  C 2189 2095.32  2190.32 2094  2192 2094  C 2193.68 2094  2195 2095.32  2195 2097  C 2195 2098.68  2193.68 2100  2192 2100  " fill-rule="nonzero" fill="#797979" stroke="none" />
</svg>